<svg id="Layer_1" data-name="Layer 1" xmlns="http://www.w3.org/2000/svg" viewBox="0 0 1024 1024"><defs><style>.cls-1{fill:#fff;}</style></defs><path class="cls-1" d="M393.51,511.87a4.09,4.09,0,0,1-3.59-6c24.18-44.94,20-110,3.87-148.36-8.32-19.75-19.77-32.81-32.34-36.92-3.08.87-13.29,4.26-24.44,13.37-17.62,14.39-29.67,36.58-34.86,64.17a4.09,4.09,0,0,1-8-1.51c7.05-37.55,24.62-58.42,38.11-69.31,14.79-11.95,27.91-14.85,28.47-15a4.15,4.15,0,0,1,2,.07c15.61,4.48,29,19,38.64,41.92,16.91,40.13,21.19,108.23-4.2,155.42A4.1,4.1,0,0,1,393.51,511.87Z"/><path class="cls-1" d="M361.55,320.4a4.1,4.1,0,0,1-3.88-2.78L350.72,297a4.09,4.09,0,0,1,2-4.92c11.69-6.2,23.84-17,15.16-45.52L267.26,233.12a4.09,4.09,0,0,1,1.08-8.1l103.14,13.75a4.06,4.06,0,0,1,3.34,2.76c8.72,26.13,3.72,44.5-15.28,56L365.42,315a4.08,4.08,0,0,1-2.57,5.17A3.94,3.94,0,0,1,361.55,320.4Z"/><path class="cls-1" d="M326.16,342.54a4.09,4.09,0,0,1-3.37-1.76c-2.78-4-4.38-14.35-5.1-20.28-9.12-.09-16.6-2.73-22.25-7.87-6.4-5.82-8.8-13.41-9.69-18.06-7.11.28-21.39-.05-27.78-6.64a11.92,11.92,0,0,1-3.26-10.2c2-15,23-22.87,31-25.31,1.55-10.24,8.56-45.29,32.22-52.13,17.7-5.12,38.68-.65,49.89,10.63,5.93,6,12,16.57,7.09,33.06a4.09,4.09,0,1,1-7.84-2.32c3-10.16,1.32-18.56-5.06-25-9.07-9.13-27-12.8-41.81-8.54-22,6.36-26.69,47.49-26.74,47.91a4.09,4.09,0,0,1-3,3.51c-7.21,1.89-26.23,9-27.57,19.24a3.79,3.79,0,0,0,1,3.44c4.12,4.25,17.56,4.66,25.06,3.93a4.08,4.08,0,0,1,4.49,3.94c0,.09.46,10.08,7.6,16.52,4.75,4.28,11.5,6.16,20.1,5.6a4.09,4.09,0,0,1,4.33,3.7c.74,7.94,2.51,17.91,4.09,20.19a4.09,4.09,0,0,1-3.35,6.42Z"/><path class="cls-1" d="M319.25,445.09l-2.64,0c-1.31,0-2.65,0-4,0-21.31,0-58.72-8-60.3-8.33a4.1,4.1,0,0,1-3.22-4.24l2.19-37a4.09,4.09,0,0,1,4.28-3.84l60.64,2.89c7.6-7.34,16.66-18.32,27.63-33.48a4.09,4.09,0,0,1,6.62,4.79c-12.05,16.66-21.56,28-29.91,35.85a4.09,4.09,0,0,1-3,1.09L259.18,400l-1.75,29.46c9.81,2,38.34,7.45,55.15,7.45,1.42,0,2.8,0,4.14,0,17.59.23,28.2.39,60.16-51.26a4.09,4.09,0,1,1,6.95,4.3C352.33,440.85,339.27,445.09,319.25,445.09Z"/><path class="cls-1" d="M211.08,434.84a10.49,10.49,0,0,1-2.61-.33c-6.56-1.64-10.27-11.78-11.75-16.9-4.9-3-7.18-9-5.86-15.82,2-10.38,12.31-21.56,30.16-21.56,27.35,0,37.16,12.43,37.56,13a4.09,4.09,0,0,1-6.47,5c-.2-.25-8.33-9.78-31.09-9.78-13.22,0-20.74,7.74-22.13,14.94-.57,2.92-.12,6.46,2.83,7.65a4.06,4.06,0,0,1,2.44,2.8c1.5,5.95,4.61,12.28,6.29,12.78,2.41.61,4.52-3.19,4.55-3.22a4.08,4.08,0,0,1,7.24,3.78C220.64,430.23,216.67,434.84,211.08,434.84Z"/><path class="cls-1" d="M224.82,442.88c-.29,0-.57,0-.86,0-4.85-.43-8.76-4.19-11.63-11.2a4.09,4.09,0,1,1,7.57-3.09c1.52,3.71,3.3,6,4.76,6.14,2.11.18,5.56-3.33,7.22-5.94a4.09,4.09,0,0,1,3.86-1.88l17.8,1.75a4.09,4.09,0,0,1-.8,8.14l-15.46-1.53C235,438.15,230.42,442.88,224.82,442.88Z"/><path class="cls-1" d="M4.33,482.35H4a4.09,4.09,0,1,1,.22-8.17c.16,0,17.47.2,72.13-12.51C130.77,449,196,412.44,198.14,411.26l10-6.06a4.09,4.09,0,0,1,4.23,7l-10.08,6.09-.1.06c-.67.38-67.83,38.23-124,51.29C25.7,481.83,7.11,482.35,4.33,482.35Z"/><path class="cls-1" d="M196.73,401.47a4.05,4.05,0,0,1-3-1.29c-55.09-58.94-138.28-68.35-139.11-68.44a4.09,4.09,0,0,1,.85-8.13c.89.1,22,2.39,50.44,12.26,26.26,9.11,63.86,26.7,93.79,58.73a4.09,4.09,0,0,1-3,6.87Z"/><path class="cls-1" d="M289.91,460.63a3.71,3.71,0,0,1-.74-.07,4.09,4.09,0,0,1-3.29-4.75l3.1-17.05a4.09,4.09,0,1,1,8,1.46l-3.1,17A4.09,4.09,0,0,1,289.91,460.63Z"/><path class="cls-1" d="M191.8,510.58a3.73,3.73,0,0,1-1-.12,4.08,4.08,0,0,1-3-4.95c8.46-34,13.12-52.76,54.12-54.32,37.94-1.44,84.87,8.33,86.85,8.74a4.09,4.09,0,1,1-1.69,8c-.47-.1-47.93-10-84.84-8.57-34.87,1.33-38,14.07-46.51,48.12A4.08,4.08,0,0,1,191.8,510.58Z"/><path class="cls-1" d="M441.82,703.79a4.07,4.07,0,0,1-4-4.85l35.86-187.07H97.29L140.8,691h53.79a4.09,4.09,0,0,1,0,8.17h-57a4.09,4.09,0,0,1-4-3.12L88.12,508.74a4.09,4.09,0,0,1,4-5.05H478.61a4.09,4.09,0,0,1,4,4.86L445.84,700.48A4.1,4.1,0,0,1,441.82,703.79Z"/><path class="cls-1" d="M319.8,825.81a126.11,126.11,0,1,1,126.11-126.1A126.25,126.25,0,0,1,319.8,825.81Zm0-244A117.94,117.94,0,1,0,437.73,699.71,118.07,118.07,0,0,0,319.8,581.77Z"/><path class="cls-1" d="M319.8,795.94A96.24,96.24,0,1,1,416,699.71,96.34,96.34,0,0,1,319.8,795.94Zm0-184.29a88.06,88.06,0,1,0,88.06,88.06A88.16,88.16,0,0,0,319.8,611.65Z"/><path class="cls-1" d="M319.8,678.3a4.09,4.09,0,0,1-4.09-4.09V607.56a4.09,4.09,0,1,1,8.18,0v66.65A4.09,4.09,0,0,1,319.8,678.3Z"/><path class="cls-1" d="M319.8,795.94a4.09,4.09,0,0,1-4.09-4.09V725.23a4.09,4.09,0,1,1,8.18,0v66.62A4.09,4.09,0,0,1,319.8,795.94Z"/><path class="cls-1" d="M384.19,769.7a4.1,4.1,0,0,1-2.89-1.19l-47.15-47.09a4.08,4.08,0,1,1,5.77-5.78l47.16,47.08a4.09,4.09,0,0,1-2.89,7Z"/><path class="cls-1" d="M301,686.59a4.08,4.08,0,0,1-2.89-1.2L250.9,638.31a4.09,4.09,0,0,1,5.78-5.79l47.16,47.08a4.09,4.09,0,0,1-2.89,7Z"/><path class="cls-1" d="M319.8,729.31a29.6,29.6,0,1,1,20-7.77A29.46,29.46,0,0,1,319.8,729.31Zm0-51a21.41,21.41,0,0,0-21.07,17.53,21.42,21.42,0,0,0,21.07,25.33,21.44,21.44,0,0,0,21.44-21.43,20.56,20.56,0,0,0-.36-3.87,21.43,21.43,0,0,0-21.08-17.56Z"/><path class="cls-1" d="M253.79,769.7a4.09,4.09,0,0,1-2.89-7l48-47.87a4.09,4.09,0,0,1,5.78,5.79l-47.95,47.87A4.11,4.11,0,0,1,253.79,769.7Z"/><path class="cls-1" d="M337.85,685.76a4.09,4.09,0,0,1-2.88-7l46.33-46.26a4.09,4.09,0,0,1,5.78,5.79l-46.34,46.25A4.07,4.07,0,0,1,337.85,685.76Z"/><path class="cls-1" d="M294.71,699.17h-67a4.09,4.09,0,0,1,0-8.18h67a4.09,4.09,0,1,1,0,8.18Z"/><path class="cls-1" d="M411.83,699.17H344.9a4.09,4.09,0,0,1,0-8.18h66.93a4.09,4.09,0,1,1,0,8.18Z"/><path class="cls-1" d="M468.59,551.13h-367a4.09,4.09,0,0,1,0-8.18h367a4.09,4.09,0,1,1,0,8.18Z"/><path class="cls-1" d="M794.14,819.53H160.46a4.09,4.09,0,0,1,0-8.18H794.14a4.09,4.09,0,0,1,0,8.18Z"/><path class="cls-1" d="M292.16,511.87a3.55,3.55,0,0,1-.46,0c-1.06-.12-22.82-2.65-39.37-8.81l.51,2.72a4.09,4.09,0,1,1-8,1.49L242.9,497a4.08,4.08,0,0,1,5.88-4.39c15.19,7.79,43.55,11.09,43.84,11.13a4.09,4.09,0,0,1-.46,8.15Z"/><path class="cls-1" d="M926.23,820.27a121.92,121.92,0,0,1-14.33-.7,4.09,4.09,0,0,1-3-6.1c.57-1,13.91-24,21.35-34.45a47.29,47.29,0,0,1,6.35-7c4.88-4.64,7.33-7,3.27-20.21-1.11-3.61-2.17-7.42-3.19-11.1-4.95-17.8-10.07-36.2-23.4-43.92-5-2.89-11.34-5.32-18.69-8.13-18-6.89-40.42-15.46-59.67-37.18-27.07-30.55-28.7-65.42-28.76-66.89a4.09,4.09,0,0,1,8.17-.31c0,.33,1.65,33.5,26.71,61.78,17.92,20.22,39.29,28.4,56.47,35,7.68,2.94,14.31,5.48,19.86,8.69,16.23,9.39,21.8,29.43,27.19,48.81,1.05,3.8,2.05,7.38,3.13,10.89,5.16,16.82,1.19,22.22-5.46,28.54a38.46,38.46,0,0,0-5.32,5.82c-5,7-13.12,20.51-17.63,28.15a176.45,176.45,0,0,0,22.31-.49c3.93-.32,7.36-.34,10.12-.35,3.95,0,7.37,0,8.32-1,.73-.76,1.56-3.17,1.36-10.37-.48-16.76,9.7-29.48,14.44-34.47-4.28-8.44-16.69-34.65-19.51-60.64-3.3-30.35-4.14-33-11.15-35.38-3.72-1.27-36.2-13.12-31.21-38.45.28-1.45.61-3,1-4.72,4.13-19.63,11.82-56.17-15.45-91.88-25.52-33.43-64.81-41.18-120.11-23.7-23.43,7.41-50,5.69-76.86-5-25.42-10.1-49.8-27.58-70.53-50.56-39-43.27-82.19-59.4-82.62-59.56a4.09,4.09,0,0,1-2.68-4c.52-11.74-10.93-28.47-18.46-37.74-7.93,18.64-1.58,38.86-1.51,39.08a4.1,4.1,0,0,1-3,5.26c-6.25,1.35-14.73,7.65-23.72,14.32-8.33,6.19-17.79,13.2-27.79,18.1-16,7.81-49.14,24.05-57.45,40.84-7.65,15.47-2.41,35.31-2.36,35.51a4.09,4.09,0,0,1-7.89,2.14c-.25-.93-6.09-23.05,2.92-41.27,8.39-16.95,34.36-31.44,61.19-44.56,9.32-4.57,18.45-11.35,26.51-17.33,8.43-6.26,15.91-11.81,22.77-14.49-1.93-8.48-4.82-28.86,6-47a4.08,4.08,0,0,1,6.52-.68c1,1.07,23.1,25.34,24.46,45.18C565,393,602.74,410.3,638,449.45c41.38,45.9,95.89,66.78,138.85,53.21,26.54-8.39,50.17-11.17,70.24-8.26,24.08,3.49,43.87,15.2,58.83,34.78,29.55,38.7,21.35,77.63,16.95,98.54-.35,1.65-.67,3.19-.95,4.61-3.71,18.83,24.62,28.72,25.83,29.13,12.51,4.26,13.38,12.31,16.63,42.23,3.18,29.24,19.84,60,20,60.36a4.09,4.09,0,0,1-.9,5c-.14.12-14.49,12.95-14,30.37.2,7.29-.34,12.85-3.65,16.28s-8.12,3.49-14.16,3.52c-2.75,0-5.87,0-9.49.33C936.1,820.1,930.7,820.27,926.23,820.27Z"/><path class="cls-1" d="M983,606.24l-.34,0c-.36,0-35.59-3.47-40.22-44.19-.93-8.18-1.43-15.31-1.86-21.6-1.68-24-2.6-29.72-16.31-30.55C905.18,508.75,900.17,524.35,900,525a4.09,4.09,0,0,1-7.83-2.34c2.31-7.78,12.11-22.17,32.59-20.95,21.4,1.29,22.37,15.16,24,38.14.43,6.21.92,13.24,1.83,21.25,1.64,14.41,7.69,25,18,31.49a38.32,38.32,0,0,0,6.16,3.15,128.07,128.07,0,0,1-7-19.55,4.09,4.09,0,0,1,7.29-3.39c6.38,9,13.68,14.24,21.69,15.55a28.43,28.43,0,0,0,14.83-1.8c-16.28-11.89-16.44-33.89-16.61-58.93-.07-9.29-.14-18.9-.94-29-1.4-17.54-10.88-32-26-39.71-14.24-7.24-31-6.89-43.74.92-27.08,16.61-34.84,54.73-34.91,55.11a4.09,4.09,0,0,1-8-1.56c.33-1.71,8.48-42,38.66-60.52,15.15-9.28,35-9.76,51.72-1.24,17.73,9,28.83,25.91,30.46,46.35.83,10.39.9,20.15,1,29.58.19,27.38.33,47.16,18.56,55.44a4.09,4.09,0,0,1,.75,7c-.49.36-12.07,8.8-26.89,6.42a34.81,34.81,0,0,1-14.07-5.64,52.05,52.05,0,0,0,4.9,9,4.1,4.1,0,0,1-3.33,6.47Z"/><path class="cls-1" d="M763.36,820.49c-5.73,0-10-.87-12.35-4.17-3-4.1-.84-9.35-.15-11.07,6.39-15.77,24.76-29.48,33.59-36.07l.15-.11c2.12-1.58,3.77-2.65,5.09-3.51,3.87-2.51,5.32-3.45,11.86-14,1.76-2.83,4.18-6.19,7-10.08,12.08-16.75,32.3-44.78,36.05-82.64a4.09,4.09,0,0,1,8.14.81c-4,40.05-25,69.2-37.56,86.61-2.71,3.77-5.06,7-6.66,9.61-7.14,11.5-9.27,13.23-14.36,16.53-1.29.84-2.75,1.79-4.65,3.21l-.15.11c-8.23,6.14-25.37,18.93-30.9,32.58a6.92,6.92,0,0,0-.77,3.22c1.56,1.22,9.48.69,14.74.34a165.49,165.49,0,0,1,17.2-.52c13.4.48,14.06-3.28,15.78-13.3.43-2.48.91-5.29,1.67-8.24,3-11.71,12.2-14.81,18.93-14.88,5.46-22.5,28.68-49.79,41.47-64.81,3.63-4.28,7.39-8.69,8-9.87,1.36-2.78-1.73-14.43-5.36-23.15a4.09,4.09,0,1,1,7.54-3.15c2.14,5.13,8.82,22.43,5.16,29.9-1,2-3.64,5.15-9.1,11.57-13,15.25-37.15,43.65-40.35,64.5a4.08,4.08,0,0,1-1.7,2.73,4.15,4.15,0,0,1-3.14.66c-1.78-.33-10.94-1.49-13.51,8.54-.67,2.62-1.11,5.14-1.53,7.58-1.76,10.24-3.59,20.85-24.13,20.09A159.44,159.44,0,0,0,773,820C769.42,820.27,766.2,820.49,763.36,820.49Z"/><path class="cls-1" d="M720.68,666.81a194.46,194.46,0,0,1-60.45-9.91,4.09,4.09,0,1,1,2.53-7.77c55,17.94,107.43,10.81,160.12-21.8a4.09,4.09,0,1,1,4.3,6.95c-27.65,17.11-56,27.59-84.25,31.14A177.47,177.47,0,0,1,720.68,666.81Z"/><path class="cls-1" d="M547.44,819.53H498.3a4.09,4.09,0,0,1-3.72-5.78c.45-1,11.28-24.6,28.84-36.79,4.91-3.4,8.42-5.46,11.24-7.12,6.56-3.85,8.33-4.89,15.18-16.47,1.31-2.23,2.66-4.47,4.06-6.79C563.32,731,575,711.5,593.16,668.21c20.65-49.32,26.12-62.55,26.17-62.68a4.09,4.09,0,0,1,7.56,3.12c-.06.13-5.52,13.37-26.19,62.72-18.35,43.84-30.24,63.58-39.8,79.43-1.38,2.3-2.72,4.52-4,6.73-7.56,12.79-10.36,14.83-18.07,19.36-2.7,1.59-6.06,3.56-10.72,6.79-10.72,7.44-18.92,20.25-23.06,27.67h39.09c3-13.56,8.48-23,16.18-28.13a23.23,23.23,0,0,1,11.52-3.91c1.5-6.76,6.21-22.09,20.53-43.74C611.16,707.15,669.42,632.2,670,631.44a4.09,4.09,0,0,1,6.45,5c-.58.75-58.66,75.46-77.3,103.63-18,27.19-19.86,43.68-19.88,43.84a4.11,4.11,0,0,1-4.94,3.6,13.9,13.9,0,0,0-9.72,2.63c-6.22,4.25-10.77,13.25-13.16,26A4.08,4.08,0,0,1,547.44,819.53Z"/><path class="cls-1" d="M647.85,820.26a4.07,4.07,0,0,1-3.6-2.16c-.94-1.76-4.62-11.56,15.45-31.63,18.24-18.24,18.67-21.55,13.32-36.17-6-16.36-30.64-78.72-30.88-79.34a4.09,4.09,0,1,1,7.6-3c.25.63,24.93,63.08,31,79.54,6.74,18.39,4.46,25.08-15.21,44.76-10.15,10.15-13,16.51-13.7,19.74,8.19-.2,26.42-.64,32.79-.64,3.65,0,6.27-.83,7.78-2.49,1.7-1.86,2.36-5.07,1.95-9.54-1.26-13.91,2.94-24.28,12.85-31.71,1.93-1.45,2-1.48-1.41-7.63a96.53,96.53,0,0,1-9.44-22.64c-6.55-24.09-12.94-75.08-13.21-77.24a4.09,4.09,0,1,1,8.11-1c.06.52,6.59,52.57,13,76.11a88.29,88.29,0,0,0,8.72,20.85c3.49,6.36,6.79,12.36-.86,18.1s-10.61,13.43-9.61,24.43c.63,6.85-.74,12.16-4.05,15.79-3.13,3.42-7.77,5.16-13.82,5.16-8,0-36.33.72-36.61.73Z"/><path class="cls-1" d="M601.28,659.71h-151a4.09,4.09,0,1,1,0-8.17h151a4.09,4.09,0,1,1,0,8.17Z"/><path class="cls-1" d="M614.47,631.94H455.6a4.09,4.09,0,0,1,0-8.18H608.68c-6.23-17.48-25.95-72.32-36.17-94.79-11.84-26-26.13-39.27-26.28-39.4a4.09,4.09,0,0,1,5.5-6.05c.63.57,15.64,14.37,28.23,42.07,12.32,27.1,37.3,97.9,38.36,100.9a4.09,4.09,0,0,1-3.85,5.45Z"/><path class="cls-1" d="M473,511.87l-.41,0a4.1,4.1,0,0,1-3.56-3.11c-.12-.47-12-47.87-40.14-55.05a4.09,4.09,0,1,1,2-7.92c24.93,6.35,38.22,36.84,43.42,52.21,10.27-12.21,25.48-10.43,39.14-8.84,9.46,1.1,18.4,2.14,25.49-1,18.29-8.09,15.39-43.28,15.36-43.63a4.09,4.09,0,1,1,8.14-.73c.16,1.68,3.45,41.38-20.2,51.84-9.13,4-19.6,2.81-29.74,1.63-15.32-1.79-28.55-3.33-35.82,12.25A4.07,4.07,0,0,1,473,511.87Z"/><path class="cls-1" d="M600.15,592.29a4.09,4.09,0,0,1-2-7.65c.38-.22,38.63-21.91,61.31-45.18,23.1-23.71,31.22-44.41,25.5-50-1.28-1.25-3.18-2.72-5-2.56a5.36,5.36,0,0,0-3.33,1.95c-31.16,51.73-73.53,76.64-125.94,74-48.86-2.43-76.79-37-78-38.51a4.09,4.09,0,0,1,6.41-5.08h0c.26.33,26.91,33.18,72,35.43,49.22,2.46,89.16-21.2,118.66-70.29.06-.09.11-.18.17-.26a13.6,13.6,0,0,1,9.26-5.41c4-.36,7.83,1.27,11.5,4.85,10.61,10.36.42,35.09-25.35,61.54-23.51,24.13-61.55,45.69-63.15,46.6A4.09,4.09,0,0,1,600.15,592.29Z"/><path class="cls-1" d="M514.32,425.83a4.14,4.14,0,0,1-2.47-.82l-7-5.29a4.08,4.08,0,0,1,4.93-6.51l7,5.28a4.08,4.08,0,0,1-2.47,7.34Z"/><path class="cls-1" d="M548.21,382.49S566,365,593.35,377.07L579,385.63s34.42-1.58,53.63,17.36c0,0-17.52.13-25.18,5.32,0,0,37.89,4.93,48.92,24.4,0,0-10.51-1.56-18.55,1.43,0,0,26.08,7.91,41,28.93,0,0-16.48-1.43-25.95,0s-16.87-9.86-21.67-14.66-36.39-38.31-56.24-46.21S549.4,393.61,548.21,382.49Z"/><path class="cls-1" d="M823.8,629.73l-35.33,19.09s25.24,39.55,51.49,48.3l7.91-36.35Z"/><path class="cls-1" d="M767,786.7s20.82-2,42.57,14.77c0,0-.62,9.32-11.49,12.43s-23.31,3.57-31.08,3.57-17.09-.47-13.05-8.24S767,786.7,767,786.7Z"/><path class="cls-1" d="M662.78,787.68s23.37,2.06,37.78,13.23c0,0-1,12.49-10.58,13.67a227.82,227.82,0,0,1-29.84,1.62c-12.06,0-13.67,1.32-10.29-8.09S662.78,787.68,662.78,787.68Z"/><path class="cls-1" d="M930.61,785.18s30.9,9.28,34.93,13.35,7,17.13-14.2,18.17a300.19,300.19,0,0,1-37.86-.47s4.35-10.22,7-14.29S930.61,785.18,930.61,785.18Z"/><path class="cls-1" d="M550.46,803.15s-19.23-13.75-33.06-15c0,0-10.56,9.41-13,17.35s-1,9.53,11.87,9.92a254.81,254.81,0,0,0,26.92-.92s5-2.37,5-2.62S550.46,803.15,550.46,803.15Z"/><circle class="cls-1" cx="319.25" cy="699.17" r="9.29"/><path class="cls-1" d="M425.76,490.16a4.24,4.24,0,0,1-1.34-.23,4.09,4.09,0,0,1-2.52-5.2,71.55,71.55,0,0,1,5.34-10.87,4.09,4.09,0,1,1,7,4.21,66.3,66.3,0,0,0-4.63,9.33A4.07,4.07,0,0,1,425.76,490.16Z"/><ellipse class="cls-1" cx="499.52" cy="437.77" rx="5.31" ry="8.67"/><ellipse class="cls-1" cx="305.51" cy="260.91" rx="5.23" ry="8.57"/><path class="cls-1" d="M337.93,239.19a220.45,220.45,0,0,0,0,22.57c.71,9.12,1.76,13,8.54,6.08s14.85-12.92,19.53-6.93,2.57,20.14-1.17,25.76,8.89-5,8.89-7,1.28-21.87,0-25.73-5.38-12.28-5.38-12.28Z"/></svg>