<svg id="Layer_1" data-name="Layer 1" xmlns="http://www.w3.org/2000/svg" viewBox="0 0 512 512"><path d="M196.76,255.93a2.11,2.11,0,0,1-1-.24,2,2,0,0,1-.83-2.77c12.09-22.47,10-55,1.94-74.18-4.17-9.88-9.89-16.41-16.17-18.46A35.52,35.52,0,0,0,168.51,167c-8.81,7.2-14.84,18.29-17.44,32.09a2,2,0,1,1-4-.75c3.53-18.78,12.31-29.21,19.05-34.66,7.4-6,14-7.42,14.24-7.48a2.08,2.08,0,0,1,1,0c7.81,2.24,14.49,9.49,19.32,21,8.46,20.06,10.59,54.12-2.1,77.71A2.06,2.06,0,0,1,196.76,255.93Z"/><path d="M180.77,160.2a2,2,0,0,1-1.93-1.39l-3.48-10.33a2,2,0,0,1,1-2.46c5.85-3.09,11.92-8.48,7.58-22.76l-50.29-6.7a2,2,0,1,1,.54-4l51.57,6.87a2.05,2.05,0,0,1,1.67,1.38c4.36,13.07,1.86,22.25-7.64,28l2.94,8.72a2,2,0,0,1-1.28,2.59A1.91,1.91,0,0,1,180.77,160.2Z"/><path d="M163.08,171.27a2,2,0,0,1-1.68-.88c-1.4-2-2.2-7.18-2.55-10.14-4.57,0-8.3-1.36-11.13-3.94a16.4,16.4,0,0,1-4.85-9c-3.55.15-10.69,0-13.89-3.31a6,6,0,0,1-1.63-5.1c1-7.5,11.53-11.44,15.48-12.66.78-5.12,4.28-22.64,16.11-26.06,8.85-2.56,19.34-.33,24.94,5.31,3,3,6,8.29,3.55,16.53a2,2,0,1,1-3.92-1.16c1.51-5.08.66-9.28-2.53-12.49-4.53-4.57-13.52-6.4-20.9-4.27-11,3.18-13.35,23.75-13.37,24a2,2,0,0,1-1.52,1.76c-3.61.95-13.11,4.52-13.78,9.62a1.86,1.86,0,0,0,.51,1.72c2.06,2.13,8.78,2.33,12.53,2a2.06,2.06,0,0,1,2.25,2,13,13,0,0,0,3.8,8.26c2.37,2.13,5.75,3.08,10,2.8a2,2,0,0,1,2.17,1.85c.37,4,1.26,8.95,2,10.09a2,2,0,0,1-1.68,3.21Z"/><path d="M159.63,222.55h-1.32l-2,0c-10.66,0-29.36-4-30.15-4.17a2,2,0,0,1-1.61-2.12l1.1-18.51a2,2,0,0,1,2.13-1.92l30.33,1.44c3.79-3.67,8.32-9.16,13.81-16.74a2,2,0,1,1,3.31,2.4c-6,8.33-10.78,14-15,17.92a2.09,2.09,0,0,1-1.5.55L129.59,200l-.88,14.74c4.91,1,19.17,3.72,27.58,3.72l2.07,0c8.8.12,14.1.19,30.08-25.63a2,2,0,0,1,3.48,2.15C176.16,220.42,169.64,222.55,159.63,222.55Z"/><path d="M105.54,217.42a5.58,5.58,0,0,1-1.31-.16c-3.28-.82-5.13-5.9-5.87-8.46-2.45-1.5-3.59-4.48-2.93-7.9,1-5.19,6.15-10.78,15.08-10.78,13.67,0,18.58,6.21,18.78,6.48a2,2,0,0,1-3.23,2.5c-.11-.13-4.17-4.9-15.55-4.9-6.61,0-10.37,3.88-11.06,7.47-.29,1.46-.06,3.24,1.41,3.83a2,2,0,0,1,1.22,1.4c.75,3,2.31,6.14,3.15,6.39,1.2.3,2.26-1.59,2.27-1.61a2.05,2.05,0,0,1,2.76-.85,2,2,0,0,1,.86,2.74C110.32,215.12,108.33,217.42,105.54,217.42Z"/><path d="M112.41,221.44a3.1,3.1,0,0,1-.43,0c-2.43-.21-4.38-2.09-5.81-5.6a2,2,0,0,1,3.78-1.54c.76,1.86,1.65,3,2.38,3.07,1,.09,2.78-1.66,3.61-3a2,2,0,0,1,1.93-.94l8.9.88a2,2,0,0,1-.4,4.06l-7.73-.76C117.5,219.08,115.21,221.44,112.41,221.44Z"/><path d="M2.17,241.18H2a2,2,0,0,1,.11-4.09c.08,0,8.73.1,36.07-6.25S98,206.22,99.07,205.63l5-3a2,2,0,1,1,2.11,3.5l-5,3,0,0c-.34.19-33.92,19.12-62,25.65C12.85,240.92,3.55,241.18,2.17,241.18Z"/><path d="M98.37,200.74a2.06,2.06,0,0,1-1.5-.65c-27.54-29.47-69.13-34.17-69.55-34.22a2,2,0,1,1,.43-4.06A123.26,123.26,0,0,1,53,167.93c13.14,4.56,31.93,13.36,46.9,29.37a2,2,0,0,1-.1,2.89A2,2,0,0,1,98.37,200.74Z"/><path d="M145,230.31a2.19,2.19,0,0,1-.36,0,2,2,0,0,1-1.65-2.38l1.55-8.52a2,2,0,1,1,4,.73L147,228.64A2,2,0,0,1,145,230.31Z"/><path d="M95.9,255.29a2.14,2.14,0,0,1-.5-.06,2,2,0,0,1-1.49-2.48c4.23-17,6.56-26.37,27.07-27.15,19-.72,42.43,4.16,43.42,4.37a2,2,0,0,1-.84,4c-.24-.05-24-5-42.43-4.29-17.43.67-19,7-23.25,24.06A2,2,0,0,1,95.9,255.29Z"/><path d="M220.91,351.9a1.64,1.64,0,0,1-.38,0,2,2,0,0,1-1.63-2.39l17.93-93.54H48.65L70.4,345.49H97.29a2,2,0,1,1,0,4.09H68.79a2,2,0,0,1-2-1.56L44.06,254.37a2,2,0,0,1,2-2.52H239.31a2,2,0,0,1,1.57.74,2,2,0,0,1,.43,1.68l-18.39,96A2.05,2.05,0,0,1,220.91,351.9Z"/><path d="M159.9,412.91a63.06,63.06,0,1,1,63-63.06A63.12,63.12,0,0,1,159.9,412.91Zm0-122a59,59,0,1,0,59,59A59,59,0,0,0,159.9,290.89Z"/><path d="M159.9,398A48.12,48.12,0,1,1,208,349.85,48.18,48.18,0,0,1,159.9,398Zm0-92.14a44,44,0,1,0,44,44A44.08,44.08,0,0,0,159.9,305.83Z"/><path d="M159.9,339.15a2,2,0,0,1-2-2V303.78a2,2,0,0,1,4.08,0v33.33A2,2,0,0,1,159.9,339.15Z"/><path d="M159.9,398a2,2,0,0,1-2-2.05V362.61a2,2,0,0,1,4.08,0v33.31A2,2,0,0,1,159.9,398Z"/><path d="M192.09,384.85a2,2,0,0,1-1.44-.6l-23.58-23.54a2,2,0,1,1,2.89-2.89l23.58,23.54a2,2,0,0,1-1.45,3.49Z"/><path d="M150.48,343.29a2.07,2.07,0,0,1-1.45-.59l-23.58-23.54a2,2,0,0,1,2.89-2.9l23.58,23.54a2,2,0,0,1-1.44,3.49Z"/><path d="M159.9,364.66a14.78,14.78,0,0,1-14.8-14.81,14.1,14.1,0,0,1,.25-2.69,14.64,14.64,0,0,1,3.62-7.29,14.85,14.85,0,0,1,10.93-4.82,14.83,14.83,0,0,1,14.81,14.8,14.82,14.82,0,0,1-14.81,14.81Zm0-25.52a10.76,10.76,0,0,0-7.92,3.49,10.64,10.64,0,0,0-2.61,5.27,9.77,9.77,0,0,0-.19,2,10.72,10.72,0,1,0,21.44,0,10.19,10.19,0,0,0-.18-1.93,10.71,10.71,0,0,0-10.54-8.78Z"/><path d="M126.89,384.85a2,2,0,0,1-1.44-3.49l24-23.93a2,2,0,1,1,2.88,2.89l-24,23.93A2,2,0,0,1,126.89,384.85Z"/><path d="M168.93,342.88a2,2,0,0,1-1.45-3.49l23.17-23.13a2,2,0,0,1,2.89,2.9l-23.17,23.12A2,2,0,0,1,168.93,342.88Z"/><path d="M147.35,349.58H113.83a2,2,0,0,1,0-4.08h33.52a2,2,0,1,1,0,4.08Z"/><path d="M205.92,349.58H172.45a2,2,0,1,1,0-4.08h33.47a2,2,0,0,1,0,4.08Z"/><path d="M234.3,275.56H50.82a2,2,0,1,1,0-4.08H234.3a2,2,0,1,1,0,4.08Z"/><path d="M397.07,409.76H80.23a2,2,0,0,1,0-4.08H397.07a2,2,0,0,1,0,4.08Z"/><path d="M146.08,255.93h-.23c-.53-.06-11.41-1.32-19.68-4.4l.25,1.36a2,2,0,1,1-4,.74l-1-5.13a2,2,0,0,1,2.94-2.19c7.59,3.89,21.78,5.54,21.92,5.56a2,2,0,0,1-.23,4.07Z"/><path d="M463.11,410.13a62.53,62.53,0,0,1-7.16-.34,2.05,2.05,0,0,1-1.51-3.05c.28-.49,6.95-12,10.68-17.23a23.32,23.32,0,0,1,3.17-3.49c2.44-2.32,3.67-3.49,1.63-10.11-.55-1.81-1.08-3.71-1.59-5.55-2.48-8.9-5-18.1-11.7-22a67.5,67.5,0,0,0-9.35-4.06c-9-3.45-20.21-7.73-29.83-18.6a58.07,58.07,0,0,1-14.38-33.44,2,2,0,0,1,4.09-.16A54.9,54.9,0,0,0,420.51,323c9,10.12,19.65,14.2,28.23,17.49a70.8,70.8,0,0,1,9.94,4.34c8.11,4.7,10.89,14.72,13.59,24.4.53,1.9,1,3.7,1.56,5.45,2.58,8.41.6,11.11-2.73,14.27a20,20,0,0,0-2.66,2.91c-2.51,3.51-6.56,10.26-8.81,14.08a88.35,88.35,0,0,0,11.15-.25c2-.16,3.69-.17,5.06-.18,2,0,3.69,0,4.17-.51s.77-1.58.67-5.19c-.23-8.37,4.86-14.73,7.23-17.23-2.15-4.22-8.35-17.33-9.76-30.32-1.65-15.17-2.07-16.5-5.58-17.69-1.86-.64-18.1-6.56-15.6-19.22.14-.73.31-1.52.49-2.36,2.06-9.82,5.91-28.09-7.73-45.95-12.76-16.71-32.41-20.58-60.05-11.84-11.72,3.7-25,2.84-38.43-2.49C338.54,247.69,326.34,239,316,227.46c-19.5-21.63-41.09-29.7-41.31-29.78a2,2,0,0,1-1.34-2c.26-5.87-5.46-14.23-9.23-18.87-4,9.32-.79,19.43-.75,19.54a2.07,2.07,0,0,1-.18,1.65,2,2,0,0,1-1.34,1c-3.12.67-7.36,3.82-11.85,7.16a92.87,92.87,0,0,1-13.9,9.05c-8,3.9-24.57,12-28.73,20.42-3.82,7.74-1.2,17.66-1.17,17.75a2,2,0,0,1-4,1.07c-.13-.46-3-11.52,1.46-20.63,4.19-8.48,17.18-15.72,30.59-22.28,4.67-2.28,9.23-5.67,13.26-8.66,4.22-3.13,8-5.91,11.39-7.25-1-4.24-2.42-14.43,3-23.49a2.05,2.05,0,0,1,3.27-.34c.49.54,11.55,12.67,12.22,22.59,5.13,2.12,24,10.79,41.63,30.36,20.69,22.95,47.94,33.4,69.42,26.61,13.27-4.2,25.09-5.58,35.12-4.13A43.86,43.86,0,0,1,453,264.59c14.77,19.35,10.68,38.81,8.48,49.27-.18.82-.34,1.6-.48,2.31-1.86,9.41,12.31,14.35,12.91,14.56,6.26,2.13,6.7,6.15,8.32,21.12,1.59,14.62,9.92,30,10,30.18a2,2,0,0,1-.45,2.52c-.07.06-7.24,6.47-7,15.18.1,3.65-.17,6.43-1.82,8.14s-4.06,1.74-7.08,1.76c-1.38,0-2.94,0-4.75.17C468.05,410.05,465.35,410.13,463.11,410.13Z"/><path d="M491.48,303.12h-.17c-.18,0-17.79-1.73-20.11-22.09-.47-4.1-.71-7.66-.93-10.8-.84-12-1.3-14.87-8.16-15.28-9.52-.57-12,7.23-12.13,7.57a2,2,0,0,1-3.92-1.18c1.16-3.89,6.06-11.08,16.3-10.47,10.7.64,11.18,7.58,12,19.07.21,3.1.46,6.62.91,10.62.82,7.21,3.85,12.51,9,15.75a20.08,20.08,0,0,0,3.08,1.58,65.67,65.67,0,0,1-3.5-9.78,2,2,0,0,1,3.65-1.69c3.19,4.5,6.84,7.11,10.85,7.77a14.2,14.2,0,0,0,7.41-.9c-8.14-5.95-8.22-16.94-8.31-29.46,0-4.65-.06-9.46-.47-14.5a23.82,23.82,0,0,0-13-19.85,22.52,22.52,0,0,0-21.87.46c-13.54,8.3-17.42,27.36-17.46,27.55a2,2,0,0,1-4-.78c.17-.85,4.24-21,19.33-30.26a26.68,26.68,0,0,1,25.86-.62A27.85,27.85,0,0,1,501,249c.41,5.2.45,10.08.48,14.8.1,13.68.17,23.57,9.28,27.72a2,2,0,0,1,.37,3.5,19.18,19.18,0,0,1-13.44,3.21,17.23,17.23,0,0,1-7-2.82,25.73,25.73,0,0,0,2.44,4.49,2,2,0,0,1-1.66,3.23Z"/><path d="M381.68,410.24c-2.87,0-5-.43-6.18-2.08-1.48-2.05-.42-4.67-.07-5.54,3.2-7.88,12.38-14.73,16.8-18l.07,0c1.06-.79,1.88-1.33,2.55-1.76,1.93-1.25,2.65-1.72,5.93-7,.87-1.42,2.08-3.09,3.49-5,6-8.37,16.14-22.39,18-41.32a2,2,0,0,1,4.07.4c-2,20-12.5,34.6-18.78,43.31-1.36,1.88-2.53,3.51-3.33,4.8-3.57,5.76-4.63,6.62-7.18,8.27-.64.42-1.37.89-2.32,1.6l-.08.06c-4.12,3.07-12.68,9.46-15.45,16.29a3.68,3.68,0,0,0-.39,1.61c.79.61,4.74.35,7.38.17a84.11,84.11,0,0,1,8.6-.26c6.69.24,7-1.64,7.89-6.65.21-1.24.45-2.65.83-4.12a9.4,9.4,0,0,1,9.47-7.44c2.72-11.25,14.33-24.89,20.73-32.41a56.9,56.9,0,0,0,4-4.93c.68-1.39-.87-7.22-2.68-11.58a2,2,0,1,1,3.77-1.57c1.07,2.56,4.41,11.21,2.58,14.95-.49,1-1.82,2.58-4.55,5.78-6.49,7.63-18.57,21.83-20.18,32.25a2,2,0,0,1-2.41,1.7,5.59,5.59,0,0,0-6.76,4.27c-.34,1.31-.55,2.57-.76,3.79-.89,5.12-1.8,10.42-12.07,10a79.72,79.72,0,0,0-8.18.26C384.71,410.14,383.1,410.24,381.68,410.24Z"/><path d="M360.34,333.4a97.14,97.14,0,0,1-30.22-4.95,2,2,0,1,1,1.26-3.88c27.53,9,53.71,5.4,80.06-10.91a2,2,0,0,1,2.15,3.48c-13.82,8.56-28,13.8-42.12,15.57A89.89,89.89,0,0,1,360.34,333.4Z"/><path d="M273.72,409.76H249.15a2,2,0,0,1-1.86-2.88c.23-.5,5.64-12.31,14.42-18.4,2.45-1.7,4.21-2.73,5.62-3.56,3.28-1.93,4.16-2.44,7.59-8.23.66-1.12,1.33-2.24,2-3.4,4.71-7.81,10.57-17.54,19.63-39.18,10.33-24.67,13.06-31.28,13.08-31.34a2,2,0,1,1,3.78,1.56c0,.06-2.76,6.68-13.09,31.35-9.18,21.93-15.12,31.79-19.9,39.72-.69,1.15-1.36,2.26-2,3.37-3.78,6.39-5.18,7.41-9,9.68-1.35.79-3,1.78-5.36,3.39-5.36,3.72-9.46,10.13-11.53,13.84h19.54c1.53-6.79,4.24-11.51,8.1-14.07a11.65,11.65,0,0,1,5.76-2c.75-3.37,3.1-11,10.26-21.86,9.41-14.22,38.54-51.69,38.83-52.07a2,2,0,1,1,3.23,2.51c-.29.38-29.33,37.73-38.65,51.81-9,13.6-9.93,21.84-9.94,21.92a2,2,0,0,1-2.47,1.8,7,7,0,0,0-4.86,1.32c-3.11,2.13-5.38,6.63-6.58,13A2,2,0,0,1,273.72,409.76Z"/><path d="M323.93,410.13a2,2,0,0,1-1.81-1.08c-.47-.88-2.31-5.78,7.73-15.82,9.12-9.12,9.34-10.77,6.66-18.08-3-8.18-15.32-39.36-15.44-39.67a2,2,0,0,1,3.8-1.5c.12.31,12.46,31.53,15.48,39.77,3.36,9.19,2.23,12.54-7.61,22.37-5.08,5.08-6.49,8.26-6.85,9.87,4.09-.1,13.21-.31,16.4-.31a5.11,5.11,0,0,0,3.89-1.25c.85-.93,1.17-2.54,1-4.77-.63-7,1.47-12.14,6.42-15.85,1-.73,1-.74-.7-3.82a48.17,48.17,0,0,1-4.72-11.32c-3.28-12.05-6.47-37.54-6.61-38.62a2,2,0,1,1,4.06-.5c0,.26,3.3,26.28,6.49,38.05A44.3,44.3,0,0,0,356.45,378c1.75,3.18,3.4,6.19-.42,9.06s-5.31,6.71-4.81,12.21c.31,3.42-.37,6.08-2,7.9s-3.88,2.57-6.9,2.57c-4,0-18.17.37-18.31.37Z"/><path d="M300.64,329.86h-75.5a2,2,0,1,1,0-4.09h75.5a2,2,0,1,1,0,4.09Z"/><path d="M307.23,316H227.8a2,2,0,1,1,0-4.09h76.54c-3.12-8.74-13-36.16-18.08-47.39-5.92-13-13.07-19.64-13.14-19.71a2,2,0,1,1,2.75-3c.31.29,7.81,7.18,14.11,21,6.16,13.55,18.65,48.95,19.18,50.45a2,2,0,0,1-1.93,2.72Z"/><path d="M236.48,255.93h-.21a2,2,0,0,1-1.78-1.55c-.06-.24-6-23.93-20.07-27.52a2,2,0,0,1,1-4c12.47,3.18,19.11,18.43,21.71,26.11,5.13-6.1,12.74-5.22,19.57-4.42,4.73.55,9.2,1.07,12.74-.5,9.15-4,7.7-21.63,7.69-21.81a2,2,0,0,1,4.07-.37c.07.85,1.72,20.7-10.1,25.92-4.57,2-9.81,1.41-14.87.82-7.66-.89-14.28-1.67-17.91,6.12A2,2,0,0,1,236.48,255.93Z"/><path d="M300.08,296.14a2,2,0,0,1-1-3.82c.19-.11,19.32-10.95,30.66-22.59,11.54-11.85,15.6-22.2,12.74-25a3.68,3.68,0,0,0-2.5-1.28,2.67,2.67,0,0,0-1.66,1c-15.58,25.87-36.77,38.32-63,37-24.42-1.22-38.39-18.52-39-19.26a2,2,0,0,1,3.2-2.54h0c.13.17,13.45,16.59,36,17.71,24.6,1.23,44.58-10.59,59.33-35.14l.08-.13a6.81,6.81,0,0,1,4.63-2.71,7.28,7.28,0,0,1,5.75,2.43c5.31,5.18.21,17.54-12.68,30.77-11.75,12.07-30.77,22.85-31.57,23.3A2,2,0,0,1,300.08,296.14Z"/><path d="M257.16,212.92a2,2,0,0,1-1.23-.42l-3.49-2.64a2,2,0,0,1,2.47-3.26l3.49,2.64a2,2,0,0,1-1.24,3.68Z"/><path d="M274.11,191.25s8.89-8.74,22.57-2.71l-7.21,4.27s17.22-.78,26.82,8.69c0,0-8.76.06-12.59,2.66,0,0,18.95,2.46,24.46,12.19,0,0-5.25-.77-9.28.72,0,0,13,4,20.5,14.47,0,0-8.24-.72-13,0s-8.44-4.94-10.84-7.34-18.19-19.15-28.12-23.1S274.7,196.81,274.11,191.25Z"/><path d="M411.9,314.87l-17.66,9.54s12.62,19.77,25.74,24.15l4-18.17Z"/><path d="M383.49,393.35s10.41-1,21.28,7.38c0,0-.31,4.66-5.75,6.22a59.64,59.64,0,0,1-15.53,1.78c-3.89,0-8.55-.23-6.53-4.11S383.49,393.35,383.49,393.35Z"/><path d="M331.39,393.84s11.69,1,18.89,6.61c0,0-.51,6.25-5.29,6.84a113.09,113.09,0,0,1-14.92.81c-6,0-6.84.66-5.15-4S331.39,393.84,331.39,393.84Z"/><path d="M465.31,392.59s15.44,4.64,17.46,6.68,3.5,8.56-7.1,9.08a151.89,151.89,0,0,1-18.93-.23,68.44,68.44,0,0,1,3.5-7.15C461.57,398.93,465.31,392.59,465.31,392.59Z"/><path d="M275.23,401.57s-9.62-6.87-16.53-7.48c0,0-5.28,4.7-6.51,8.67s-.49,4.77,5.94,5a126,126,0,0,0,13.46-.46,24.86,24.86,0,0,0,2.49-1.31C274.08,405.83,275.23,401.57,275.23,401.57Z"/><circle cx="159.63" cy="349.58" r="4.65"/><path d="M212.88,245.08a2,2,0,0,1-.67-.12,2,2,0,0,1-1.26-2.6,36.67,36.67,0,0,1,2.67-5.43,2,2,0,0,1,3.51,2.11,31.41,31.41,0,0,0-2.32,4.66A2,2,0,0,1,212.88,245.08Z"/><ellipse cx="249.76" cy="218.89" rx="2.65" ry="4.33"/><ellipse cx="152.76" cy="130.46" rx="2.61" ry="4.28"/><path d="M169,119.59a110.33,110.33,0,0,0,0,11.29c.35,4.56.87,6.49,4.27,3s7.42-6.46,9.76-3.46,1.29,10.07-.59,12.87,4.45-2.51,4.45-3.51.64-10.93,0-12.86-2.69-6.14-2.69-6.14Z"/></svg>