<svg id="Layer_1" data-name="Layer 1" xmlns="http://www.w3.org/2000/svg" viewBox="0 0 64 64"><defs><style>.cls-1{fill:#fff;}</style></defs><path class="cls-1" d="M24.59,32a.27.27,0,0,1-.12,0,.25.25,0,0,1-.1-.34,11.91,11.91,0,0,0,.24-9.28,3.82,3.82,0,0,0-2-2.31,4.64,4.64,0,0,0-1.53.84,6.68,6.68,0,0,0-2.18,4,.26.26,0,0,1-.29.21.27.27,0,0,1-.21-.3,7.08,7.08,0,0,1,2.38-4.34,4.85,4.85,0,0,1,1.78-.93h.13a4.16,4.16,0,0,1,2.41,2.62,12.43,12.43,0,0,1-.26,9.72A.26.26,0,0,1,24.59,32Z"/><path class="cls-1" d="M22.6,20a.26.26,0,0,1-.25-.17l-.43-1.29a.26.26,0,0,1,.12-.31c.73-.38,1.49-1.06.95-2.84l-6.29-.84a.26.26,0,1,1,.07-.51l6.45.86a.27.27,0,0,1,.21.18c.54,1.63.23,2.78-1,3.5l.37,1.09a.26.26,0,0,1-.16.32Z"/><path class="cls-1" d="M20.38,21.41a.26.26,0,0,1-.21-.11A3.7,3.7,0,0,1,19.86,20a1.9,1.9,0,0,1-2-1.62A2.57,2.57,0,0,1,16.12,18a.79.79,0,0,1-.2-.64c.12-.94,1.44-1.43,1.93-1.58.1-.64.54-2.83,2-3.26a3.33,3.33,0,0,1,3.12.66,2,2,0,0,1,.44,2.07.26.26,0,1,1-.49-.15,1.47,1.47,0,0,0-.32-1.56A2.8,2.8,0,0,0,20,13c-1.37.4-1.67,3-1.67,3a.25.25,0,0,1-.19.22c-.45.12-1.64.57-1.72,1.2a.21.21,0,0,0,.06.22,2.53,2.53,0,0,0,1.57.25.22.22,0,0,1,.19.06.28.28,0,0,1,.09.18,1.45,1.45,0,0,0,1.73,1.38.26.26,0,0,1,.27.24A4.54,4.54,0,0,0,20.59,21a.24.24,0,0,1-.06.35A.25.25,0,0,1,20.38,21.41Z"/><path class="cls-1" d="M20,27.82h-.41a24.06,24.06,0,0,1-3.77-.52.24.24,0,0,1-.2-.26l.13-2.32a.26.26,0,0,1,.27-.24l3.79.19a16.21,16.21,0,0,0,1.73-2.1.25.25,0,0,1,.41.3A15.26,15.26,0,0,1,20,25.1a.26.26,0,0,1-.18.07L16.2,25l-.11,1.84a22.65,22.65,0,0,0,3.45.46h.26c1.09,0,1.76,0,3.76-3.21a.25.25,0,1,1,.43.27C22,27.55,21.2,27.82,20,27.82Z"/><path class="cls-1" d="M13.19,27.18l-.16,0c-.41-.11-.64-.74-.73-1.06a.91.91,0,0,1-.37-1,1.8,1.8,0,0,1,1.88-1.35,2.91,2.91,0,0,1,2.35.81.25.25,0,0,1-.05.36.24.24,0,0,1-.35,0,2.53,2.53,0,0,0-1.95-.61,1.3,1.3,0,0,0-1.38.93.41.41,0,0,0,.18.48.26.26,0,0,1,.15.17,1.6,1.6,0,0,0,.39.8c.15,0,.29-.2.29-.2a.26.26,0,1,1,.45.24A.86.86,0,0,1,13.19,27.18Z"/><path class="cls-1" d="M14.05,27.68H14c-.31,0-.55-.26-.73-.7a.27.27,0,0,1,.14-.34.25.25,0,0,1,.33.14c.1.24.21.38.3.39s.35-.21.45-.37a.26.26,0,0,1,.24-.12l1.12.11a.26.26,0,0,1,.23.28.26.26,0,0,1-.28.23l-1-.1A1.11,1.11,0,0,1,14.05,27.68Z"/><path class="cls-1" d="M.27,30.15h0A.27.27,0,0,1,0,29.88a.24.24,0,0,1,.26-.24,23.59,23.59,0,0,0,4.51-.79,34.74,34.74,0,0,0,7.61-3.15l.63-.37a.25.25,0,0,1,.35.08.26.26,0,0,1-.09.35l-.63.38h0a35.69,35.69,0,0,1-7.75,3.2A24.88,24.88,0,0,1,.27,30.15Z"/><path class="cls-1" d="M12.3,25.09a.27.27,0,0,1-.19-.08,15.58,15.58,0,0,0-8.7-4.28.25.25,0,1,1,.06-.5A14.65,14.65,0,0,1,6.62,21a14.67,14.67,0,0,1,5.86,3.67.25.25,0,0,1,0,.36A.23.23,0,0,1,12.3,25.09Z"/><path class="cls-1" d="M18.12,28.79h-.05a.25.25,0,0,1-.2-.3l.19-1.07a.25.25,0,0,1,.3-.2.24.24,0,0,1,.2.29l-.19,1.07A.26.26,0,0,1,18.12,28.79Z"/><path class="cls-1" d="M12,31.91h-.06a.26.26,0,0,1-.19-.31c.53-2.12.82-3.29,3.38-3.39a26.08,26.08,0,0,1,5.43.55.25.25,0,0,1,.2.3.27.27,0,0,1-.31.2,25.8,25.8,0,0,0-5.3-.54c-2.18.08-2.38.88-2.9,3A.27.27,0,0,1,12,31.91Z"/><path class="cls-1" d="M27.61,44h0a.26.26,0,0,1-.21-.3L29.6,32H6.08L8.8,43.19h3.36a.26.26,0,0,1,.26.25.26.26,0,0,1-.26.26H8.6a.26.26,0,0,1-.25-.2L5.51,31.8a.26.26,0,0,1,.25-.32H29.91a.25.25,0,0,1,.2.09.23.23,0,0,1,.05.21l-2.3,12A.26.26,0,0,1,27.61,44Z"/><path class="cls-1" d="M20,51.61a7.88,7.88,0,1,1,7.88-7.88A7.88,7.88,0,0,1,20,51.61Zm0-15.25a7.37,7.37,0,1,0,7.37,7.37A7.38,7.38,0,0,0,20,36.36Z"/><path class="cls-1" d="M20,49.75a6,6,0,1,1,6-6A6,6,0,0,1,20,49.75Zm0-11.52a5.51,5.51,0,1,0,5.5,5.5A5.51,5.51,0,0,0,20,38.23Z"/><path class="cls-1" d="M20,42.39a.26.26,0,0,1-.26-.25V38a.26.26,0,0,1,.26-.25.25.25,0,0,1,.25.25v4.17A.25.25,0,0,1,20,42.39Z"/><path class="cls-1" d="M20,49.75a.26.26,0,0,1-.26-.26V45.33a.26.26,0,0,1,.26-.26.26.26,0,0,1,.25.26v4.16A.26.26,0,0,1,20,49.75Z"/><path class="cls-1" d="M24,48.11a.27.27,0,0,1-.18-.08l-2.95-2.94a.25.25,0,0,1,0-.36.27.27,0,0,1,.37,0l2.94,2.94a.25.25,0,0,1,0,.36A.25.25,0,0,1,24,48.11Z"/><path class="cls-1" d="M18.81,42.91a.24.24,0,0,1-.18-.07l-2.95-3a.25.25,0,0,1,.36-.36L19,42.48a.25.25,0,0,1,0,.36A.26.26,0,0,1,18.81,42.91Z"/><path class="cls-1" d="M20,45.58a1.84,1.84,0,0,1-1.85-1.85,2,2,0,0,1,0-.34,1.91,1.91,0,0,1,.45-.91,1.87,1.87,0,0,1,1.37-.6,1.85,1.85,0,0,1,1.31.54,1.94,1.94,0,0,1,.51,1,1.76,1.76,0,0,1,0,.33A1.84,1.84,0,0,1,20,45.58Zm0-3.19a1.33,1.33,0,0,0-1,.44,1.26,1.26,0,0,0-.33.66,1.94,1.94,0,0,0,0,.24A1.33,1.33,0,0,0,20,45.07a1.3,1.3,0,0,0,.9-.35,1.34,1.34,0,0,0,.44-1,1.94,1.94,0,0,0,0-.24A1.36,1.36,0,0,0,20,42.39Z"/><path class="cls-1" d="M15.86,48.11a.27.27,0,0,1-.18-.08.25.25,0,0,1,0-.36l3-3A.25.25,0,0,1,19,45l-3,3A.25.25,0,0,1,15.86,48.11Z"/><path class="cls-1" d="M21.12,42.86a.23.23,0,0,1-.18-.08.25.25,0,0,1,0-.36l2.89-2.89a.25.25,0,0,1,.36.36l-2.89,2.9A.26.26,0,0,1,21.12,42.86Z"/><path class="cls-1" d="M18.42,43.7H14.23a.26.26,0,0,1-.26-.26.26.26,0,0,1,.26-.25h4.19a.25.25,0,0,1,.25.25A.26.26,0,0,1,18.42,43.7Z"/><path class="cls-1" d="M25.74,43.7H21.56a.26.26,0,0,1-.26-.26.25.25,0,0,1,.26-.25h4.18a.26.26,0,0,1,.26.25A.26.26,0,0,1,25.74,43.7Z"/><path class="cls-1" d="M29.29,34.45H6.35a.26.26,0,0,1,0-.52H29.29a.26.26,0,0,1,0,.52Z"/><path class="cls-1" d="M49.63,51.22H10a.26.26,0,1,1,0-.51h39.6a.26.26,0,1,1,0,.51Z"/><path class="cls-1" d="M18.26,32h0a12.88,12.88,0,0,1-2.46-.55l0,.17a.25.25,0,0,1-.2.3.27.27,0,0,1-.3-.21l-.12-.64a.25.25,0,0,1,.1-.25.24.24,0,0,1,.27,0,10.4,10.4,0,0,0,2.74.69.25.25,0,0,1,.22.29A.24.24,0,0,1,18.26,32Z"/><path class="cls-1" d="M57.89,51.27a5.56,5.56,0,0,1-.9-.05.25.25,0,0,1-.19-.14.23.23,0,0,1,0-.24c0-.06.86-1.5,1.33-2.15a2.5,2.5,0,0,1,.4-.44c.3-.29.45-.43.2-1.26-.07-.23-.13-.46-.2-.7-.31-1.11-.63-2.26-1.46-2.74A9,9,0,0,0,55.91,43a8.61,8.61,0,0,1-3.73-2.32,7.35,7.35,0,0,1-1.8-4.18.27.27,0,0,1,.25-.27.26.26,0,0,1,.26.25,7,7,0,0,0,1.67,3.86,8.3,8.3,0,0,0,3.53,2.18,9.28,9.28,0,0,1,1.24.55c1,.58,1.37,1.84,1.7,3,.07.24.13.46.2.68.32,1,.07,1.39-.34,1.78a2.41,2.41,0,0,0-.33.37c-.32.44-.82,1.28-1.11,1.76.32,0,.8,0,1.4,0a5,5,0,0,1,.63,0,1.06,1.06,0,0,0,.52-.06c0-.05.1-.2.09-.65a3.09,3.09,0,0,1,.9-2.15A12.22,12.22,0,0,1,59.77,44c-.21-1.9-.26-2.07-.7-2.22-.23-.07-2.26-.82-2-2.4l.06-.29a6.58,6.58,0,0,0-1-5.75c-1.6-2.08-4-2.57-7.51-1.48a7.06,7.06,0,0,1-4.8-.31,11.92,11.92,0,0,1-4.41-3.16,14.63,14.63,0,0,0-5.17-3.72.25.25,0,0,1-.16-.25A4.53,4.53,0,0,0,33,22.1a3.9,3.9,0,0,0-.09,2.44.3.3,0,0,1,0,.21.26.26,0,0,1-.17.12,5.11,5.11,0,0,0-1.48.9,12.11,12.11,0,0,1-1.74,1.13c-1,.49-3.07,1.5-3.59,2.55a3.64,3.64,0,0,0-.15,2.22.24.24,0,0,1-.18.31.25.25,0,0,1-.31-.18,4.08,4.08,0,0,1,.18-2.58c.53-1.06,2.15-2,3.83-2.78a11.72,11.72,0,0,0,1.65-1.08,6.79,6.79,0,0,1,1.43-.91,4.09,4.09,0,0,1,.37-2.94.25.25,0,0,1,.19-.12.27.27,0,0,1,.22.08,6.09,6.09,0,0,1,1.52,2.83,15,15,0,0,1,5.21,3.79c2.58,2.87,6,4.17,8.68,3.33A9.94,9.94,0,0,1,53,30.9a5.48,5.48,0,0,1,3.67,2.17,7,7,0,0,1,1.06,6.16c0,.11,0,.2-.06.29-.23,1.18,1.54,1.8,1.62,1.82.78.27.83.77,1,2.64a12.08,12.08,0,0,0,1.25,3.77.27.27,0,0,1-.06.32A2.75,2.75,0,0,0,60.6,50a1.36,1.36,0,0,1-.23,1c-.21.22-.51.22-.89.22l-.59,0A9.51,9.51,0,0,1,57.89,51.27Z"/><path class="cls-1" d="M61.44,37.89h0a2.93,2.93,0,0,1-2.51-2.76c-.06-.51-.09-1-.12-1.35-.1-1.5-.16-1.86-1-1.91a1.42,1.42,0,0,0-1.51.94.26.26,0,0,1-.32.17.24.24,0,0,1-.17-.31,1.93,1.93,0,0,1,2-1.31c1.34.08,1.4,1,1.5,2.38,0,.39.06.83.12,1.33a2.53,2.53,0,0,0,1.12,2,2.3,2.3,0,0,0,.39.19A7.67,7.67,0,0,1,60.48,36a.25.25,0,0,1,.14-.29.25.25,0,0,1,.32.08,2.1,2.1,0,0,0,1.35,1,1.81,1.81,0,0,0,.93-.11c-1-.74-1-2.12-1-3.68,0-.58,0-1.18-.06-1.82a3,3,0,0,0-1.63-2.48,2.81,2.81,0,0,0-2.73.06,5.8,5.8,0,0,0-2.18,3.45.27.27,0,0,1-.3.2.25.25,0,0,1-.2-.3,6.21,6.21,0,0,1,2.41-3.78,3.33,3.33,0,0,1,3.24-.08,3.48,3.48,0,0,1,1.9,2.89c0,.65.06,1.26.06,1.85,0,1.71,0,3,1.16,3.47a.26.26,0,0,1,.15.2.28.28,0,0,1-.1.24,2.42,2.42,0,0,1-1.68.4,2.11,2.11,0,0,1-.88-.36,3.38,3.38,0,0,0,.3.57.24.24,0,0,1,0,.27A.26.26,0,0,1,61.44,37.89Z"/><path class="cls-1" d="M47.71,51.28c-.36,0-.62-.05-.77-.26a.72.72,0,0,1,0-.69A6.43,6.43,0,0,1,49,48.07h0a2.68,2.68,0,0,1,.32-.22c.24-.16.33-.22.74-.88l.43-.63a10.48,10.48,0,0,0,2.26-5.16.26.26,0,0,1,.28-.23.24.24,0,0,1,.22.28A11,11,0,0,1,51,46.64c-.17.24-.32.44-.42.6-.45.72-.58.83-.9,1l-.29.2h0a6.14,6.14,0,0,0-1.93,2,.58.58,0,0,0,0,.2,2.68,2.68,0,0,0,.93,0c.32,0,.69,0,1.07,0,.84,0,.88-.2,1-.83a3.92,3.92,0,0,1,.1-.52,1.18,1.18,0,0,1,1.18-.93,12.42,12.42,0,0,1,2.6-4,6.55,6.55,0,0,0,.49-.61,3.08,3.08,0,0,0-.33-1.45.25.25,0,0,1,.14-.33.24.24,0,0,1,.33.13c.13.32.55,1.4.32,1.87a5.07,5.07,0,0,1-.56.72c-.82,1-2.33,2.73-2.53,4a.3.3,0,0,1-.1.17.28.28,0,0,1-.2,0,.69.69,0,0,0-.84.53,4.57,4.57,0,0,0-.1.48c-.11.63-.22,1.3-1.51,1.25-.35,0-.71,0-1,0Z"/><path class="cls-1" d="M45,41.68a12.26,12.26,0,0,1-3.78-.62.27.27,0,0,1-.16-.33.26.26,0,0,1,.32-.16,11.38,11.38,0,0,0,10-1.36.25.25,0,0,1,.27.43,13.11,13.11,0,0,1-5.27,2A10.7,10.7,0,0,1,45,41.68Z"/><path class="cls-1" d="M34.22,51.22H31.14a.25.25,0,0,1-.21-.12.26.26,0,0,1,0-.24,6.47,6.47,0,0,1,1.8-2.3c.31-.21.53-.34.71-.44a2.08,2.08,0,0,0,.94-1l.26-.43a32.41,32.41,0,0,0,2.45-4.9c1.29-3.08,1.63-3.91,1.64-3.91a.25.25,0,0,1,.33-.14.25.25,0,0,1,.14.33s-.34.84-1.64,3.92a34,34,0,0,1-2.48,5l-.26.42a2.56,2.56,0,0,1-1.12,1.21A6.92,6.92,0,0,0,33,49a5.4,5.4,0,0,0-1.45,1.73H34A2.73,2.73,0,0,1,35,49a1.42,1.42,0,0,1,.72-.24A8.49,8.49,0,0,1,37,46c1.18-1.77,4.82-6.46,4.86-6.5a.24.24,0,0,1,.35,0,.25.25,0,0,1,.05.36s-3.67,4.72-4.83,6.48A7.25,7.25,0,0,0,36.2,49a.24.24,0,0,1-.3.22.89.89,0,0,0-.61.17A2.43,2.43,0,0,0,34.47,51,.27.27,0,0,1,34.22,51.22Z"/><path class="cls-1" d="M40.49,51.27a.26.26,0,0,1-.22-.14c-.06-.11-.29-.72,1-2s1.17-1.34.83-2.26-1.91-4.92-1.93-5a.26.26,0,0,1,.15-.33.26.26,0,0,1,.33.15s1.56,3.94,1.93,5,.28,1.57-.95,2.8a2.78,2.78,0,0,0-.85,1.23l2,0a.6.6,0,0,0,.48-.16.72.72,0,0,0,.12-.59,2,2,0,0,1,.81-2c.12-.1.12-.1-.09-.48a6,6,0,0,1-.59-1.42c-.41-1.5-.81-4.69-.83-4.82a.27.27,0,0,1,.22-.29.26.26,0,0,1,.29.22A47.7,47.7,0,0,0,44,46a5.44,5.44,0,0,0,.55,1.3c.22.4.42.78-.06,1.13a1.58,1.58,0,0,0-.6,1.53,1.24,1.24,0,0,1-.25,1,1.14,1.14,0,0,1-.86.32c-.51,0-2.27.05-2.29.05Z"/><path class="cls-1" d="M37.58,41.23H28.14a.25.25,0,0,1-.25-.25.26.26,0,0,1,.25-.26h9.44a.26.26,0,0,1,.26.26A.26.26,0,0,1,37.58,41.23Z"/><path class="cls-1" d="M38.4,39.5H28.47a.26.26,0,0,1-.25-.26.25.25,0,0,1,.25-.25H38c-.39-1.1-1.62-4.52-2.26-5.93a8.11,8.11,0,0,0-1.64-2.46.26.26,0,0,1,0-.36.25.25,0,0,1,.36,0,8.58,8.58,0,0,1,1.77,2.63c.77,1.69,2.33,6.12,2.4,6.31a.28.28,0,0,1,0,.23A.25.25,0,0,1,38.4,39.5Z"/><path class="cls-1" d="M29.56,32h0a.27.27,0,0,1-.22-.19s-.75-3-2.51-3.44a.26.26,0,0,1-.18-.31.26.26,0,0,1,.31-.19c1.56.4,2.39,2.3,2.71,3.26a2.53,2.53,0,0,1,2.45-.55,3.1,3.1,0,0,0,1.59-.06c1.15-.51,1-2.71,1-2.73a.26.26,0,0,1,.51,0c0,.1.22,2.58-1.26,3.24a3.64,3.64,0,0,1-1.86.1c-1-.11-1.78-.21-2.24.76A.25.25,0,0,1,29.56,32Z"/><path class="cls-1" d="M37.51,37a.25.25,0,0,1-.22-.13.26.26,0,0,1,.09-.35,20.31,20.31,0,0,0,3.84-2.82c1.44-1.49,2-2.78,1.59-3.13a.45.45,0,0,0-.31-.16.36.36,0,0,0-.21.12c-1.95,3.24-4.6,4.79-7.87,4.63a7,7,0,0,1-4.88-2.41.27.27,0,0,1,.05-.36.25.25,0,0,1,.35.05h0a6.65,6.65,0,0,0,4.5,2.21c3.08.15,5.57-1.32,7.42-4.39v0a.85.85,0,0,1,.58-.34.9.9,0,0,1,.72.31c.66.64,0,2.19-1.59,3.84A19.88,19.88,0,0,1,37.63,37,.17.17,0,0,1,37.51,37Z"/><path class="cls-1" d="M32.15,26.61a.24.24,0,0,1-.16-.05l-.43-.33a.25.25,0,0,1,0-.36.24.24,0,0,1,.35,0l.44.33a.25.25,0,0,1,.05.35A.25.25,0,0,1,32.15,26.61Z"/><path class="cls-1" d="M34.26,23.91a2.55,2.55,0,0,1,2.82-.34l-.9.53a5.08,5.08,0,0,1,3.36,1.09,3.83,3.83,0,0,0-1.58.33S40.33,25.83,41,27a2.89,2.89,0,0,0-1.16.09,5.47,5.47,0,0,1,2.56,1.81,9,9,0,0,0-1.62,0c-.59.09-1-.61-1.35-.91a15.17,15.17,0,0,0-3.52-2.89C34.69,24.64,34.34,24.6,34.26,23.91Z"/><path class="cls-1" d="M51.49,39.36l-2.21,1.19s1.58,2.47,3.22,3L53,41.3Z"/><path class="cls-1" d="M47.94,49.17a4.06,4.06,0,0,1,2.66.92.94.94,0,0,1-.72.78,7.62,7.62,0,0,1-1.94.22c-.49,0-1.07,0-.82-.51S47.94,49.17,47.94,49.17Z"/><path class="cls-1" d="M41.42,49.23a5.24,5.24,0,0,1,2.36.83s-.06.78-.66.85a14.69,14.69,0,0,1-1.86.1c-.75,0-.86.08-.64-.5A5.15,5.15,0,0,1,41.42,49.23Z"/><path class="cls-1" d="M58.16,49.07a12.14,12.14,0,0,1,2.19.84c.25.25.43,1.07-.89,1.13a17.78,17.78,0,0,1-2.37,0,8.37,8.37,0,0,1,.44-.89C57.7,49.87,58.16,49.07,58.16,49.07Z"/><path class="cls-1" d="M34.4,50.2a5.64,5.64,0,0,0-2.06-.94,3.36,3.36,0,0,0-.82,1.09c-.15.49-.06.59.75.62S34,50.91,34,50.91a2.38,2.38,0,0,0,.31-.17S34.4,50.2,34.4,50.2Z"/><circle class="cls-1" cx="19.95" cy="43.7" r="0.58"/><path class="cls-1" d="M26.61,30.63h-.08a.25.25,0,0,1-.16-.32,4.24,4.24,0,0,1,.33-.68.26.26,0,1,1,.44.26,3.6,3.6,0,0,0-.29.58A.25.25,0,0,1,26.61,30.63Z"/><ellipse class="cls-1" cx="31.22" cy="27.36" rx="0.33" ry="0.54"/><ellipse class="cls-1" cx="19.09" cy="16.31" rx="0.33" ry="0.54"/><path class="cls-1" d="M21.12,15s0,.84,0,1.41.11.81.53.38.93-.81,1.22-.43a1.7,1.7,0,0,1-.07,1.61c-.23.35.56-.32.56-.44a10.79,10.79,0,0,0,0-1.61c-.08-.24-.34-.77-.34-.77Z"/></svg>