<svg id="Layer_1" data-name="Layer 1" xmlns="http://www.w3.org/2000/svg" viewBox="0 0 192 192"><path d="M73.78,96a.7.7,0,0,1-.36-.1.76.76,0,0,1-.31-1c4.53-8.43,3.76-20.63.73-27.82-1.57-3.71-3.71-6.15-6.07-6.93a13.41,13.41,0,0,0-4.58,2.51c-3.3,2.7-5.56,6.86-6.54,12a.77.77,0,0,1-.89.62.77.77,0,0,1-.61-.9c1.32-7,4.61-11,7.14-13a14,14,0,0,1,5.34-2.8.77.77,0,0,1,.37,0c2.93.84,5.44,3.56,7.25,7.86,3.17,7.53,4,20.29-.79,29.14A.77.77,0,0,1,73.78,96Z"/><path d="M67.79,60.07a.77.77,0,0,1-.73-.52l-1.3-3.87a.76.76,0,0,1,.37-.92c2.19-1.16,4.47-3.18,2.84-8.54L50.11,43.71a.77.77,0,0,1,.2-1.52l19.34,2.58a.77.77,0,0,1,.63.52c1.63,4.9.7,8.34-2.87,10.5l1.11,3.27a.76.76,0,0,1-.73,1Z"/><path d="M61.15,64.23a.78.78,0,0,1-.63-.33,11.1,11.1,0,0,1-1-3.81,6.1,6.1,0,0,1-4.18-1.47,6.16,6.16,0,0,1-1.81-3.39c-1.33.06-4,0-5.21-1.24a2.23,2.23,0,0,1-.61-1.91c.37-2.82,4.32-4.29,5.8-4.75.29-1.92,1.61-8.49,6-9.78,3.32-1,7.26-.12,9.36,2a5.9,5.9,0,0,1,1.33,6.2.77.77,0,0,1-1,.51.76.76,0,0,1-.51-.95,4.44,4.44,0,0,0-.95-4.68c-1.7-1.72-5.07-2.4-7.84-1.6-4.12,1.19-5,8.9-5,9a.78.78,0,0,1-.57.66c-1.36.35-4.92,1.69-5.17,3.6a.71.71,0,0,0,.19.65c.77.8,3.29.87,4.7.74a.73.73,0,0,1,.58.18.78.78,0,0,1,.26.56,4.36,4.36,0,0,0,5.19,4.14.78.78,0,0,1,.82.7A13.1,13.1,0,0,0,61.78,63a.77.77,0,0,1-.63,1.21Z"/><path d="M59.86,83.45H58.61A72.58,72.58,0,0,1,47.3,81.88a.77.77,0,0,1-.6-.79l.41-7a.76.76,0,0,1,.8-.72L59.28,74a49,49,0,0,0,5.18-6.28.77.77,0,1,1,1.24.9,47.63,47.63,0,0,1-5.6,6.72.79.79,0,0,1-.56.2L48.6,75l-.33,5.52a65.28,65.28,0,0,0,10.34,1.4h.78c3.29,0,5.28.07,11.28-9.61a.76.76,0,1,1,1.3.8C66.06,82.66,63.61,83.45,59.86,83.45Z"/><path d="M39.58,81.53a2.12,2.12,0,0,1-.49-.06c-1.23-.31-1.93-2.21-2.2-3.17a2.71,2.71,0,0,1-1.1-3c.37-2,2.3-4,5.65-4,5.13,0,7,2.33,7,2.43a.77.77,0,1,1-1.21.94s-1.56-1.83-5.83-1.83c-2.48,0-3.89,1.45-4.15,2.8-.1.55,0,1.21.53,1.43a.77.77,0,0,1,.46.53c.28,1.11.86,2.3,1.18,2.39s.85-.59.85-.6a.77.77,0,0,1,1.36.71A2.53,2.53,0,0,1,39.58,81.53Z"/><path d="M42.15,83H42c-.91-.08-1.64-.78-2.18-2.1a.77.77,0,1,1,1.42-.58c.29.7.62,1.13.89,1.16s1.05-.63,1.36-1.12A.76.76,0,0,1,44.2,80l3.34.33a.77.77,0,0,1,.69.84.76.76,0,0,1-.84.68l-2.9-.28A3.33,3.33,0,0,1,42.15,83Z"/><path d="M.81,90.44H.75a.77.77,0,1,1,0-1.53s3.27,0,13.52-2.35,22.45-9.23,22.84-9.45L39,76a.76.76,0,0,1,1,.26.77.77,0,0,1-.26,1.05l-1.89,1.14h0c-.13.07-12.72,7.17-23.26,9.62C4.82,90.34,1.33,90.44.81,90.44Z"/><path d="M36.89,75.28a.77.77,0,0,1-.56-.25C26,64,10.4,62.22,10.24,62.2a.76.76,0,1,1,.16-1.52A45.45,45.45,0,0,1,19.86,63,43.91,43.91,0,0,1,37.45,74a.76.76,0,0,1,0,1.08A.77.77,0,0,1,36.89,75.28Z"/><path d="M54.36,86.37h-.14a.78.78,0,0,1-.62-.9l.58-3.19a.77.77,0,1,1,1.51.27l-.58,3.2A.77.77,0,0,1,54.36,86.37Z"/><path d="M36,95.73a.55.55,0,0,1-.18,0,.77.77,0,0,1-.56-.93c1.58-6.38,2.46-9.89,10.15-10.18a79.25,79.25,0,0,1,16.28,1.64.76.76,0,0,1,.59.91.77.77,0,0,1-.91.59c-.09,0-9-1.87-15.91-1.61-6.53.25-7.13,2.64-8.71,9A.77.77,0,0,1,36,95.73Z"/><path d="M82.84,132H82.7a.77.77,0,0,1-.61-.9L88.81,96H18.24l8.16,33.59H36.48a.77.77,0,1,1,0,1.53H25.8a.77.77,0,0,1-.75-.58L16.52,95.39a.79.79,0,0,1,.15-.66.76.76,0,0,1,.6-.29H89.74a.74.74,0,0,1,.59.28.73.73,0,0,1,.16.63l-6.9,36A.76.76,0,0,1,82.84,132Z"/><path d="M60,154.84a23.65,23.65,0,1,1,23.65-23.65A23.67,23.67,0,0,1,60,154.84Zm0-45.76a22.12,22.12,0,1,0,22.11,22.11A22.14,22.14,0,0,0,60,109.08Z"/><path d="M60,149.24A18,18,0,1,1,78,131.19,18.07,18.07,0,0,1,60,149.24Zm0-34.56a16.52,16.52,0,1,0,16.51,16.51A16.53,16.53,0,0,0,60,114.68Z"/><path d="M60,127.18a.76.76,0,0,1-.76-.76v-12.5a.77.77,0,1,1,1.53,0v12.5A.76.76,0,0,1,60,127.18Z"/><path d="M60,149.24a.76.76,0,0,1-.76-.77V136a.77.77,0,1,1,1.53,0v12.49A.76.76,0,0,1,60,149.24Z"/><path d="M72,144.32a.78.78,0,0,1-.55-.23l-8.84-8.82a.77.77,0,0,1,1.09-1.09L72.58,143a.76.76,0,0,1,0,1.08A.78.78,0,0,1,72,144.32Z"/><path d="M56.43,128.73a.75.75,0,0,1-.54-.22L47,119.68a.76.76,0,0,1,0-1.08.77.77,0,0,1,1.09,0L57,127.43a.76.76,0,0,1-.54,1.3Z"/><path d="M60,136.75a5.55,5.55,0,0,1-5.55-5.55,5.5,5.5,0,0,1,1.45-3.75,5.57,5.57,0,0,1,4.1-1.81,5.56,5.56,0,0,1,0,11.11Zm0-9.57a4,4,0,0,0-3,1.31,3.92,3.92,0,0,0-1,2,4.53,4.53,0,0,0-.07.74,4,4,0,0,0,8,0,4.32,4.32,0,0,0-.06-.73,4,4,0,0,0-4-3.29Z"/><path d="M47.59,144.32a.78.78,0,0,1-.55-.23A.76.76,0,0,1,47,143l9-9a.78.78,0,0,1,1.09,0,.76.76,0,0,1,0,1.08l-9,9A.78.78,0,0,1,47.59,144.32Z"/><path d="M63.35,128.58a.74.74,0,0,1-.54-.23.76.76,0,0,1,0-1.08l8.68-8.67a.77.77,0,0,1,1.09,0,.76.76,0,0,1,0,1.08l-8.69,8.68A.76.76,0,0,1,63.35,128.58Z"/><path d="M55.26,131.09H42.69a.77.77,0,1,1,0-1.53H55.26a.77.77,0,0,1,0,1.53Z"/><path d="M77.22,131.09H64.67a.77.77,0,1,1,0-1.53H77.22a.77.77,0,1,1,0,1.53Z"/><path d="M87.86,103.34H19.06a.77.77,0,0,1,0-1.54h68.8a.77.77,0,0,1,0,1.54Z"/><path d="M148.9,153.66H30.09a.77.77,0,1,1,0-1.53H148.9a.77.77,0,1,1,0,1.53Z"/><path d="M54.78,96h-.09a37,37,0,0,1-7.38-1.65l.1.51a.77.77,0,0,1-1.51.28l-.36-1.93a.77.77,0,0,1,1.11-.82c2.84,1.46,8.16,2.08,8.22,2.09A.77.77,0,0,1,54.78,96Z"/><path d="M173.67,153.8a22.45,22.45,0,0,1-2.69-.13.78.78,0,0,1-.59-.42.77.77,0,0,1,0-.72c.1-.19,2.6-4.51,4-6.46a8.28,8.28,0,0,1,1.19-1.31c.91-.87,1.37-1.31.61-3.79-.21-.68-.4-1.39-.6-2.09-.92-3.33-1.88-6.78-4.38-8.23a25.13,25.13,0,0,0-3.51-1.52c-3.38-1.3-7.58-2.9-11.19-7a21.79,21.79,0,0,1-5.39-12.54.76.76,0,0,1,.74-.79.75.75,0,0,1,.79.73,20.7,20.7,0,0,0,5,11.59c3.36,3.79,7.37,5.32,10.59,6.55a26.58,26.58,0,0,1,3.72,1.63c3.05,1.76,4.09,5.52,5.1,9.15.2.72.39,1.39.59,2.05,1,3.15.22,4.16-1,5.35a6.64,6.64,0,0,0-1,1.09c-.95,1.32-2.46,3.84-3.31,5.28a35.23,35.23,0,0,0,4.18-.09c.74-.07,1.38-.07,1.9-.07a3.3,3.3,0,0,0,1.56-.19c.14-.15.29-.6.26-1.95a9.36,9.36,0,0,1,2.71-6.46,36.2,36.2,0,0,1-3.66-11.37c-.62-5.69-.78-6.19-2.09-6.64-.7-.23-6.79-2.46-5.86-7.2l.19-.89c.77-3.68,2.21-10.53-2.9-17.23-4.79-6.26-12.15-7.72-22.52-4.44a21.38,21.38,0,0,1-14.41-.93,36.16,36.16,0,0,1-13.23-9.48A43.86,43.86,0,0,0,103,74.13a.76.76,0,0,1-.5-.75c.1-2.21-2-5.34-3.46-7.08a11.8,11.8,0,0,0-.29,7.33.75.75,0,0,1-.06.62.77.77,0,0,1-.5.36c-1.17.26-2.76,1.44-4.45,2.69a34.34,34.34,0,0,1-5.21,3.39c-3,1.47-9.21,4.51-10.77,7.66-1.44,2.9-.45,6.62-.44,6.66a.77.77,0,1,1-1.48.4c0-.18-1.15-4.32.54-7.74,1.58-3.18,6.45-5.89,11.48-8.35a33.75,33.75,0,0,0,5-3.25,20.37,20.37,0,0,1,4.27-2.72,12.35,12.35,0,0,1,1.11-8.81.78.78,0,0,1,1.23-.13c.18.21,4.33,4.75,4.58,8.48a45.4,45.4,0,0,1,15.61,11.38c7.76,8.61,18,12.52,26,10a30,30,0,0,1,13.17-1.55,16.48,16.48,0,0,1,11,6.52c5.54,7.26,4,14.56,3.18,18.48-.07.31-.13.6-.18.86-.7,3.53,4.61,5.39,4.84,5.46,2.35.8,2.51,2.31,3.12,7.92a36.45,36.45,0,0,0,3.75,11.32.76.76,0,0,1-.17.94s-2.71,2.43-2.62,5.7c0,1.37-.06,2.41-.69,3s-1.52.66-2.65.66c-.52,0-1.1,0-1.78.06C175.52,153.77,174.51,153.8,173.67,153.8Z"/><path d="M184.31,113.67h-.07c-.07,0-6.67-.65-7.54-8.29-.17-1.53-.27-2.87-.35-4-.31-4.5-.49-5.57-3.06-5.73a4.3,4.3,0,0,0-4.55,2.84.77.77,0,0,1-1.47-.44,5.84,5.84,0,0,1,6.11-3.93c4,.24,4.2,2.85,4.5,7.15.08,1.17.17,2.49.34,4a7.56,7.56,0,0,0,3.38,5.9,6.29,6.29,0,0,0,1.15.59,23.21,23.21,0,0,1-1.31-3.66.76.76,0,0,1,.42-.89.77.77,0,0,1,.95.25,6.38,6.38,0,0,0,4.06,2.92,5.36,5.36,0,0,0,2.78-.34c-3.05-2.23-3.08-6.35-3.11-11,0-1.74,0-3.54-.18-5.44a8.93,8.93,0,0,0-4.88-7.44,8.46,8.46,0,0,0-8.2.17c-5.07,3.12-6.53,10.26-6.54,10.34a.77.77,0,0,1-1.51-.3c.06-.32,1.59-7.87,7.25-11.34a10,10,0,0,1,9.7-.24,10.46,10.46,0,0,1,5.71,8.69c.16,1.95.17,3.78.18,5.55,0,5.13.06,8.84,3.48,10.39a.77.77,0,0,1,.14,1.32,7.16,7.16,0,0,1-5,1.2,6.53,6.53,0,0,1-2.64-1.06,9.62,9.62,0,0,0,.92,1.69.76.76,0,0,1,0,.82A.77.77,0,0,1,184.31,113.67Z"/><path d="M143.13,153.84a2.66,2.66,0,0,1-2.32-.78,2.21,2.21,0,0,1,0-2.08c1.19-2.95,4.64-5.52,6.3-6.76l0,0c.4-.29.71-.5,1-.66.72-.47,1-.64,2.22-2.62.33-.53.78-1.16,1.31-1.89,2.26-3.14,6.06-8.39,6.76-15.49a.77.77,0,0,1,.84-.69.76.76,0,0,1,.68.84c-.74,7.51-4.68,13-7,16.24-.51.7-1,1.31-1.25,1.8-1.34,2.16-1.73,2.48-2.69,3.1-.24.16-.51.33-.87.6l0,0c-1.54,1.15-4.76,3.55-5.79,6.11a1.45,1.45,0,0,0-.15.6,8.1,8.1,0,0,0,2.77.07,30,30,0,0,1,3.22-.1c2.51.09,2.64-.61,3-2.49.08-.47.17-1,.31-1.55a3.53,3.53,0,0,1,3.55-2.79c1-4.22,5.38-9.33,7.78-12.15a22,22,0,0,0,1.49-1.85c.26-.52-.32-2.71-1-4.34a.76.76,0,0,1,.41-1,.76.76,0,0,1,1,.41c.4,1,1.66,4.2,1,5.6a15.27,15.27,0,0,1-1.7,2.17c-2.44,2.86-7,8.19-7.57,12.1a.78.78,0,0,1-.32.51.76.76,0,0,1-.59.12,2.09,2.09,0,0,0-2.53,1.6c-.13.5-.21,1-.29,1.43-.33,1.91-.67,3.9-4.52,3.76a27.62,27.62,0,0,0-3.07.1C144.27,153.8,143.66,153.84,143.13,153.84Z"/><path d="M135.13,125a36.43,36.43,0,0,1-11.34-1.86.77.77,0,0,1,.48-1.46c10.32,3.37,20.14,2,30-4.09a.77.77,0,1,1,.81,1.31,39.48,39.48,0,0,1-15.8,5.84A34.08,34.08,0,0,1,135.13,125Z"/><path d="M102.65,153.66H93.43a.75.75,0,0,1-.64-.35.79.79,0,0,1-.06-.73c.09-.19,2.12-4.62,5.41-6.9.92-.64,1.58-1,2.11-1.33,1.23-.73,1.56-.92,2.84-3.09l.77-1.28a98.69,98.69,0,0,0,7.36-14.69c3.87-9.25,4.89-11.73,4.9-11.75a.78.78,0,0,1,1-.42.76.76,0,0,1,.41,1s-1,2.51-4.91,11.76a100.17,100.17,0,0,1-7.46,14.9l-.76,1.26c-1.41,2.4-1.94,2.78-3.38,3.63-.51.29-1.14.67-2,1.27a16.15,16.15,0,0,0-4.33,5.19H102c.57-2.54,1.59-4.32,3-5.28a4.3,4.3,0,0,1,2.15-.73,25.79,25.79,0,0,1,3.85-8.2c3.53-5.33,14.46-19.38,14.57-19.52a.76.76,0,0,1,1.07-.14.77.77,0,0,1,.14,1.08c-.11.14-11,14.15-14.5,19.43-3.37,5.1-3.72,8.19-3.73,8.22a.76.76,0,0,1-.31.54.74.74,0,0,1-.61.13,2.65,2.65,0,0,0-1.82.5c-1.17.79-2,2.48-2.47,4.88A.77.77,0,0,1,102.65,153.66Z"/><path d="M121.47,153.8a.76.76,0,0,1-.67-.41c-.18-.33-.87-2.16,2.89-5.93,3.42-3.42,3.5-4,2.5-6.78-1.12-3.07-5.74-14.76-5.79-14.88a.77.77,0,0,1,1.43-.56c0,.12,4.67,11.83,5.8,14.91,1.26,3.45.84,4.71-2.85,8.4-1.91,1.9-2.44,3.09-2.57,3.7,1.53,0,5-.12,6.15-.12a1.94,1.94,0,0,0,1.46-.47,2.35,2.35,0,0,0,.36-1.79,6.14,6.14,0,0,1,2.41-5.94c.36-.28.37-.28-.26-1.43a18.15,18.15,0,0,1-1.77-4.25,146.68,146.68,0,0,1-2.48-14.48.77.77,0,1,1,1.52-.19c0,.1,1.24,9.86,2.44,14.27a16.32,16.32,0,0,0,1.63,3.91c.66,1.19,1.27,2.32-.16,3.39a4.68,4.68,0,0,0-1.8,4.58,3.79,3.79,0,0,1-.76,3,3.36,3.36,0,0,1-2.59,1c-1.51,0-6.81.14-6.87.14Z"/><path d="M112.74,123.7H84.43a.77.77,0,1,1,0-1.54h28.31a.77.77,0,1,1,0,1.54Z"/><path d="M115.21,118.49H85.42a.77.77,0,0,1,0-1.53h28.71c-1.17-3.28-4.87-13.56-6.78-17.78a24.55,24.55,0,0,0-4.93-7.39.76.76,0,0,1,0-1.08.77.77,0,0,1,1.08,0,25.38,25.38,0,0,1,5.29,7.89c2.31,5.08,7,18.36,7.2,18.92a.8.8,0,0,1-.1.7A.79.79,0,0,1,115.21,118.49Z"/><path d="M88.68,96H88.6a.77.77,0,0,1-.67-.58c0-.09-2.24-9-7.52-10.32a.77.77,0,1,1,.38-1.49c4.67,1.19,7.16,6.91,8.14,9.79,1.92-2.29,4.77-2,7.34-1.66,1.77.21,3.45.41,4.77-.18,3.44-1.52,2.89-8.12,2.89-8.18a.76.76,0,0,1,1.52-.14c0,.32.65,7.76-3.79,9.72-1.71.76-3.67.53-5.57.31-2.87-.34-5.35-.63-6.72,2.29A.76.76,0,0,1,88.68,96Z"/><path d="M112.53,111.05a.76.76,0,0,1-.38-1.43c.07,0,7.24-4.11,11.5-8.47s5.85-8.33,4.78-9.37a1.4,1.4,0,0,0-.94-.49,1,1,0,0,0-.62.37c-5.85,9.7-13.79,14.37-23.62,13.88a21,21,0,0,1-14.62-7.22.78.78,0,0,1,.13-1.08.76.76,0,0,1,1.07.13h0a19.86,19.86,0,0,0,13.5,6.64c9.22.46,16.71-4,22.24-13.18l0,0a2.52,2.52,0,0,1,1.73-1,2.72,2.72,0,0,1,2.16.91c2,1.94.08,6.58-4.75,11.54-4.41,4.52-11.54,8.56-11.85,8.73A.69.69,0,0,1,112.53,111.05Z"/><path d="M96.44,79.84a.8.8,0,0,1-.47-.15l-1.3-1a.76.76,0,1,1,.92-1.22l1.31,1a.76.76,0,0,1-.46,1.37Z"/><path d="M102.79,71.72a7.69,7.69,0,0,1,8.46-1l-2.7,1.61s6.46-.3,10.06,3.25c0,0-3.29,0-4.72,1,0,0,7.1.92,9.17,4.57a8.28,8.28,0,0,0-3.48.27,16.3,16.3,0,0,1,7.69,5.43,27.14,27.14,0,0,0-4.87,0c-1.77.26-3.16-1.85-4.06-2.75s-6.82-7.19-10.54-8.67S103,73.8,102.79,71.72Z"/><path d="M154.46,118.08l-6.62,3.57s4.73,7.42,9.65,9.06l1.49-6.82Z"/><path d="M143.81,147.51a12.25,12.25,0,0,1,8,2.76,2.8,2.8,0,0,1-2.16,2.34,22.43,22.43,0,0,1-5.82.67c-1.46,0-3.21-.09-2.45-1.55S143.81,147.51,143.81,147.51Z"/><path d="M124.27,147.69s4.38.39,7.08,2.48c0,0-.19,2.34-2,2.56a42.41,42.41,0,0,1-5.59.31c-2.26,0-2.57.24-1.93-1.52A15.35,15.35,0,0,1,124.27,147.69Z"/><path d="M174.49,147.22s5.79,1.74,6.55,2.5,1.31,3.22-2.66,3.41a55.33,55.33,0,0,1-7.1-.09,25.33,25.33,0,0,1,1.31-2.68C173.09,149.6,174.49,147.22,174.49,147.22Z"/><path d="M103.21,150.59S99.6,148,97,147.78A9.88,9.88,0,0,0,94.57,151c-.46,1.48-.18,1.78,2.23,1.86a47.7,47.7,0,0,0,5-.18,8.33,8.33,0,0,0,.93-.49S103.21,150.59,103.21,150.59Z"/><circle cx="59.86" cy="131.09" r="1.74"/><path d="M79.83,91.9a.73.73,0,0,1-.25,0,.76.76,0,0,1-.47-1,13.39,13.39,0,0,1,1-2,.76.76,0,1,1,1.31.79,12.69,12.69,0,0,0-.87,1.75A.75.75,0,0,1,79.83,91.9Z"/><ellipse cx="93.66" cy="82.08" rx="1" ry="1.63"/><ellipse cx="57.28" cy="48.92" rx="0.98" ry="1.61"/><path d="M63.36,44.85a41.69,41.69,0,0,0,0,4.23c.13,1.71.33,2.43,1.6,1.14s2.79-2.42,3.66-1.3.49,3.78-.21,4.83,1.66-.94,1.66-1.32a32.22,32.22,0,0,0,0-4.82c-.24-.72-1-2.3-1-2.3Z"/></svg>