<svg id="Layer_1" data-name="Layer 1" xmlns="http://www.w3.org/2000/svg" viewBox="0 0 128 128"><path d="M49.19,64a.5.5,0,0,1-.24-.06.51.51,0,0,1-.21-.69c3-5.62,2.51-13.75.48-18.55-1-2.46-2.47-4.1-4-4.61a8.87,8.87,0,0,0-3,1.67,13.23,13.23,0,0,0-4.36,8,.51.51,0,1,1-1-.19,14.07,14.07,0,0,1,4.77-8.66A9.31,9.31,0,0,1,45.09,39a.39.39,0,0,1,.24,0c2,.56,3.63,2.37,4.84,5.24,2.11,5,2.64,13.53-.53,19.42A.49.49,0,0,1,49.19,64Z"/><path d="M45.19,40.05a.5.5,0,0,1-.48-.35l-.87-2.58a.5.5,0,0,1,.24-.61c1.47-.78,3-2.12,1.9-5.69L33.41,29.14a.51.51,0,0,1,.13-1l12.9,1.72a.5.5,0,0,1,.41.34c1.09,3.27.47,5.56-1.91,7l.74,2.19a.52.52,0,0,1-.49.67Z"/><path d="M40.77,42.82a.52.52,0,0,1-.42-.22,7.4,7.4,0,0,1-.64-2.54,4.06,4.06,0,0,1-2.78-1,4.11,4.11,0,0,1-1.21-2.26c-.89,0-2.68,0-3.47-.83a1.44,1.44,0,0,1-.41-1.27c.24-1.88,2.88-2.86,3.87-3.17.19-1.28,1.07-5.66,4-6.51A6.63,6.63,0,0,1,46,26.37a3.92,3.92,0,0,1,.89,4.13.51.51,0,0,1-.64.34.5.5,0,0,1-.34-.63,3,3,0,0,0-.63-3.12A5.61,5.61,0,0,0,40,26c-2.75.79-3.34,5.93-3.34,6a.54.54,0,0,1-.38.44c-.9.23-3.28,1.12-3.45,2.4a.5.5,0,0,0,.13.43c.51.53,2.19.58,3.13.49a.52.52,0,0,1,.39.13.46.46,0,0,1,.17.36,3.28,3.28,0,0,0,.95,2.07,3.34,3.34,0,0,0,2.52.7.52.52,0,0,1,.54.46A8.73,8.73,0,0,0,41.19,42a.51.51,0,0,1-.13.71A.52.52,0,0,1,40.77,42.82Z"/><path d="M39.91,55.64h-.84a48.52,48.52,0,0,1-7.54-1,.53.53,0,0,1-.4-.53l.28-4.63a.5.5,0,0,1,.53-.48l7.58.36A33.54,33.54,0,0,0,43,45.13a.51.51,0,0,1,.71-.12.5.5,0,0,1,.11.71,29.9,29.9,0,0,1-3.74,4.48.47.47,0,0,1-.37.14L32.4,50l-.22,3.69a45,45,0,0,0,6.89.93h.52c2.2,0,3.52,0,7.52-6.41a.51.51,0,0,1,.87.54C44,55.11,42.41,55.64,39.91,55.64Z"/><path d="M26.38,54.36a1.25,1.25,0,0,1-.32,0c-.82-.2-1.29-1.47-1.47-2.11a1.81,1.81,0,0,1-.73-2,3.61,3.61,0,0,1,3.77-2.69c3.42,0,4.64,1.55,4.69,1.62a.51.51,0,1,1-.81.62s-1-1.22-3.88-1.22a2.62,2.62,0,0,0-2.77,1.87c-.07.36,0,.81.36.95a.54.54,0,0,1,.3.36,3.14,3.14,0,0,0,.79,1.59c.3.08.56-.4.56-.4a.52.52,0,0,1,.69-.21.5.5,0,0,1,.22.68A1.7,1.7,0,0,1,26.38,54.36Z"/><path d="M28.1,55.36H28c-.6-.06-1.09-.53-1.45-1.4a.51.51,0,1,1,.95-.39c.19.46.41.75.59.77s.7-.42.9-.74a.52.52,0,0,1,.49-.24l2.22.22a.51.51,0,0,1,.46.56.52.52,0,0,1-.56.46l-1.93-.19A2.22,2.22,0,0,1,28.1,55.36Z"/><path d="M.54,60.29h0a.5.5,0,0,1-.5-.52.51.51,0,0,1,.53-.5s2.18,0,9-1.56,15-6.15,15.23-6.3L26,50.65a.51.51,0,0,1,.7.17.52.52,0,0,1-.17.71l-1.26.76h0c-.09.05-8.48,4.78-15.51,6.41C3.21,60.23.89,60.29.54,60.29Z"/><path d="M24.59,50.18a.49.49,0,0,1-.37-.16c-6.89-7.37-17.29-8.54-17.39-8.55a.51.51,0,0,1,.11-1A31,31,0,0,1,13.24,42,29.35,29.35,0,0,1,25,49.32a.5.5,0,0,1-.37.86Z"/><path d="M36.24,57.58h-.09a.5.5,0,0,1-.41-.59l.38-2.14a.51.51,0,0,1,1,.19l-.39,2.13A.5.5,0,0,1,36.24,57.58Z"/><path d="M24,63.82h-.12a.51.51,0,0,1-.37-.62c1.06-4.25,1.64-6.6,6.76-6.79A53.21,53.21,0,0,1,41.1,57.49a.51.51,0,0,1,.39.61.5.5,0,0,1-.6.39,52.85,52.85,0,0,0-10.61-1.07c-4.36.17-4.75,1.76-5.81,6A.51.51,0,0,1,24,63.82Z"/><path d="M55.23,88h-.1a.51.51,0,0,1-.4-.6L59.21,64h-47L17.6,86.37h6.72a.52.52,0,0,1,0,1H17.2a.52.52,0,0,1-.5-.39L11,63.59a.48.48,0,0,1,.09-.43.51.51,0,0,1,.4-.2H59.83a.51.51,0,0,1,.39.19.49.49,0,0,1,.11.42l-4.6,24A.51.51,0,0,1,55.23,88Z"/><path d="M40,103.23A15.77,15.77,0,1,1,55.74,87.46,15.78,15.78,0,0,1,40,103.23Zm0-30.51A14.74,14.74,0,1,0,54.72,87.46,14.76,14.76,0,0,0,40,72.72Z"/><path d="M40,99.49a12,12,0,1,1,12-12A12,12,0,0,1,40,99.49Zm0-23a11,11,0,1,0,11,11A11,11,0,0,0,40,76.46Z"/><path d="M40,84.79a.51.51,0,0,1-.51-.51V76a.52.52,0,1,1,1,0v8.33A.51.51,0,0,1,40,84.79Z"/><path d="M40,99.49a.51.51,0,0,1-.51-.51V90.65a.52.52,0,0,1,1,0V99A.51.51,0,0,1,40,99.49Z"/><path d="M48,96.21a.51.51,0,0,1-.36-.15l-5.89-5.88a.51.51,0,0,1,0-.72.52.52,0,0,1,.72,0l5.89,5.89a.52.52,0,0,1,0,.72A.53.53,0,0,1,48,96.21Z"/><path d="M37.62,85.82a.51.51,0,0,1-.36-.15l-5.9-5.88a.51.51,0,0,1,.72-.72L38,85a.51.51,0,0,1-.36.87Z"/><path d="M40,91.16a3.7,3.7,0,0,1-3.7-3.7,3,3,0,0,1,.07-.67,3.6,3.6,0,0,1,.9-1.82,3.69,3.69,0,0,1,5.35-.12,3.56,3.56,0,0,1,1,1.94,3,3,0,0,1,.07.67A3.7,3.7,0,0,1,40,91.16Zm0-6.38A2.7,2.7,0,0,0,37.34,87a2.59,2.59,0,0,0,0,.48,2.65,2.65,0,0,0,.78,1.9,2.68,2.68,0,0,0,3.7.08,2.64,2.64,0,0,0,.87-2,2.59,2.59,0,0,0,0-.48A2.69,2.69,0,0,0,40,84.78Z"/><path d="M31.72,96.21a.51.51,0,0,1-.36-.87l6-6a.51.51,0,0,1,.72.72l-6,6A.51.51,0,0,1,31.72,96.21Z"/><path d="M42.23,85.72a.51.51,0,0,1-.36-.87l5.79-5.78a.51.51,0,1,1,.72.72l-5.79,5.78A.51.51,0,0,1,42.23,85.72Z"/><path d="M36.84,87.4H28.46a.52.52,0,0,1,0-1h8.38a.52.52,0,0,1,0,1Z"/><path d="M51.48,87.4H43.11a.52.52,0,0,1,0-1h8.37a.52.52,0,0,1,0,1Z"/><path d="M58.57,68.89H12.7a.51.51,0,0,1,0-1H58.57a.51.51,0,1,1,0,1Z"/><path d="M99.27,102.44H20.06a.51.51,0,1,1,0-1H99.27a.51.51,0,1,1,0,1Z"/><path d="M36.52,64h-.06a25,25,0,0,1-4.92-1.1l.06.34a.5.5,0,0,1-.4.59.51.51,0,0,1-.6-.4l-.24-1.29a.52.52,0,0,1,.2-.5.53.53,0,0,1,.54,0A20.14,20.14,0,0,0,36.58,63a.52.52,0,0,1,.45.57A.51.51,0,0,1,36.52,64Z"/><path d="M115.78,102.53c-1.1,0-1.75-.08-1.79-.08a.56.56,0,0,1-.4-.28.53.53,0,0,1,0-.49c.07-.12,1.74-3,2.67-4.3a6.52,6.52,0,0,1,.79-.88c.61-.58.92-.87.41-2.52-.14-.45-.27-.93-.4-1.39-.62-2.22-1.26-4.53-2.92-5.49a18.65,18.65,0,0,0-2.34-1,17.44,17.44,0,0,1-7.46-4.64,14.49,14.49,0,0,1-3.59-8.36.51.51,0,0,1,.49-.53.5.5,0,0,1,.53.49,13.69,13.69,0,0,0,3.34,7.72,16.48,16.48,0,0,0,7.06,4.37,16.8,16.8,0,0,1,2.48,1.09c2,1.17,2.72,3.67,3.4,6.1.13.47.25.92.39,1.36.64,2.1.15,2.78-.68,3.56a5.28,5.28,0,0,0-.67.73c-.63.88-1.64,2.57-2.2,3.52a21.57,21.57,0,0,0,2.79-.06c.49,0,.92,0,1.26,0a2.22,2.22,0,0,0,1-.13c.09-.1.2-.4.17-1.3A6.25,6.25,0,0,1,122,95.65a24,24,0,0,1-2.44-7.58c-.42-3.79-.52-4.12-1.4-4.42-.46-.16-4.52-1.64-3.9-4.81,0-.18.08-.37.12-.59.52-2.45,1.48-7-1.93-11.48-3.19-4.18-8.1-5.15-15-3a14.27,14.27,0,0,1-9.61-.63A24,24,0,0,1,79,56.87a29.31,29.31,0,0,0-10.33-7.45.52.52,0,0,1-.34-.5C68.4,47.45,67,45.36,66,44.2a7.79,7.79,0,0,0-.18,4.88.56.56,0,0,1,0,.42.51.51,0,0,1-.33.24,10.3,10.3,0,0,0-3,1.79A22.28,22.28,0,0,1,59,53.79c-2,1-6.14,3-7.18,5.11a7.28,7.28,0,0,0-.3,4.44.51.51,0,1,1-1,.27,8.24,8.24,0,0,1,.36-5.16c1-2.12,4.3-3.93,7.65-5.57a22.06,22.06,0,0,0,3.32-2.17,14,14,0,0,1,2.84-1.81A8.22,8.22,0,0,1,65.48,43a.51.51,0,0,1,.38-.25.5.5,0,0,1,.43.16c.12.14,2.89,3.17,3.06,5.65a30.42,30.42,0,0,1,10.4,7.59c5.18,5.74,12,8.35,17.36,6.65a20.06,20.06,0,0,1,8.78-1,11,11,0,0,1,7.35,4.35c3.7,4.84,2.67,9.7,2.12,12.31,0,.21-.08.4-.12.58-.46,2.35,3.08,3.59,3.23,3.64,1.57.54,1.68,1.54,2.08,5.28a24.26,24.26,0,0,0,2.5,7.55.51.51,0,0,1-.11.63,5.43,5.43,0,0,0-1.75,3.79,2.78,2.78,0,0,1-.45,2,2.35,2.35,0,0,1-1.77.44c-.35,0-.74,0-1.19,0C117,102.51,116.34,102.53,115.78,102.53Z"/><path d="M122.87,75.78h0a5.88,5.88,0,0,1-5-5.53c-.12-1-.18-1.91-.23-2.7-.21-3-.33-3.71-2-3.81a2.86,2.86,0,0,0-3,1.89.5.5,0,0,1-.63.34.51.51,0,0,1-.34-.64,3.86,3.86,0,0,1,4.07-2.61c2.68.16,2.8,1.89,3,4.76,0,.78.11,1.66.23,2.66a5,5,0,0,0,2.24,3.93,5.19,5.19,0,0,0,.77.4A16.79,16.79,0,0,1,121,72a.51.51,0,0,1,.91-.43,4.23,4.23,0,0,0,2.71,1.94,3.61,3.61,0,0,0,1.86-.22c-2-1.49-2.06-4.24-2.08-7.37,0-1.16,0-2.36-.12-3.62a5.94,5.94,0,0,0-3.25-5,5.65,5.65,0,0,0-5.47.11c-3.38,2.08-4.35,6.84-4.36,6.89a.51.51,0,0,1-1-.2c0-.21,1.06-5.25,4.83-7.56a6.65,6.65,0,0,1,6.46-.15,6.92,6.92,0,0,1,3.81,5.79c.1,1.3.11,2.52.12,3.7,0,3.42,0,5.89,2.32,6.93a.5.5,0,0,1,.09.87,4.78,4.78,0,0,1-3.36.81,4.39,4.39,0,0,1-1.76-.71,5.94,5.94,0,0,0,.62,1.12.52.52,0,0,1,0,.55A.51.51,0,0,1,122.87,75.78Z"/><path d="M95.42,102.56c-.72,0-1.25-.11-1.54-.52a1.44,1.44,0,0,1,0-1.38c.8-2,3.09-3.69,4.2-4.51v0l.64-.43c.49-.32.67-.44,1.48-1.75.22-.36.53-.78.88-1.26,1.51-2.1,4-5.6,4.5-10.33a.51.51,0,1,1,1,.1c-.5,5-3.12,8.65-4.69,10.83-.34.47-.64.87-.84,1.2-.89,1.43-1.16,1.65-1.79,2.06-.16.11-.35.23-.58.4l0,0c-1,.76-3.17,2.36-3.86,4.07a.76.76,0,0,0-.1.4,5.22,5.22,0,0,0,1.84,0,21.1,21.1,0,0,1,2.15-.06c1.68.06,1.76-.41,2-1.66.06-.31.12-.66.21-1a2.35,2.35,0,0,1,2.37-1.86c.68-2.82,3.58-6.23,5.18-8.1a13.45,13.45,0,0,0,1-1.24,6.51,6.51,0,0,0-.67-2.89.51.51,0,1,1,.94-.39c.27.64,1.11,2.8.65,3.73a10.2,10.2,0,0,1-1.14,1.45c-1.62,1.91-4.64,5.45-5,8.06a.53.53,0,0,1-.22.34.49.49,0,0,1-.39.08A1.4,1.4,0,0,0,101.87,99c-.08.33-.14.65-.19,1-.22,1.28-.45,2.61-3,2.51-.71,0-1.42,0-2,.06C96.18,102.53,95.78,102.56,95.42,102.56Z"/><path d="M90.09,83.35a24.17,24.17,0,0,1-7.56-1.24.5.5,0,0,1-.33-.64.52.52,0,0,1,.65-.33c6.88,2.24,13.42,1.35,20-2.72a.5.5,0,0,1,.7.16.52.52,0,0,1-.16.71,26.52,26.52,0,0,1-10.53,3.89A23.44,23.44,0,0,1,90.09,83.35Z"/><path d="M68.43,102.44H62.29a.51.51,0,0,1-.47-.72,12.67,12.67,0,0,1,3.61-4.6c.61-.42,1-.68,1.4-.89.82-.48,1-.61,1.9-2.06.16-.28.33-.56.51-.85a66.28,66.28,0,0,0,4.91-9.79c2.58-6.17,3.26-7.82,3.27-7.84a.51.51,0,0,1,.66-.28.52.52,0,0,1,.28.67s-.69,1.67-3.27,7.84a66.15,66.15,0,0,1-5,9.93l-.5.84a5.09,5.09,0,0,1-2.26,2.42c-.34.2-.76.45-1.34.85a10.76,10.76,0,0,0-2.88,3.46H68a5.42,5.42,0,0,1,2-3.52,2.86,2.86,0,0,1,1.44-.49A16.72,16.72,0,0,1,74,92c2.35-3.56,9.64-12.93,9.71-13a.51.51,0,0,1,.81.63c-.08.09-7.33,9.43-9.66,13S72.41,98,72.41,98a.5.5,0,0,1-.21.36.51.51,0,0,1-.41.09,1.77,1.77,0,0,0-1.21.33A5,5,0,0,0,68.93,102,.5.5,0,0,1,68.43,102.44Z"/><path d="M81,102.53a.5.5,0,0,1-.45-.27c-.12-.22-.58-1.44,1.93-4,2.28-2.28,2.34-2.69,1.67-4.52-.75-2.05-3.83-9.84-3.86-9.92a.5.5,0,0,1,.28-.66.51.51,0,0,1,.67.28c0,.08,3.11,7.89,3.87,10,.84,2.3.55,3.13-1.91,5.59a5.73,5.73,0,0,0-1.71,2.47c1,0,3.31-.08,4.1-.08a1.28,1.28,0,0,0,1-.31,1.55,1.55,0,0,0,.25-1.2,4.1,4.1,0,0,1,1.6-4c.25-.18.25-.18-.17-1A11.53,11.53,0,0,1,87,92.17a96.18,96.18,0,0,1-1.65-9.66.51.51,0,0,1,.44-.57.52.52,0,0,1,.57.45c0,.06.82,6.57,1.62,9.51a11.24,11.24,0,0,0,1.09,2.61c.44.79.85,1.54-.1,2.26a3.1,3.1,0,0,0-1.2,3,2.55,2.55,0,0,1-.51,2,2.26,2.26,0,0,1-1.73.64c-1,0-4.54.09-4.58.09Z"/><path d="M75.16,82.46H56.28a.51.51,0,0,1-.51-.51.51.51,0,0,1,.51-.51H75.16a.51.51,0,0,1,.51.51A.51.51,0,0,1,75.16,82.46Z"/><path d="M76.81,79H57a.51.51,0,1,1,0-1H76.08c-.77-2.18-3.24-9-4.52-11.85a16.22,16.22,0,0,0-3.28-4.92.51.51,0,0,1,.69-.76,17,17,0,0,1,3.52,5.26c1.54,3.39,4.67,12.24,4.8,12.61a.52.52,0,0,1-.06.47A.54.54,0,0,1,76.81,79Z"/><path d="M59.12,64h0a.51.51,0,0,1-.45-.39c0-.06-1.49-6-5-6.88a.51.51,0,0,1,.25-1c3.11.8,4.77,4.61,5.43,6.53,1.28-1.53,3.18-1.31,4.89-1.11A6.32,6.32,0,0,0,67.36,61c2.29-1,1.93-5.41,1.92-5.46a.52.52,0,0,1,.47-.55.5.5,0,0,1,.55.46c0,.21.43,5.18-2.52,6.48a7.17,7.17,0,0,1-3.72.21c-1.92-.23-3.57-.42-4.48,1.53A.5.5,0,0,1,59.12,64Z"/><path d="M75,74a.54.54,0,0,1-.45-.26.51.51,0,0,1,.2-.7,41,41,0,0,0,7.66-5.65c2.89-3,3.9-5.55,3.19-6.25a.94.94,0,0,0-.63-.32.67.67,0,0,0-.41.25c-3.9,6.46-9.19,9.58-15.75,9.25a14,14,0,0,1-9.74-4.81.51.51,0,1,1,.8-.64h0a13.2,13.2,0,0,0,9,4.43C75,69.65,80,66.69,83.72,60.55l0,0a1.67,1.67,0,0,1,1.15-.67,1.81,1.81,0,0,1,1.44.6c1.33,1.3.06,4.39-3.17,7.7A41.38,41.38,0,0,1,75.27,74,.59.59,0,0,1,75,74Z"/><path d="M64.29,53.23a.5.5,0,0,1-.31-.1l-.87-.66a.52.52,0,0,1-.1-.72.51.51,0,0,1,.72-.1l.87.66a.52.52,0,0,1,.1.72A.53.53,0,0,1,64.29,53.23Z"/><path d="M68.53,47.81a5.14,5.14,0,0,1,5.64-.68l-1.8,1.07s4.3-.19,6.7,2.17a7.46,7.46,0,0,0-3.14.67s4.73.62,6.11,3.05a5.4,5.4,0,0,0-2.32.18,10.94,10.94,0,0,1,5.13,3.61,19.19,19.19,0,0,0-3.25,0c-1.18.18-2.11-1.23-2.71-1.83s-4.55-4.79-7-5.78S68.68,49.2,68.53,47.81Z"/><path d="M103,78.72,98.56,81.1s3.15,5,6.44,6l1-4.54Z"/><path d="M95.87,98.34a8.19,8.19,0,0,1,5.32,1.84,1.85,1.85,0,0,1-1.43,1.56,14.83,14.83,0,0,1-3.89.44c-1,0-2.14-.05-1.63-1S95.87,98.34,95.87,98.34Z"/><path d="M82.85,98.46a10.55,10.55,0,0,1,4.72,1.65s-.13,1.57-1.32,1.71a28,28,0,0,1-3.73.2c-1.51,0-1.71.17-1.29-1A10.2,10.2,0,0,1,82.85,98.46Z"/><path d="M116.33,98.15s3.86,1.16,4.36,1.67.88,2.14-1.77,2.27a37.81,37.81,0,0,1-4.74-.06,17.7,17.7,0,0,1,.88-1.79C115.39,99.73,116.33,98.15,116.33,98.15Z"/><path d="M68.81,100.39a11.2,11.2,0,0,0-4.14-1.87,6.52,6.52,0,0,0-1.62,2.17c-.31,1-.12,1.19,1.48,1.24a32.27,32.27,0,0,0,3.37-.11,6.21,6.21,0,0,0,.62-.33S68.81,100.39,68.81,100.39Z"/><circle cx="39.91" cy="87.4" r="1.16"/><path d="M53.22,61.27a.51.51,0,0,1-.17,0,.51.51,0,0,1-.31-.65,8.65,8.65,0,0,1,.67-1.36.51.51,0,1,1,.87.53,9.27,9.27,0,0,0-.58,1.17A.5.5,0,0,1,53.22,61.27Z"/><ellipse cx="62.44" cy="54.72" rx="0.66" ry="1.08"/><ellipse cx="38.19" cy="32.61" rx="0.65" ry="1.07"/><path d="M42.24,29.9a26.77,26.77,0,0,0,0,2.82c.09,1.14.22,1.62,1.07.76s1.86-1.61,2.44-.87a3.49,3.49,0,0,1-.15,3.22c-.46.7,1.11-.63,1.11-.87a20.3,20.3,0,0,0,0-3.22c-.16-.48-.67-1.53-.67-1.53Z"/></svg>