<svg id="Layer_1" data-name="Layer 1" xmlns="http://www.w3.org/2000/svg" viewBox="0 0 180 180"><defs><style>.cls-1{fill:#fff;}</style></defs><path class="cls-1" d="M69.17,90a.72.72,0,0,1-.34-.09.71.71,0,0,1-.29-1c4.25-7.9,3.52-19.34.68-26.08-1.46-3.47-3.48-5.77-5.68-6.49a12.38,12.38,0,0,0-4.3,2.35C56.14,61.23,54,65.13,53.11,70a.71.71,0,0,1-.84.57.72.72,0,0,1-.57-.84c1.24-6.6,4.33-10.27,6.7-12.18a13.17,13.17,0,0,1,5-2.63.69.69,0,0,1,.35,0c2.75.79,5.1,3.34,6.8,7.37,3,7,3.72,19-.74,27.32A.73.73,0,0,1,69.17,90Z"/><path class="cls-1" d="M63.55,56.32a.72.72,0,0,1-.68-.49L61.65,52.2a.71.71,0,0,1,.34-.86c2.06-1.09,4.19-3,2.67-8L47,41a.72.72,0,0,1,.19-1.43L65.3,42a.74.74,0,0,1,.59.49c1.53,4.59.65,7.82-2.69,9.84l1,3.07a.71.71,0,0,1-.45.91A.59.59,0,0,1,63.55,56.32Z"/><path class="cls-1" d="M57.33,60.21a.72.72,0,0,1-.59-.31,10.45,10.45,0,0,1-.9-3.56A5.7,5.7,0,0,1,51.93,55a5.79,5.79,0,0,1-1.7-3.17c-1.25,0-3.76,0-4.88-1.17a2.09,2.09,0,0,1-.58-1.79c.35-2.64,4.06-4,5.44-4.45.28-1.8,1.51-8,5.67-9.16,3.11-.9,6.8-.12,8.77,1.87a5.52,5.52,0,0,1,1.24,5.81.72.72,0,1,1-1.37-.41,4.14,4.14,0,0,0-.89-4.39c-1.6-1.61-4.76-2.25-7.35-1.5-3.87,1.12-4.7,8.35-4.7,8.42a.75.75,0,0,1-.54.62C49.78,46,46.43,47.21,46.2,49a.63.63,0,0,0,.18.6c.72.75,3.08.82,4.4.69a.74.74,0,0,1,.55.18.69.69,0,0,1,.24.52,4.55,4.55,0,0,0,1.34,2.9,4.63,4.63,0,0,0,3.53,1,.72.72,0,0,1,.76.66,12.22,12.22,0,0,0,.72,3.54.71.71,0,0,1-.18,1A.69.69,0,0,1,57.33,60.21Z"/><path class="cls-1" d="M56.12,78.24H55a67,67,0,0,1-10.6-1.47.71.71,0,0,1-.57-.74l.39-6.51a.72.72,0,0,1,.75-.68l10.66.51a46.49,46.49,0,0,0,4.85-5.88.72.72,0,0,1,1.17.84,44,44,0,0,1-5.26,6.3.72.72,0,0,1-.52.19L45.56,70.3l-.31,5.18A62,62,0,0,0,55,76.79h.72c3.1,0,5,.07,10.58-9a.72.72,0,0,1,1-.23.7.7,0,0,1,.23,1C61.93,77.49,59.64,78.24,56.12,78.24Z"/><path class="cls-1" d="M37.1,76.44a1.94,1.94,0,0,1-.46-.06c-1.15-.29-1.8-2.07-2.06-3a2.56,2.56,0,0,1-1-2.78c.35-1.83,2.16-3.79,5.3-3.79,4.81,0,6.53,2.18,6.6,2.28a.71.71,0,1,1-1.13.87s-1.47-1.71-5.47-1.71c-2.32,0-3.64,1.36-3.89,2.62a1.14,1.14,0,0,0,.5,1.35.71.71,0,0,1,.43.49A4.5,4.5,0,0,0,37,75c.43.1.8-.57.8-.57a.72.72,0,0,1,1-.3.71.71,0,0,1,.31,1A2.39,2.39,0,0,1,37.1,76.44Z"/><path class="cls-1" d="M39.52,77.85h-.15c-.86-.07-1.54-.73-2-2a.72.72,0,0,1,.4-.94.71.71,0,0,1,.93.39c.27.66.58,1.06.84,1.08s1-.58,1.27-1a.72.72,0,0,1,.68-.33l3.13.31a.72.72,0,0,1-.14,1.43l-2.72-.27A3.1,3.1,0,0,1,39.52,77.85Z"/><path class="cls-1" d="M.76,84.79H.7a.72.72,0,0,1,0-1.44s3.07,0,12.68-2.2,21-8.65,21.41-8.86l1.76-1.06a.72.72,0,0,1,1,.24.73.73,0,0,1-.25,1l-1.77,1.07h0c-.12.06-11.93,6.72-21.81,9C4.52,84.7,1.25,84.79.76,84.79Z"/><path class="cls-1" d="M34.58,70.57a.68.68,0,0,1-.52-.23C24.37,60,9.75,58.33,9.6,58.31a.71.71,0,1,1,.15-1.42A42.4,42.4,0,0,1,18.62,59,41.15,41.15,0,0,1,35.11,69.36a.72.72,0,0,1,0,1A.7.7,0,0,1,34.58,70.57Z"/><path class="cls-1" d="M51,81h-.13a.72.72,0,0,1-.58-.84l.55-3a.72.72,0,1,1,1.41.25l-.54,3A.73.73,0,0,1,51,81Z"/><path class="cls-1" d="M33.71,89.75l-.17,0a.72.72,0,0,1-.52-.87c1.48-6,2.3-9.27,9.51-9.55A74.17,74.17,0,0,1,57.8,80.85a.72.72,0,0,1,.55.85.71.71,0,0,1-.85.55c-.08,0-8.43-1.75-14.91-1.5-6.13.23-6.69,2.47-8.18,8.46A.72.72,0,0,1,33.71,89.75Z"/><path class="cls-1" d="M77.66,123.71h-.13a.71.71,0,0,1-.57-.84L83.26,90H17.1l7.65,31.48H34.2a.72.72,0,1,1,0,1.44h-10a.71.71,0,0,1-.69-.55l-8-32.92a.76.76,0,0,1,.13-.62.74.74,0,0,1,.57-.27H84.13a.71.71,0,0,1,.56.26.74.74,0,0,1,.15.59l-6.47,33.74A.73.73,0,0,1,77.66,123.71Z"/><path class="cls-1" d="M56.21,145.16A22.17,22.17,0,1,1,78.38,123,22.18,22.18,0,0,1,56.21,145.16Zm0-42.9A20.74,20.74,0,1,0,77,123,20.76,20.76,0,0,0,56.21,102.26Z"/><path class="cls-1" d="M56.21,139.91A16.92,16.92,0,1,1,73.13,123,16.93,16.93,0,0,1,56.21,139.91Zm0-32.39A15.48,15.48,0,1,0,71.69,123,15.49,15.49,0,0,0,56.21,107.52Z"/><path class="cls-1" d="M56.21,119.23a.71.71,0,0,1-.71-.72V106.8a.72.72,0,1,1,1.43,0v11.71A.72.72,0,0,1,56.21,119.23Z"/><path class="cls-1" d="M56.21,139.91a.71.71,0,0,1-.71-.72V127.48a.72.72,0,1,1,1.43,0v11.71A.72.72,0,0,1,56.21,139.91Z"/><path class="cls-1" d="M67.53,135.3a.7.7,0,0,1-.5-.21l-8.29-8.28a.71.71,0,0,1,1-1L68,134.07a.72.72,0,0,1,0,1A.71.71,0,0,1,67.53,135.3Z"/><path class="cls-1" d="M52.9,120.69a.73.73,0,0,1-.51-.21L44.1,112.2a.71.71,0,0,1,0-1,.72.72,0,0,1,1,0l8.29,8.27a.72.72,0,0,1,0,1A.71.71,0,0,1,52.9,120.69Z"/><path class="cls-1" d="M56.21,128.2A5.21,5.21,0,0,1,51,123a4.86,4.86,0,0,1,.09-1,5.13,5.13,0,0,1,1.27-2.56,5.23,5.23,0,0,1,3.84-1.7,5.16,5.16,0,0,1,3.69,1.53,5.07,5.07,0,0,1,1.43,2.73,4.86,4.86,0,0,1,.09,1,5.21,5.21,0,0,1-5.21,5.2Zm0-9a3.78,3.78,0,0,0-2.78,1.23,3.73,3.73,0,0,0-.92,1.85,3.85,3.85,0,0,0-.06.69A3.77,3.77,0,0,0,60,123a3.66,3.66,0,0,0-.06-.68,3.8,3.8,0,0,0-1-2A3.75,3.75,0,0,0,56.21,119.23Z"/><path class="cls-1" d="M44.61,135.3a.72.72,0,0,1-.51-1.23l8.43-8.41a.72.72,0,0,1,1,0,.71.71,0,0,1,0,1l-8.43,8.42A.71.71,0,0,1,44.61,135.3Z"/><path class="cls-1" d="M59.39,120.54a.72.72,0,0,1-.51-1.22L67,111.19a.71.71,0,0,1,1,1l-8.14,8.13A.73.73,0,0,1,59.39,120.54Z"/><path class="cls-1" d="M51.8,122.9H40a.72.72,0,0,1,0-1.44H51.8a.72.72,0,0,1,0,1.44Z"/><path class="cls-1" d="M72.39,122.9H60.63a.72.72,0,0,1,0-1.44H72.39a.72.72,0,1,1,0,1.44Z"/><path class="cls-1" d="M82.37,96.88H17.86a.72.72,0,0,1,0-1.44H82.37a.72.72,0,0,1,0,1.44Z"/><path class="cls-1" d="M139.6,144.06H28.21a.72.72,0,0,1,0-1.44H139.6a.72.72,0,0,1,0,1.44Z"/><path class="cls-1" d="M51.36,90h-.09a33.87,33.87,0,0,1-6.91-1.55l.08.48a.71.71,0,0,1-.57.84.72.72,0,0,1-.84-.58l-.33-1.8a.71.71,0,0,1,1-.77c2.67,1.37,7.66,2,7.71,2a.73.73,0,0,1,.63.8A.71.71,0,0,1,51.36,90Z"/><path class="cls-1" d="M162.81,144.19a24.34,24.34,0,0,1-2.52-.12.75.75,0,0,1-.55-.4.74.74,0,0,1,0-.68c.1-.17,2.45-4.22,3.76-6.05a8.74,8.74,0,0,1,1.11-1.23c.86-.82,1.29-1.23.58-3.55-.2-.64-.38-1.31-.56-2-.87-3.12-1.77-6.36-4.12-7.72a24.07,24.07,0,0,0-3.28-1.42c-3.17-1.22-7.11-2.72-10.49-6.54a20.45,20.45,0,0,1-5.06-11.76.72.72,0,0,1,.69-.74.71.71,0,0,1,.75.69,19.32,19.32,0,0,0,4.7,10.86c3.15,3.55,6.9,5,9.92,6.14a25.51,25.51,0,0,1,3.49,1.53c2.85,1.65,3.83,5.17,4.78,8.58.19.67.36,1.3.55,1.91.91,3,.21,3.91-1,5a7.15,7.15,0,0,0-.93,1c-.89,1.24-2.31,3.61-3.1,4.95a30.61,30.61,0,0,0,3.92-.08c.69-.06,1.29-.06,1.78-.07.69,0,1.29,0,1.46-.18s.28-.55.24-1.82a8.85,8.85,0,0,1,2.54-6.06,34.23,34.23,0,0,1-3.43-10.66c-.58-5.33-.73-5.8-2-6.22-.65-.22-6.36-2.3-5.49-6.76l.17-.83c.73-3.45,2.08-9.87-2.71-16.15C153.62,88,146.72,86.66,137,89.73a20.07,20.07,0,0,1-13.52-.88A33.75,33.75,0,0,1,111.09,80,41,41,0,0,0,96.56,69.5a.74.74,0,0,1-.47-.71c.09-2.06-1.92-5-3.24-6.63A11,11,0,0,0,92.58,69a.74.74,0,0,1-.06.58.71.71,0,0,1-.47.34,14.06,14.06,0,0,0-4.17,2.52A31.78,31.78,0,0,1,83,75.65c-2.81,1.37-8.64,4.23-10.1,7.18-1.35,2.72-.43,6.21-.42,6.24a.72.72,0,1,1-1.38.38c0-.17-1.07-4.06.51-7.26,1.47-3,6-5.52,10.75-7.83a31.52,31.52,0,0,0,4.67-3,19.25,19.25,0,0,1,4-2.54,11.54,11.54,0,0,1,1-8.26.68.68,0,0,1,.54-.35.71.71,0,0,1,.6.23c.18.19,4.06,4.45,4.3,7.94A42.61,42.61,0,0,1,112.15,79c7.28,8.07,16.86,11.74,24.41,9.36a28,28,0,0,1,12.35-1.45A15.4,15.4,0,0,1,159.25,93c5.19,6.8,3.75,13.64,3,17.32-.06.29-.12.56-.17.81-.65,3.31,4.33,5,4.54,5.12,2.2.75,2.36,2.17,2.93,7.43A34.09,34.09,0,0,0,173,134.31a.7.7,0,0,1-.15.88,7.67,7.67,0,0,0-2.46,5.34,3.92,3.92,0,0,1-.64,2.86,3.22,3.22,0,0,1-2.49.62c-.49,0-1,0-1.67.06C164.55,144.16,163.6,144.19,162.81,144.19Z"/><path class="cls-1" d="M172.79,106.57h-.06c-.07,0-6.26-.61-7.07-7.77-.17-1.43-.25-2.69-.33-3.79-.3-4.23-.46-5.23-2.87-5.37a4,4,0,0,0-4.26,2.66.72.72,0,0,1-1.38-.41,5.48,5.48,0,0,1,5.73-3.69c3.76.23,3.93,2.67,4.21,6.71.08,1.09.16,2.33.32,3.73a7.12,7.12,0,0,0,3.17,5.54,5.8,5.8,0,0,0,1.08.55,22,22,0,0,1-1.23-3.43.72.72,0,0,1,1.28-.6,6,6,0,0,0,3.81,2.73,5,5,0,0,0,2.61-.31c-2.86-2.09-2.89-6-2.92-10.36,0-1.64,0-3.32-.17-5.1a8.36,8.36,0,0,0-4.57-7,8,8,0,0,0-7.69.16c-4.76,2.92-6.12,9.62-6.13,9.69a.73.73,0,0,1-.85.57.71.71,0,0,1-.56-.84c.05-.3,1.49-7.39,6.79-10.64a9.37,9.37,0,0,1,9.09-.22,9.78,9.78,0,0,1,5.36,8.15c.14,1.82.15,3.54.17,5.2,0,4.81.05,8.29,3.26,9.74a.71.71,0,0,1,.13,1.23,6.71,6.71,0,0,1-4.73,1.13,6.13,6.13,0,0,1-2.47-1,9.09,9.09,0,0,0,.86,1.58.72.72,0,0,1-.58,1.14Z"/><path class="cls-1" d="M134.18,144.23a2.49,2.49,0,0,1-2.17-.74,2,2,0,0,1,0-1.94c1.12-2.77,4.35-5.18,5.9-6.34l0,0c.37-.28.66-.47.89-.62.68-.44.94-.6,2.09-2.46.31-.49.73-1.08,1.22-1.77,2.13-2.94,5.68-7.87,6.34-14.52a.72.72,0,1,1,1.43.14c-.7,7-4.39,12.16-6.6,15.22-.48.66-.89,1.24-1.17,1.69-1.26,2-1.63,2.33-2.52,2.91a9.44,9.44,0,0,0-.82.56l0,0c-1.45,1.08-4.46,3.33-5.43,5.73a1.32,1.32,0,0,0-.14.56,7.44,7.44,0,0,0,2.6.06,29,29,0,0,1,3-.09c2.35.09,2.47-.57,2.77-2.34.08-.43.16-.93.3-1.44a3.29,3.29,0,0,1,3.32-2.62c1-4,5-8.75,7.29-11.39a21.82,21.82,0,0,0,1.41-1.74c.23-.49-.31-2.53-.95-4.07a.72.72,0,1,1,1.33-.55c.38.9,1.55,3.94.91,5.26a15.22,15.22,0,0,1-1.6,2c-2.29,2.68-6.53,7.67-7.1,11.34a.74.74,0,0,1-.29.48.73.73,0,0,1-.56.11,2,2,0,0,0-2.37,1.5c-.12.47-.2.91-.27,1.34-.31,1.8-.63,3.66-4.24,3.53a26.68,26.68,0,0,0-2.88.09C135.25,144.19,134.68,144.23,134.18,144.23Z"/><path class="cls-1" d="M126.68,117.21a34.12,34.12,0,0,1-10.62-1.74.71.71,0,1,1,.44-1.36c9.68,3.15,18.88,1.89,28.15-3.84a.72.72,0,0,1,1,.24.71.71,0,0,1-.24,1A37,37,0,0,1,130.59,117,31.82,31.82,0,0,1,126.68,117.21Z"/><path class="cls-1" d="M96.23,144.06H87.59a.72.72,0,0,1-.65-1c.08-.17,2-4.32,5.07-6.46.86-.6,1.48-1,2-1.26,1.16-.67,1.47-.86,2.67-2.89.23-.39.47-.79.72-1.19a93.31,93.31,0,0,0,6.9-13.78c3.63-8.67,4.59-11,4.6-11a.72.72,0,1,1,1.32.55s-1,2.35-4.6,11a93,93,0,0,1-7,14c-.25.4-.48.79-.71,1.18-1.33,2.25-1.82,2.61-3.18,3.4-.47.28-1.06.63-1.88,1.2a15.07,15.07,0,0,0-4.06,4.86h6.87c.54-2.38,1.49-4.05,2.85-4.94a4,4,0,0,1,2-.69,24,24,0,0,1,3.61-7.69c3.31-5,13.55-18.17,13.66-18.3a.71.71,0,0,1,1-.13.72.72,0,0,1,.13,1c-.1.13-10.31,13.26-13.59,18.21-3.16,4.78-3.49,7.68-3.49,7.71a.73.73,0,0,1-.87.63,2.49,2.49,0,0,0-1.71.47c-1.09.74-1.89,2.32-2.31,4.57A.73.73,0,0,1,96.23,144.06Z"/><path class="cls-1" d="M113.88,144.19a.72.72,0,0,1-.63-.38c-.17-.31-.82-2,2.71-5.56,3.21-3.21,3.29-3.79,2.34-6.36-1-2.88-5.38-13.84-5.42-13.95a.72.72,0,1,1,1.33-.53c.05.11,4.38,11.09,5.44,14,1.19,3.23.79,4.4-2.67,7.86-1.79,1.79-2.28,2.9-2.41,3.47,1.44,0,4.65-.11,5.77-.11a1.77,1.77,0,0,0,1.36-.44,2.16,2.16,0,0,0,.35-1.67,5.77,5.77,0,0,1,2.25-5.58c.34-.25.35-.26-.24-1.34a16.5,16.5,0,0,1-1.66-4c-1.15-4.23-2.28-13.2-2.33-13.58a.72.72,0,0,1,1.43-.17c0,.09,1.16,9.24,2.28,13.37a15.3,15.3,0,0,0,1.54,3.67c.61,1.12,1.19,2.17-.15,3.18a4.38,4.38,0,0,0-1.69,4.29,3.47,3.47,0,0,1-.72,2.78,3.13,3.13,0,0,1-2.42.91c-1.42,0-6.39.13-6.44.13Z"/><path class="cls-1" d="M105.69,116H79.15a.72.72,0,1,1,0-1.43h26.54a.72.72,0,1,1,0,1.43Z"/><path class="cls-1" d="M108,111.08H80.09a.72.72,0,1,1,0-1.43H107c-1.09-3.08-4.56-12.72-6.35-16.67A22.84,22.84,0,0,0,96,86.06.72.72,0,0,1,97,85a23.77,23.77,0,0,1,5,7.4c2.16,4.76,6.55,17.21,6.74,17.74a.72.72,0,0,1-.09.65A.73.73,0,0,1,108,111.08Z"/><path class="cls-1" d="M83.14,90h-.08a.71.71,0,0,1-.62-.54c0-.09-2.11-8.42-7.06-9.68a.73.73,0,0,1-.52-.87.72.72,0,0,1,.88-.52c4.38,1.11,6.71,6.47,7.63,9.18,1.8-2.15,4.48-1.84,6.88-1.56a8.87,8.87,0,0,0,4.48-.17c3.22-1.42,2.71-7.61,2.7-7.67a.72.72,0,0,1,.65-.78.71.71,0,0,1,.78.65c0,.3.61,7.27-3.55,9.11a10,10,0,0,1-5.23.29c-2.69-.32-5-.59-6.29,2.15A.72.72,0,0,1,83.14,90Z"/><path class="cls-1" d="M105.5,104.11a.72.72,0,0,1-.36-1.34c.07,0,6.79-3.85,10.78-7.94S121.41,87,120.4,86a1.26,1.26,0,0,0-.88-.45.92.92,0,0,0-.58.34C113.46,95,106,99.4,96.8,99a19.78,19.78,0,0,1-13.71-6.77.72.72,0,0,1,.12-1,.72.72,0,0,1,1,.11h0a18.57,18.57,0,0,0,12.65,6.23c8.65.43,15.67-3.73,20.86-12.35l0,0a2.35,2.35,0,0,1,1.62-1,2.54,2.54,0,0,1,2,.85c1.87,1.82.08,6.17-4.45,10.82-4.13,4.24-10.82,8-11.1,8.19A.76.76,0,0,1,105.5,104.11Z"/><path class="cls-1" d="M90.41,74.85a.72.72,0,0,1-.44-.14l-1.22-.93a.72.72,0,0,1-.14-1,.73.73,0,0,1,1-.14l1.22.93a.72.72,0,0,1,.14,1A.69.69,0,0,1,90.41,74.85Z"/><path class="cls-1" d="M96.37,67.24a7.21,7.21,0,0,1,7.93-1l-2.53,1.51s6-.28,9.42,3c0,0-3.07,0-4.42.93,0,0,6.66.87,8.6,4.29a7.82,7.82,0,0,0-3.26.25,15.27,15.27,0,0,1,7.2,5.09,25.69,25.69,0,0,0-4.56,0c-1.66.25-3-1.73-3.81-2.58s-6.39-6.73-9.88-8.12S96.57,69.19,96.37,67.24Z"/><path class="cls-1" d="M144.81,110.7l-6.21,3.35s4.44,7,9.05,8.49l1.39-6.39Z"/><path class="cls-1" d="M134.82,138.29a11.45,11.45,0,0,1,7.48,2.59,2.62,2.62,0,0,1-2,2.19,21.21,21.21,0,0,1-5.46.63c-1.37,0-3-.09-2.3-1.45S134.82,138.29,134.82,138.29Z"/><path class="cls-1" d="M116.5,138.46s4.11.36,6.65,2.32c0,0-.19,2.2-1.87,2.41a40.91,40.91,0,0,1-5.24.28c-2.12,0-2.4.23-1.81-1.42A14.66,14.66,0,0,1,116.5,138.46Z"/><path class="cls-1" d="M163.58,138s5.44,1.63,6.14,2.35,1.24,3-2.49,3.19a54.25,54.25,0,0,1-6.66-.08A24.58,24.58,0,0,1,161.8,141C162.27,140.25,163.58,138,163.58,138Z"/><path class="cls-1" d="M96.76,141.18s-3.38-2.42-5.81-2.63a9.15,9.15,0,0,0-2.29,3c-.43,1.39-.17,1.67,2.09,1.74a44.52,44.52,0,0,0,4.73-.16,9.28,9.28,0,0,0,.88-.46C96.36,142.67,96.76,141.18,96.76,141.18Z"/><circle class="cls-1" cx="56.12" cy="122.9" r="1.63"/><path class="cls-1" d="M74.84,86.16a.59.59,0,0,1-.23,0,.72.72,0,0,1-.45-.91,11.58,11.58,0,0,1,.94-1.91.73.73,0,0,1,1-.25.72.72,0,0,1,.24,1,11.93,11.93,0,0,0-.81,1.64A.72.72,0,0,1,74.84,86.16Z"/><ellipse class="cls-1" cx="87.81" cy="76.95" rx="0.93" ry="1.52"/><ellipse class="cls-1" cx="53.7" cy="45.86" rx="0.92" ry="1.51"/><path class="cls-1" d="M59.4,42s-.12,2.37,0,4,.31,2.28,1.5,1.07,2.61-2.27,3.44-1.22.45,3.54-.21,4.53,1.56-.88,1.56-1.23a29.7,29.7,0,0,0,0-4.53c-.22-.67-.94-2.15-.94-2.15Z"/></svg>