<svg id="Layer_1" data-name="Layer 1" xmlns="http://www.w3.org/2000/svg" viewBox="0 0 32 32"><defs><style>.cls-1{fill:#fff;}</style></defs><path class="cls-1" d="M12.3,16l-.06,0a.12.12,0,0,1-.06-.17,6,6,0,0,0,.13-4.64,1.9,1.9,0,0,0-1-1.15,2,2,0,0,0-.77.42,3.27,3.27,0,0,0-1.09,2,.12.12,0,0,1-.15.1.13.13,0,0,1-.1-.15,3.51,3.51,0,0,1,1.19-2.16,2.16,2.16,0,0,1,.89-.47h.06a2.06,2.06,0,0,1,1.21,1.31,6.24,6.24,0,0,1-.13,4.86A.14.14,0,0,1,12.3,16Z"/><path class="cls-1" d="M11.3,10a.13.13,0,0,1-.12-.08L11,9.28A.13.13,0,0,1,11,9.13c.37-.2.75-.53.47-1.43L8.35,7.29a.13.13,0,0,1,0-.26l3.22.43a.12.12,0,0,1,.1.09,1.32,1.32,0,0,1-.47,1.75l.18.54a.14.14,0,0,1-.08.17Z"/><path class="cls-1" d="M10.19,10.7a.1.1,0,0,1-.1,0A1.77,1.77,0,0,1,9.93,10a1.06,1.06,0,0,1-.7-.25,1,1,0,0,1-.3-.56A1.38,1.38,0,0,1,8.06,9,.38.38,0,0,1,8,8.68c.06-.47.72-.72,1-.79.05-.32.26-1.42,1-1.63a1.66,1.66,0,0,1,1.56.33,1,1,0,0,1,.22,1,.12.12,0,0,1-.15.09.13.13,0,0,1-.09-.16.74.74,0,0,0-.16-.78A1.43,1.43,0,0,0,10,6.5C9.32,6.7,9.17,8,9.17,8a.13.13,0,0,1-.1.11c-.22.06-.82.28-.86.6a.18.18,0,0,0,0,.11A1.24,1.24,0,0,0,9,8.94a.19.19,0,0,1,.1,0,.18.18,0,0,1,0,.1.77.77,0,0,0,.24.51.81.81,0,0,0,.62.18.12.12,0,0,1,.14.11,2,2,0,0,0,.13.63.14.14,0,0,1,0,.18A.12.12,0,0,1,10.19,10.7Z"/><path class="cls-1" d="M10,13.91H9.77a12.13,12.13,0,0,1-1.89-.26.14.14,0,0,1-.1-.14l.07-1.15A.13.13,0,0,1,8,12.24l1.89.09a7.44,7.44,0,0,0,.86-1.05.13.13,0,0,1,.18,0,.13.13,0,0,1,0,.18A8,8,0,0,1,10,12.55a.18.18,0,0,1-.1,0L8.1,12.5,8,13.42a11.4,11.4,0,0,0,1.73.23H9.9c.55,0,.88,0,1.88-1.6A.12.12,0,0,1,12,12a.13.13,0,0,1,0,.18C11,13.78,10.6,13.91,10,13.91Z"/><path class="cls-1" d="M6.6,13.59H6.51c-.2-.05-.32-.37-.36-.53A.44.44,0,0,1,6,12.56a.91.91,0,0,1,1-.68,1.42,1.42,0,0,1,1.17.41.14.14,0,0,1,0,.18.13.13,0,0,1-.18,0,1.32,1.32,0,0,0-1-.3.64.64,0,0,0-.69.46c0,.1,0,.21.08.24a.14.14,0,0,1,.08.09c0,.19.14.39.2.4s.14-.1.14-.1a.12.12,0,0,1,.17-.05.13.13,0,0,1,.06.17A.45.45,0,0,1,6.6,13.59Z"/><path class="cls-1" d="M7,13.84H7c-.15,0-.28-.13-.36-.35a.12.12,0,0,1,.07-.17.13.13,0,0,1,.16.07c0,.12.1.19.15.19s.17-.1.23-.18a.13.13,0,0,1,.12-.06l.55.05a.14.14,0,0,1,.12.14.13.13,0,0,1-.14.12l-.48-.05A.59.59,0,0,1,7,13.84Z"/><path class="cls-1" d="M.14,15.07h0a.13.13,0,1,1,0-.25,12.47,12.47,0,0,0,2.26-.39,17.34,17.34,0,0,0,3.8-1.58l.31-.19a.14.14,0,0,1,.18.05.12.12,0,0,1,0,.17l-.32.19h0a17.36,17.36,0,0,1-3.88,1.61A11.75,11.75,0,0,1,.14,15.07Z"/><path class="cls-1" d="M6.15,12.55a.18.18,0,0,1-.1,0,7.69,7.69,0,0,0-4.34-2.14.13.13,0,0,1,0-.26,8.58,8.58,0,0,1,1.58.39,7.23,7.23,0,0,1,2.93,1.83.13.13,0,0,1,0,.18A.18.18,0,0,1,6.15,12.55Z"/><path class="cls-1" d="M9.06,14.39H9a.13.13,0,0,1-.11-.15l.1-.53a.13.13,0,1,1,.25,0l-.09.53A.14.14,0,0,1,9.06,14.39Z"/><path class="cls-1" d="M6,16H6a.12.12,0,0,1-.09-.15c.26-1.07.41-1.65,1.69-1.7a13.07,13.07,0,0,1,2.71.27.13.13,0,0,1,.1.15.12.12,0,0,1-.15.1,13.22,13.22,0,0,0-2.65-.26c-1.09,0-1.19.43-1.45,1.5A.14.14,0,0,1,6,16Z"/><path class="cls-1" d="M13.81,22h0a.13.13,0,0,1-.1-.15L14.8,16H3L4.4,21.59H6.08a.13.13,0,0,1,0,.26H4.3a.12.12,0,0,1-.12-.1L2.75,15.9a.11.11,0,0,1,0-.11.12.12,0,0,1,.1,0H15a.16.16,0,0,1,.1,0,.12.12,0,0,1,0,.1l-1.15,6A.12.12,0,0,1,13.81,22Z"/><path class="cls-1" d="M10,25.81a3.95,3.95,0,1,1,3.94-3.94A3.95,3.95,0,0,1,10,25.81Zm0-7.63a3.69,3.69,0,1,0,3.69,3.69A3.69,3.69,0,0,0,10,18.18Z"/><path class="cls-1" d="M10,24.87a3,3,0,1,1,3-3A3,3,0,0,1,10,24.87Zm0-5.76a2.76,2.76,0,1,0,2.76,2.76A2.76,2.76,0,0,0,10,19.11Z"/><path class="cls-1" d="M10,21.2a.12.12,0,0,1-.12-.13V19a.12.12,0,0,1,.12-.13.13.13,0,0,1,.13.13v2.08A.13.13,0,0,1,10,21.2Z"/><path class="cls-1" d="M10,24.87a.12.12,0,0,1-.12-.12V22.66a.12.12,0,0,1,.12-.12.12.12,0,0,1,.13.12v2.09A.12.12,0,0,1,10,24.87Z"/><path class="cls-1" d="M12,24.05a.12.12,0,0,1-.09,0l-1.48-1.48a.13.13,0,0,1,.18-.18l1.48,1.47a.14.14,0,0,1,0,.19A.16.16,0,0,1,12,24.05Z"/><path class="cls-1" d="M9.4,21.46a.18.18,0,0,1-.09,0L7.84,20A.13.13,0,0,1,8,19.77L9.5,21.24a.14.14,0,0,1,0,.18A.18.18,0,0,1,9.4,21.46Z"/><path class="cls-1" d="M10,22.79a.93.93,0,0,1-.65-.27.92.92,0,0,1,0-1.28.93.93,0,0,1,.68-.3,1,1,0,0,1,.66.27.92.92,0,0,1,.25.49.88.88,0,0,1,0,.17.92.92,0,0,1-.93.92Zm0-1.59a.71.71,0,0,0-.49.21.64.64,0,0,0-.16.33.51.51,0,0,0,0,.13.67.67,0,0,0,.2.47.65.65,0,0,0,.47.2.72.72,0,0,0,.46-.18.65.65,0,0,0,.21-.49.41.41,0,0,0,0-.12.69.69,0,0,0-.18-.36A.71.71,0,0,0,10,21.2Z"/><path class="cls-1" d="M7.93,24.05a.16.16,0,0,1-.09,0,.14.14,0,0,1,0-.19l1.5-1.49a.13.13,0,0,1,.18.18L8,24A.14.14,0,0,1,7.93,24.05Z"/><path class="cls-1" d="M10.56,21.43a.11.11,0,0,1-.09,0,.13.13,0,0,1,0-.18l1.45-1.44a.13.13,0,0,1,.18.18l-1.45,1.44A.12.12,0,0,1,10.56,21.43Z"/><path class="cls-1" d="M9.21,21.85H7.11a.13.13,0,0,1,0-.26h2.1a.13.13,0,0,1,0,.26Z"/><path class="cls-1" d="M12.87,21.85H10.78a.13.13,0,0,1,0-.26h2.09a.13.13,0,0,1,0,.26Z"/><path class="cls-1" d="M14.64,17.22H3.18a.12.12,0,0,1-.13-.12A.13.13,0,0,1,3.18,17H14.64a.13.13,0,0,1,.13.13A.12.12,0,0,1,14.64,17.22Z"/><path class="cls-1" d="M24.82,25.61H5a.13.13,0,0,1,0-.26H24.82a.13.13,0,0,1,0,.26Z"/><path class="cls-1" d="M9.13,16h0a6.81,6.81,0,0,1-1.23-.28v.08a.13.13,0,0,1-.1.15.12.12,0,0,1-.15-.1l-.06-.32a.13.13,0,0,1,0-.13.15.15,0,0,1,.13,0,5,5,0,0,0,1.37.35.14.14,0,0,1,.12.14A.14.14,0,0,1,9.13,16Z"/><path class="cls-1" d="M28.94,25.63c-.27,0-.43,0-.44,0a.11.11,0,0,1-.1-.07.13.13,0,0,1,0-.12s.44-.75.67-1.08a1.37,1.37,0,0,1,.2-.21c.15-.15.23-.22.1-.64l-.1-.34a2.18,2.18,0,0,0-.73-1.38,4.78,4.78,0,0,0-.58-.25,4.24,4.24,0,0,1-1.87-1.16,3.62,3.62,0,0,1-.9-2.09.12.12,0,0,1,.12-.13.13.13,0,0,1,.14.12,3.42,3.42,0,0,0,.83,1.93,4.09,4.09,0,0,0,1.77,1.09,4.59,4.59,0,0,1,.62.27,2.4,2.4,0,0,1,.85,1.53l.09.34c.17.53,0,.69-.17.89a1.45,1.45,0,0,0-.16.18c-.16.22-.41.64-.55.88a5.56,5.56,0,0,0,.69,0h.32c.12,0,.23,0,.26,0s.05-.09,0-.32a1.65,1.65,0,0,1,.45-1.08A6.16,6.16,0,0,1,29.88,22c-.1-.95-.12-1-.34-1.11s-1.14-.41-1-1.2q0-.06,0-.15a3.28,3.28,0,0,0-.48-2.87c-.8-1-2-1.28-3.76-.74A3.59,3.59,0,0,1,22,15.8a6.21,6.21,0,0,1-2.2-1.58,7.13,7.13,0,0,0-2.58-1.86.13.13,0,0,1-.09-.13,2.25,2.25,0,0,0-.57-1.18,2,2,0,0,0-.05,1.22.11.11,0,0,1,0,.1.13.13,0,0,1-.09.07,2.44,2.44,0,0,0-.74.44,4.84,4.84,0,0,1-.87.57c-.49.24-1.53.75-1.79,1.28a1.69,1.69,0,0,0-.07,1.1.15.15,0,0,1-.09.16.13.13,0,0,1-.16-.09,2,2,0,0,1,.09-1.29,4.26,4.26,0,0,1,1.91-1.39,5.92,5.92,0,0,0,.83-.54,3.14,3.14,0,0,1,.71-.45,2,2,0,0,1,.19-1.47.11.11,0,0,1,.1-.06.1.1,0,0,1,.1,0,3.1,3.1,0,0,1,.77,1.41,7.46,7.46,0,0,1,2.6,1.9,4.42,4.42,0,0,0,4.34,1.66,5,5,0,0,1,2.19-.26,2.71,2.71,0,0,1,1.84,1.09,3.51,3.51,0,0,1,.53,3.08l0,.14c-.11.59.77.9.81.91.39.13.42.39.52,1.32a6.36,6.36,0,0,0,.62,1.89.12.12,0,0,1,0,.15,1.36,1.36,0,0,0-.44.95.69.69,0,0,1-.12.51c-.1.11-.25.11-.44.11h-.3A4.62,4.62,0,0,1,28.94,25.63Z"/><path class="cls-1" d="M30.72,18.94h0a1.45,1.45,0,0,1-1.26-1.38c0-.25,0-.47-.06-.67-.05-.75-.08-.93-.51-1a.74.74,0,0,0-.76.48.13.13,0,0,1-.24-.08,1,1,0,0,1,1-.65c.67,0,.7.47.75,1.19,0,.19,0,.41.05.66a1.28,1.28,0,0,0,.57,1l.19.1a4.49,4.49,0,0,1-.22-.61.12.12,0,0,1,.07-.15.13.13,0,0,1,.16,0,1.06,1.06,0,0,0,.68.49.84.84,0,0,0,.46-.06c-.51-.37-.51-1.06-.52-1.84,0-.29,0-.59,0-.91a1.48,1.48,0,0,0-.81-1.24,1.44,1.44,0,0,0-1.37,0,2.88,2.88,0,0,0-1.09,1.72.12.12,0,0,1-.15.1.13.13,0,0,1-.1-.15,3.1,3.1,0,0,1,1.21-1.89,1.67,1.67,0,0,1,1.61,0,1.74,1.74,0,0,1,.95,1.45c0,.33,0,.63,0,.93,0,.85,0,1.47.58,1.73a.14.14,0,0,1,.07.1.17.17,0,0,1-.05.12,1.25,1.25,0,0,1-.84.2,1.05,1.05,0,0,1-.44-.18,1.25,1.25,0,0,0,.15.28.14.14,0,0,1,0,.14A.13.13,0,0,1,30.72,18.94Z"/><path class="cls-1" d="M23.85,25.64a.44.44,0,0,1-.38-.13.39.39,0,0,1,0-.35A3.18,3.18,0,0,1,24.51,24h0l.16-.11c.12-.07.16-.1.37-.43a3.13,3.13,0,0,1,.22-.32,5.26,5.26,0,0,0,1.12-2.58.13.13,0,0,1,.26,0,5.44,5.44,0,0,1-1.18,2.71l-.2.3c-.23.36-.29.42-.45.52l-.15.1h0a2.9,2.9,0,0,0-1,1,.15.15,0,0,0,0,.1,1.3,1.3,0,0,0,.46,0l.54,0c.41,0,.43-.1.49-.41,0-.08,0-.17,0-.26a.58.58,0,0,1,.59-.46,6.05,6.05,0,0,1,1.3-2,3.68,3.68,0,0,0,.25-.31,1.72,1.72,0,0,0-.17-.72.12.12,0,0,1,.07-.17.15.15,0,0,1,.17.07c.06.16.27.7.16.94a3,3,0,0,1-.29.36,5.43,5.43,0,0,0-1.26,2,.11.11,0,0,1-.05.09.12.12,0,0,1-.1,0,.34.34,0,0,0-.42.27c0,.08,0,.16,0,.23-.05.32-.11.65-.75.63a4.35,4.35,0,0,0-.52,0Z"/><path class="cls-1" d="M22.52,20.84a6.28,6.28,0,0,1-1.89-.31.14.14,0,0,1-.08-.16.12.12,0,0,1,.16-.08,5.71,5.71,0,0,0,5-.69.13.13,0,0,1,.17,0,.12.12,0,0,1,0,.17,6.45,6.45,0,0,1-2.63,1A5.49,5.49,0,0,1,22.52,20.84Z"/><path class="cls-1" d="M17.11,25.61H15.57a.14.14,0,0,1-.11-.06.13.13,0,0,1,0-.12,3.11,3.11,0,0,1,.9-1.15,3,3,0,0,1,.35-.22c.2-.12.26-.16.47-.52l.13-.21a17.39,17.39,0,0,0,1.23-2.45l.81-2a.15.15,0,0,1,.17-.07.13.13,0,0,1,.07.17s-.17.42-.82,2a15.87,15.87,0,0,1-1.24,2.48,2.39,2.39,0,0,0-.13.21,1.25,1.25,0,0,1-.56.61l-.34.21a2.74,2.74,0,0,0-.72.86H17a1.37,1.37,0,0,1,.51-.87.79.79,0,0,1,.36-.13A4.18,4.18,0,0,1,18.51,23c.59-.89,2.41-3.23,2.43-3.26a.13.13,0,0,1,.2.16s-1.83,2.36-2.42,3.24a3.52,3.52,0,0,0-.62,1.37.12.12,0,0,1-.05.09.12.12,0,0,1-.1,0,.43.43,0,0,0-.31.08,1.32,1.32,0,0,0-.41.82A.12.12,0,0,1,17.11,25.61Z"/><path class="cls-1" d="M20.25,25.63a.14.14,0,0,1-.12-.06c0-.06-.14-.37.49-1s.58-.68.41-1.13-1-2.46-1-2.48a.12.12,0,0,1,.07-.17.13.13,0,0,1,.16.07s.78,2,1,2.49.14.78-.47,1.4a1.4,1.4,0,0,0-.43.61l1,0a.34.34,0,0,0,.25-.07.42.42,0,0,0,.06-.3,1,1,0,0,1,.4-1c.06,0,.06,0-.05-.24a3,3,0,0,1-.29-.71,20.44,20.44,0,0,1-.41-2.41.12.12,0,0,1,.11-.14.12.12,0,0,1,.14.11s.21,1.64.41,2.37a2.74,2.74,0,0,0,.27.66c.11.2.21.38,0,.56A.8.8,0,0,0,22,25a.59.59,0,0,1-.13.49.53.53,0,0,1-.43.16l-1.14,0Z"/><path class="cls-1" d="M18.79,20.62H14.07a.13.13,0,0,1,0-.26h4.72a.13.13,0,0,1,0,.26Z"/><path class="cls-1" d="M19.2,19.75h-5a.13.13,0,1,1,0-.26H19c-.19-.54-.81-2.26-1.13-3a4.16,4.16,0,0,0-.82-1.23.13.13,0,0,1,.17-.19,4.24,4.24,0,0,1,.88,1.31c.39.85,1.17,3.06,1.2,3.16a.11.11,0,0,1,0,.11A.14.14,0,0,1,19.2,19.75Z"/><path class="cls-1" d="M14.78,16h0a.13.13,0,0,1-.11-.1s-.38-1.5-1.26-1.72a.13.13,0,0,1-.09-.16.12.12,0,0,1,.15-.09c.78.2,1.2,1.15,1.36,1.63A1.26,1.26,0,0,1,16,15.29a1.62,1.62,0,0,0,.8,0c.57-.25.48-1.35.48-1.36a.13.13,0,0,1,.12-.14.14.14,0,0,1,.14.12c0,.05.1,1.29-.64,1.62a1.81,1.81,0,0,1-.93,0c-.47-.06-.89-.1-1.11.38A.14.14,0,0,1,14.78,16Z"/><path class="cls-1" d="M18.75,18.51a.13.13,0,0,1-.06-.24,10.33,10.33,0,0,0,1.92-1.41c.72-.74,1-1.39.79-1.56s-.09-.09-.15-.08a.13.13,0,0,0-.11.06,4.19,4.19,0,0,1-3.93,2.31,3.56,3.56,0,0,1-2.44-1.2.14.14,0,0,1,0-.18.12.12,0,0,1,.18,0h0a3.31,3.31,0,0,0,2.25,1.11,4,4,0,0,0,3.71-2.2h0a.47.47,0,0,1,.29-.17.45.45,0,0,1,.36.15c.33.33,0,1.1-.79,1.93a10.32,10.32,0,0,1-2,1.45Z"/><path class="cls-1" d="M16.07,13.31a.11.11,0,0,1-.07,0l-.22-.16a.13.13,0,0,1,.15-.21l.22.17a.12.12,0,0,1,0,.18A.12.12,0,0,1,16.07,13.31Z"/><path class="cls-1" d="M17.13,12a1.3,1.3,0,0,1,1.41-.17l-.45.27a2.55,2.55,0,0,1,1.68.54,2,2,0,0,0-.79.17s1.19.15,1.53.76a1.3,1.3,0,0,0-.58.05,2.64,2.64,0,0,1,1.28.9,5.05,5.05,0,0,0-.81,0c-.3,0-.53-.31-.68-.46A7.62,7.62,0,0,0,18,12.57C17.35,12.32,17.17,12.3,17.13,12Z"/><path class="cls-1" d="M25.74,19.68l-1.1.6a4.22,4.22,0,0,0,1.61,1.5l.25-1.13Z"/><path class="cls-1" d="M24,24.58a2,2,0,0,1,1.33.47.45.45,0,0,1-.36.38,3.65,3.65,0,0,1-1,.12c-.24,0-.54,0-.41-.26S24,24.58,24,24.58Z"/><path class="cls-1" d="M20.71,24.61a2.66,2.66,0,0,1,1.18.42s0,.39-.33.43a8.41,8.41,0,0,1-.93.05c-.38,0-.43,0-.32-.26A2.53,2.53,0,0,1,20.71,24.61Z"/><path class="cls-1" d="M29.08,24.54a6.4,6.4,0,0,1,1.09.41c.13.13.22.54-.44.57a10.76,10.76,0,0,1-1.18,0,3.33,3.33,0,0,1,.22-.45Z"/><path class="cls-1" d="M17.2,25.1a2.82,2.82,0,0,0-1-.47,1.64,1.64,0,0,0-.41.54c-.07.25,0,.3.37.31s.84,0,.84,0l.16-.08S17.2,25.1,17.2,25.1Z"/><circle class="cls-1" cx="9.98" cy="21.85" r="0.29"/><path class="cls-1" d="M13.31,15.32h-.05a.14.14,0,0,1-.08-.16,2.47,2.47,0,0,1,.17-.34.14.14,0,0,1,.18-.05.13.13,0,0,1,0,.18,2,2,0,0,0-.14.29A.14.14,0,0,1,13.31,15.32Z"/><ellipse class="cls-1" cx="15.61" cy="13.68" rx="0.17" ry="0.27"/><ellipse class="cls-1" cx="9.55" cy="8.15" rx="0.16" ry="0.27"/><path class="cls-1" d="M10.56,7.47s0,.42,0,.71.06.41.27.19.46-.4.61-.22a.89.89,0,0,1,0,.81c-.12.17.28-.16.28-.22a5.32,5.32,0,0,0,0-.8,3.73,3.73,0,0,0-.17-.39Z"/></svg>