<svg id="Layer_1" data-name="Layer 1" xmlns="http://www.w3.org/2000/svg" viewBox="0 0 16 16"><defs><style>.cls-1{fill:#fff;}</style></defs><path class="cls-1" d="M6.15,8h0a.08.08,0,0,1,0-.09,2.91,2.91,0,0,0,.06-2.31A1,1,0,0,0,5.65,5a1,1,0,0,0-.38.21,1.62,1.62,0,0,0-.55,1s0,.06-.07,0-.06,0-.05-.07a1.77,1.77,0,0,1,.59-1.09,1.19,1.19,0,0,1,.45-.23h0a1,1,0,0,1,.6.66A3.09,3.09,0,0,1,6.2,8,.05.05,0,0,1,6.15,8Z"/><path class="cls-1" d="M5.65,5a.06.06,0,0,1-.06,0l-.11-.32a.07.07,0,0,1,0-.08c.18-.09.37-.26.24-.71L4.18,3.64s-.06,0-.06-.07,0-.06.07,0l1.61.21a.07.07,0,0,1,.06,0,.68.68,0,0,1-.24.88l.09.27a.06.06,0,0,1,0,.08Z"/><path class="cls-1" d="M5.1,5.35,5,5.32A1.27,1.27,0,0,1,5,5a.44.44,0,0,1-.34-.13.54.54,0,0,1-.16-.28A.61.61,0,0,1,4,4.5.18.18,0,0,1,4,4.34c0-.23.36-.36.48-.4s.14-.7.51-.81a.83.83,0,0,1,.78.17.49.49,0,0,1,.11.51.07.07,0,1,1-.13,0,.36.36,0,0,0-.07-.39A.72.72,0,0,0,5,3.25c-.34.1-.41.74-.42.75a.07.07,0,0,1,0,.06c-.12,0-.41.14-.43.3a0,0,0,0,0,0,0c.07.07.28.07.39.06l0,0a0,0,0,0,1,0,0,.42.42,0,0,0,.12.26A.41.41,0,0,0,5,4.88a.06.06,0,0,1,.06.06,1.1,1.1,0,0,0,.07.31.07.07,0,0,1,0,.09Z"/><path class="cls-1" d="M5,7H4.88a5.57,5.57,0,0,1-.94-.13.06.06,0,0,1,0-.06l0-.58A.06.06,0,0,1,4,6.12l1,0a3.36,3.36,0,0,0,.43-.52.06.06,0,0,1,.09,0,.07.07,0,0,1,0,.09A4.65,4.65,0,0,1,5,6.28H5l-.91,0,0,.46a5.74,5.74,0,0,0,.86.12H5c.27,0,.44,0,.94-.8A.08.08,0,0,1,6,6a.07.07,0,0,1,0,.09C5.51,6.89,5.3,7,5,7Z"/><path class="cls-1" d="M3.3,6.79h0c-.11,0-.16-.18-.19-.26A.25.25,0,0,1,3,6.28a.45.45,0,0,1,.47-.34.78.78,0,0,1,.59.2.06.06,0,1,1-.1.08.65.65,0,0,0-.49-.15.32.32,0,0,0-.34.23.1.1,0,0,0,0,.12.07.07,0,0,1,0,0,.36.36,0,0,0,.1.2.09.09,0,0,0,.07-.06.06.06,0,0,1,.09,0,.05.05,0,0,1,0,.08A.19.19,0,0,1,3.3,6.79Z"/><path class="cls-1" d="M3.51,6.92h0q-.12,0-.18-.18a.06.06,0,0,1,0-.08.07.07,0,0,1,.09,0s.05.09.07.09a.19.19,0,0,0,.11-.09.09.09,0,0,1,.06,0L4,6.7s.06,0,.06.07A.06.06,0,0,1,4,6.82l-.24,0A.28.28,0,0,1,3.51,6.92Z"/><path class="cls-1" d="M.07,7.54h0a.07.07,0,0,1,0-.13,6.1,6.1,0,0,0,1.12-.2A9.3,9.3,0,0,0,3.1,6.43l.15-.1a.07.07,0,1,1,.07.11l-.16.1h0a9.64,9.64,0,0,1-1.94.8A6.25,6.25,0,0,1,.07,7.54Z"/><path class="cls-1" d="M3.07,6.27a0,0,0,0,1,0,0A3.87,3.87,0,0,0,.85,5.18a.06.06,0,0,1,0-.12,3.42,3.42,0,0,1,.79.19,3.65,3.65,0,0,1,1.46.92.07.07,0,0,1,0,.09Z"/><path class="cls-1" d="M4.53,7.2h0a.06.06,0,0,1,0-.08l0-.26s0-.06.07-.06a.07.07,0,0,1,0,.08l0,.26A.06.06,0,0,1,4.53,7.2Z"/><path class="cls-1" d="M3,8H3a.09.09,0,0,1,0-.08c.14-.53.21-.83.85-.85a6.51,6.51,0,0,1,1.36.14s.05,0,.05.07a.06.06,0,0,1-.08,0,7.08,7.08,0,0,0-1.32-.13c-.55,0-.6.22-.73.75A.06.06,0,0,1,3,8Z"/><path class="cls-1" d="M6.9,11h0a.07.07,0,0,1,0-.08L7.4,8H1.52l.68,2.8H3a.06.06,0,0,1,.06.06.05.05,0,0,1-.06.06H2.15s-.06,0-.06,0L1.38,8a.07.07,0,0,1,0-.06l.05,0h6l0,0a.13.13,0,0,1,0,.06l-.57,3A.07.07,0,0,1,6.9,11Z"/><path class="cls-1" d="M5,12.9a2,2,0,1,1,2-2A2,2,0,0,1,5,12.9ZM5,9.09a1.85,1.85,0,1,0,1.84,1.84A1.85,1.85,0,0,0,5,9.09Z"/><path class="cls-1" d="M5,12.44a1.51,1.51,0,1,1,0-3,1.51,1.51,0,0,1,0,3ZM5,9.56a1.38,1.38,0,1,0,1.37,1.37A1.37,1.37,0,0,0,5,9.56Z"/><path class="cls-1" d="M5,10.6a.07.07,0,0,1-.07-.07v-1A.07.07,0,0,1,5,9.43a.06.06,0,0,1,.06.06v1A.07.07,0,0,1,5,10.6Z"/><path class="cls-1" d="M5,12.44a.07.07,0,0,1-.07-.07v-1A.07.07,0,0,1,5,11.27a.06.06,0,0,1,.06.06v1A.07.07,0,0,1,5,12.44Z"/><path class="cls-1" d="M6,12l0,0-.74-.74a.06.06,0,0,1,.09-.09l.74.74a.07.07,0,0,1,0,.09Z"/><path class="cls-1" d="M4.7,10.73l0,0L3.92,10A.06.06,0,0,1,4,9.88l.74.74a.07.07,0,0,1,0,.09Z"/><path class="cls-1" d="M5,11.4a.48.48,0,0,1-.47-.47s0,0,0-.08a.51.51,0,0,1,.12-.23A.47.47,0,0,1,5,10.47a.43.43,0,0,1,.32.14.38.38,0,0,1,.13.24.22.22,0,0,1,0,.08.47.47,0,0,1-.15.34A.48.48,0,0,1,5,11.4Zm0-.8a.33.33,0,0,0-.25.11.3.3,0,0,0-.08.16.13.13,0,0,0,0,.06.34.34,0,0,0,.34.34.31.31,0,0,0,.22-.09.33.33,0,0,0,.11-.25v-.06a.37.37,0,0,0-.1-.17A.29.29,0,0,0,5,10.6Z"/><path class="cls-1" d="M4,12l-.05,0a.07.07,0,0,1,0-.09l.75-.75a.06.06,0,0,1,.09,0,.08.08,0,0,1,0,.09L4,12Z"/><path class="cls-1" d="M5.28,10.71h0a.07.07,0,0,1,0-.09L6,9.88a.06.06,0,0,1,.09.09l-.73.73Z"/><path class="cls-1" d="M4.6,10.92h-1s-.07,0-.07-.06a.07.07,0,0,1,.07-.06h1a.07.07,0,0,1,.07.06S4.64,10.92,4.6,10.92Z"/><path class="cls-1" d="M6.43,10.92h-1a.05.05,0,0,1-.06-.06.06.06,0,0,1,.06-.06h1a.07.07,0,0,1,.07.06S6.47,10.92,6.43,10.92Z"/><path class="cls-1" d="M7.32,8.61H1.59a.07.07,0,0,1-.07-.06.07.07,0,0,1,.07-.07H7.32a.07.07,0,0,1,.07.07A.07.07,0,0,1,7.32,8.61Z"/><path class="cls-1" d="M12.41,12.81H2.51a.07.07,0,0,1-.07-.07.07.07,0,0,1,.07-.06h9.9a.06.06,0,0,1,.06.06A.07.07,0,0,1,12.41,12.81Z"/><path class="cls-1" d="M4.57,8h0a2.75,2.75,0,0,1-.62-.14v0A.07.07,0,0,1,3.9,8a.08.08,0,0,1-.08-.05l0-.16a.06.06,0,0,1,0-.07h.07a2.52,2.52,0,0,0,.68.17.07.07,0,0,1,.06.07S4.6,8,4.57,8Z"/><path class="cls-1" d="M14.47,12.82h-.22a.1.1,0,0,1-.05,0,.06.06,0,0,1,0-.06l.33-.54.1-.11c.08-.07.12-.11.06-.31a1.21,1.21,0,0,1,0-.18c-.08-.27-.16-.56-.37-.68a1.57,1.57,0,0,0-.29-.13,2.19,2.19,0,0,1-.93-.58,1.76,1.76,0,0,1-.45-1s0-.06.06-.06a.06.06,0,0,1,.06.06,1.75,1.75,0,0,0,.42,1,2,2,0,0,0,.88.55,2.33,2.33,0,0,1,.31.14c.26.14.34.46.43.76a1.09,1.09,0,0,0,.05.17c.08.26,0,.35-.09.45a.36.36,0,0,0-.08.09c-.08.11-.21.32-.28.44H15s0-.05,0-.16a.72.72,0,0,1,.23-.54,3.15,3.15,0,0,1-.31-1c0-.48-.06-.52-.17-.55s-.57-.21-.49-.6l0-.08a1.64,1.64,0,0,0-.25-1.43c-.39-.53-1-.65-1.87-.37A1.86,1.86,0,0,1,11,7.9a3.07,3.07,0,0,1-1.11-.79,3.52,3.52,0,0,0-1.29-.93.08.08,0,0,1,0-.07,1.07,1.07,0,0,0-.29-.58,1,1,0,0,0,0,.61s0,0,0,.05l0,0a1.27,1.27,0,0,0-.37.22,2.44,2.44,0,0,1-.43.28c-.25.13-.77.38-.9.64a.94.94,0,0,0,0,.56A.07.07,0,0,1,6.4,8a.08.08,0,0,1-.08,0,1,1,0,0,1,0-.64,2,2,0,0,1,1-.7,3,3,0,0,0,.42-.27,1.49,1.49,0,0,1,.35-.23,1.06,1.06,0,0,1,.09-.73.05.05,0,0,1,.05,0,.07.07,0,0,1,.06,0,1.5,1.5,0,0,1,.38.7A3.88,3.88,0,0,1,10,7a2.18,2.18,0,0,0,2.17.83,2.43,2.43,0,0,1,1.1-.12,1.36,1.36,0,0,1,.92.54,1.75,1.75,0,0,1,.26,1.54v.07c-.06.29.38.45.4.46.19.06.21.19.26.66a3.25,3.25,0,0,0,.31.94.06.06,0,0,1,0,.08.67.67,0,0,0-.22.47.39.39,0,0,1-.06.26c-.05.05-.12.05-.22.05h-.4Z"/><path class="cls-1" d="M15.36,9.47h0a.72.72,0,0,1-.62-.69,2.24,2.24,0,0,1,0-.34c0-.37,0-.46-.26-.47a.36.36,0,0,0-.38.23.06.06,0,0,1-.08.05.07.07,0,0,1,0-.08.49.49,0,0,1,.51-.33c.33,0,.35.24.37.6q0,.13,0,.33a.65.65,0,0,0,.28.49l.1.05A1.43,1.43,0,0,1,15.12,9a.06.06,0,0,1,0-.07s.07,0,.08,0a.54.54,0,0,0,.34.24.33.33,0,0,0,.23,0c-.25-.18-.25-.52-.26-.92,0-.14,0-.29,0-.45a.74.74,0,0,0-.41-.62.69.69,0,0,0-.68,0,1.5,1.5,0,0,0-.55.86s0,0-.07,0A.07.07,0,0,1,13.77,8a1.54,1.54,0,0,1,.6-.94.81.81,0,0,1,.81,0,.87.87,0,0,1,.48.72c0,.16,0,.32,0,.46,0,.43,0,.74.29.87a.07.07,0,0,1,0,.05.07.07,0,0,1,0,.06.58.58,0,0,1-.42.1.51.51,0,0,1-.22-.09s.05.1.08.14a0,0,0,0,1,0,.07A.05.05,0,0,1,15.36,9.47Z"/><path class="cls-1" d="M11.93,12.82c-.09,0-.16,0-.2-.07a.2.2,0,0,1,0-.17,1.6,1.6,0,0,1,.53-.56h0l.08-.06c.06,0,.08-.05.18-.22l.11-.15a2.67,2.67,0,0,0,.57-1.3.06.06,0,1,1,.12,0,2.79,2.79,0,0,1-.58,1.35l-.11.15c-.11.18-.14.21-.22.26l-.07,0h0a1.58,1.58,0,0,0-.48.51.18.18,0,0,0,0,0,.76.76,0,0,0,.23,0,1.17,1.17,0,0,1,.27,0c.21,0,.22,0,.24-.21l0-.13a.3.3,0,0,1,.3-.23,2.91,2.91,0,0,1,.64-1l.13-.16a.82.82,0,0,0-.09-.36.07.07,0,0,1,0-.08.06.06,0,0,1,.08,0c0,.08.14.35.08.47a.76.76,0,0,1-.14.18,2.73,2.73,0,0,0-.63,1,.05.05,0,0,1,0,0h0a.18.18,0,0,0-.22.13s0,.08,0,.12-.06.33-.38.32h-.4Z"/><path class="cls-1" d="M11.26,10.42a2.81,2.81,0,0,1-.94-.16.05.05,0,0,1,0-.08.06.06,0,0,1,.08,0,2.84,2.84,0,0,0,2.5-.34.07.07,0,0,1,.09,0,.08.08,0,0,1,0,.09,3.29,3.29,0,0,1-1.31.49Z"/><path class="cls-1" d="M8.55,12.81H7.79a.07.07,0,0,1-.06-.1,1.48,1.48,0,0,1,.45-.57L8.35,12c.11-.06.13-.08.24-.26l.06-.1a8.7,8.7,0,0,0,.62-1.23l.41-1a.06.06,0,0,1,.08,0,.07.07,0,0,1,0,.08s-.09.21-.41,1a8.15,8.15,0,0,1-.63,1.24l-.06.11a.63.63,0,0,1-.28.3.77.77,0,0,0-.17.11,1.27,1.27,0,0,0-.36.43H8.5a.7.7,0,0,1,.25-.44.31.31,0,0,1,.18-.06,2.22,2.22,0,0,1,.33-.69c.29-.44,1.2-1.61,1.21-1.62a.06.06,0,0,1,.09,0,.05.05,0,0,1,0,.08s-.92,1.18-1.21,1.62a1.82,1.82,0,0,0-.31.69.05.05,0,0,1,0,0l-.06,0s-.07,0-.15,0a.58.58,0,0,0-.2.4A.09.09,0,0,1,8.55,12.81Z"/><path class="cls-1" d="M10.12,12.82a.07.07,0,0,1,0,0s-.08-.18.24-.49.29-.34.21-.57S10,10.49,10,10.48a.07.07,0,0,1,0-.08.06.06,0,0,1,.08,0s.39,1,.49,1.24.07.39-.24.7a.86.86,0,0,0-.22.31h.52a.21.21,0,0,0,.12,0,.28.28,0,0,0,0-.15.51.51,0,0,1,.2-.5s0,0,0-.12a1.55,1.55,0,0,1-.15-.35c-.1-.38-.2-1.17-.21-1.21a.07.07,0,0,1,.06-.07.07.07,0,0,1,.07.06,11.8,11.8,0,0,0,.2,1.19,1.24,1.24,0,0,0,.14.32c0,.1.11.2,0,.29a.37.37,0,0,0-.15.38.3.3,0,0,1-.07.24.26.26,0,0,1-.21.09Z"/><path class="cls-1" d="M9.4,10.31H7A.07.07,0,0,1,7,10.24.07.07,0,0,1,7,10.18H9.4a.06.06,0,0,1,.06.06A.07.07,0,0,1,9.4,10.31Z"/><path class="cls-1" d="M9.6,9.87H7.12s-.07,0-.07-.06,0-.06.07-.06H9.51c-.1-.28-.4-1.13-.56-1.48a1.88,1.88,0,0,0-.42-.62.07.07,0,0,1,0-.09.06.06,0,0,1,.09,0,2.09,2.09,0,0,1,.44.66c.19.43.58,1.53.6,1.58a0,0,0,0,1,0,.06Z"/><path class="cls-1" d="M7.39,8h0s0,0,0,0-.19-.75-.63-.86a.08.08,0,0,1,0-.08.07.07,0,0,1,.08,0c.39.09.6.57.68.81A.65.65,0,0,1,8,7.64a.76.76,0,0,0,.4,0c.29-.13.24-.68.24-.68s0-.07.06-.07.06,0,.07,0,.05.65-.32.81a.79.79,0,0,1-.46,0c-.24,0-.45,0-.56.19A.08.08,0,0,1,7.39,8Z"/><path class="cls-1" d="M9.38,9.25a.07.07,0,0,1-.06,0,.07.07,0,0,1,0-.09,5.11,5.11,0,0,0,1-.7c.36-.37.49-.69.4-.78a.12.12,0,0,0-.08,0,.09.09,0,0,0,0,0,2.09,2.09,0,0,1-2,1.16,1.68,1.68,0,0,1-1.21-.61s0-.06,0-.09.06,0,.09,0h0a1.63,1.63,0,0,0,1.12.56,2,2,0,0,0,1.85-1.1h0a.18.18,0,0,1,.14-.09.24.24,0,0,1,.18.08c.17.16,0,.54-.39,1a5.61,5.61,0,0,1-1,.73Z"/><path class="cls-1" d="M8,6.65H8l-.11-.08A.06.06,0,1,1,8,6.46l.1.08a.07.07,0,0,1,0,.09Z"/><path class="cls-1" d="M8.57,6a.62.62,0,0,1,.7-.09L9.05,6a1.22,1.22,0,0,1,.83.27.92.92,0,0,0-.39.08s.59.08.77.38a.81.81,0,0,0-.29,0,1.43,1.43,0,0,1,.64.46,1.73,1.73,0,0,0-.41,0c-.15,0-.26-.16-.34-.23A3.74,3.74,0,0,0,9,6.28C8.67,6.16,8.58,6.15,8.57,6Z"/><path class="cls-1" d="M12.87,9.84l-.55.3s.39.62.8.75l.13-.57Z"/><path class="cls-1" d="M12,12.29a1,1,0,0,1,.67.23.24.24,0,0,1-.18.2,1.77,1.77,0,0,1-.49,0c-.12,0-.26,0-.2-.13S12,12.29,12,12.29Z"/><path class="cls-1" d="M10.36,12.31a1.34,1.34,0,0,1,.59.2s0,.2-.17.22a3.39,3.39,0,0,1-.47,0c-.18,0-.21,0-.16-.12A1.38,1.38,0,0,1,10.36,12.31Z"/><path class="cls-1" d="M14.54,12.27a2.83,2.83,0,0,1,.55.21c.06.06.11.26-.23.28a3.75,3.75,0,0,1-.59,0,2.15,2.15,0,0,1,.11-.22Z"/><path class="cls-1" d="M8.6,12.55a1.27,1.27,0,0,0-.52-.23.77.77,0,0,0-.2.27c0,.12,0,.15.19.15a3.48,3.48,0,0,0,.42,0l.08,0Z"/><circle class="cls-1" cx="4.99" cy="10.92" r="0.15"/><path class="cls-1" d="M6.65,7.66h0a.08.08,0,0,1,0-.09,1.12,1.12,0,0,1,.09-.17.05.05,0,0,1,.08,0,.08.08,0,0,1,0,.09.47.47,0,0,0-.08.15A.07.07,0,0,1,6.65,7.66Z"/><ellipse class="cls-1" cx="7.8" cy="6.84" rx="0.08" ry="0.14"/><ellipse class="cls-1" cx="4.77" cy="4.08" rx="0.08" ry="0.13"/><path class="cls-1" d="M5.28,3.74s0,.21,0,.35,0,.2.13.09.24-.2.31-.1a.44.44,0,0,1,0,.4c-.06.09.14-.08.14-.11a2.66,2.66,0,0,0,0-.4c0-.06-.08-.19-.08-.19Z"/></svg>