<?xml version="1.0" encoding="utf-8" standalone="no"?>
<!DOCTYPE svg PUBLIC "-//W3C//DTD SVG 1.1//EN"
  "http://www.w3.org/Graphics/SVG/1.1/DTD/svg11.dtd">
<svg xmlns:xlink="http://www.w3.org/1999/xlink" width="610.539269pt" height="372.085648pt" viewBox="0 0 610.539269 372.085648" xmlns="http://www.w3.org/2000/svg" version="1.1">
 <metadata>
  <rdf:RDF xmlns:dc="http://purl.org/dc/elements/1.1/" xmlns:cc="http://creativecommons.org/ns#" xmlns:rdf="http://www.w3.org/1999/02/22-rdf-syntax-ns#">
   <cc:Work>
    <dc:type rdf:resource="http://purl.org/dc/dcmitype/StillImage"/>
    <dc:date>2025-09-30T21:03:22.673426</dc:date>
    <dc:format>image/svg+xml</dc:format>
    <dc:creator>
     <cc:Agent>
      <dc:title>Matplotlib v3.6.3, https://matplotlib.org/</dc:title>
     </cc:Agent>
    </dc:creator>
   </cc:Work>
  </rdf:RDF>
 </metadata>
 <defs>
  <style type="text/css">*{stroke-linejoin: round; stroke-linecap: butt}</style>
 </defs>
 <g id="figure_1">
  <g id="patch_1">
   <path d="M 0 372.085648 
L 610.539269 372.085648 
L 610.539269 0 
L 0 0 
z
" style="fill: #ffffff"/>
  </g>
  <g id="axes_1">
   <g id="patch_2">
    <path d="M 312.64307 39.494525 
C 280.510174 39.494525 249.188219 49.671645 223.19216 68.558888 
C 197.196102 87.44613 177.838069 114.090177 167.908459 144.650377 
L 312.64307 191.6775 
L 312.64307 39.494525 
z
" style="fill: #e69f00"/>
   </g>
   <g id="patch_3">
    <path d="M 167.908459 144.650377 
C 157.978848 175.210577 157.978849 208.14443 167.908461 238.70463 
C 177.838073 269.264829 197.196107 295.908875 223.192166 314.796116 
L 312.64307 191.6775 
L 167.908459 144.650377 
z
" style="fill: #56b4e9"/>
   </g>
   <g id="patch_4">
    <path d="M 223.192166 314.796116 
C 249.188225 333.683358 280.510181 343.860477 312.643077 343.860475 
C 344.775972 343.860474 376.097928 333.683352 402.093985 314.796108 
L 312.64307 191.6775 
L 223.192166 314.796116 
z
" style="fill: #009e73"/>
   </g>
   <g id="patch_5">
    <path d="M 402.093985 314.796108 
C 428.090043 295.908865 447.448074 269.264816 457.377683 238.704616 
C 467.307292 208.144416 467.30729 175.210563 457.377676 144.650364 
L 312.64307 191.6775 
L 402.093985 314.796108 
z
" style="fill: #f0e442"/>
   </g>
   <g id="patch_6">
    <path d="M 457.377676 144.650364 
C 447.448063 114.090165 428.090028 87.446119 402.093968 68.558879 
C 376.097908 49.671639 344.775951 39.494522 312.643055 39.494525 
L 312.64307 191.6775 
L 457.377676 144.650364 
z
" style="fill: #0072b2"/>
   </g>
   <g id="matplotlib.axis_1"/>
   <g id="matplotlib.axis_2"/>
   <g id="text_1">
    <!-- Liquidity (LP) -->
    <g style="fill: #333333" transform="translate(135.812069 59.558276) scale(0.12 -0.12)">
     <defs>
      <path id="DejaVuSans-4c" d="M 628 4666 
L 1259 4666 
L 1259 531 
L 3531 531 
L 3531 0 
L 628 0 
L 628 4666 
z
" transform="scale(0.015625)"/>
      <path id="DejaVuSans-69" d="M 603 3500 
L 1178 3500 
L 1178 0 
L 603 0 
L 603 3500 
z
M 603 4863 
L 1178 4863 
L 1178 4134 
L 603 4134 
L 603 4863 
z
" transform="scale(0.015625)"/>
      <path id="DejaVuSans-71" d="M 947 1747 
Q 947 1113 1208 752 
Q 1469 391 1925 391 
Q 2381 391 2643 752 
Q 2906 1113 2906 1747 
Q 2906 2381 2643 2742 
Q 2381 3103 1925 3103 
Q 1469 3103 1208 2742 
Q 947 2381 947 1747 
z
M 2906 525 
Q 2725 213 2448 61 
Q 2172 -91 1784 -91 
Q 1150 -91 751 415 
Q 353 922 353 1747 
Q 353 2572 751 3078 
Q 1150 3584 1784 3584 
Q 2172 3584 2448 3432 
Q 2725 3281 2906 2969 
L 2906 3500 
L 3481 3500 
L 3481 -1331 
L 2906 -1331 
L 2906 525 
z
" transform="scale(0.015625)"/>
      <path id="DejaVuSans-75" d="M 544 1381 
L 544 3500 
L 1119 3500 
L 1119 1403 
Q 1119 906 1312 657 
Q 1506 409 1894 409 
Q 2359 409 2629 706 
Q 2900 1003 2900 1516 
L 2900 3500 
L 3475 3500 
L 3475 0 
L 2900 0 
L 2900 538 
Q 2691 219 2414 64 
Q 2138 -91 1772 -91 
Q 1169 -91 856 284 
Q 544 659 544 1381 
z
M 1991 3584 
L 1991 3584 
z
" transform="scale(0.015625)"/>
      <path id="DejaVuSans-64" d="M 2906 2969 
L 2906 4863 
L 3481 4863 
L 3481 0 
L 2906 0 
L 2906 525 
Q 2725 213 2448 61 
Q 2172 -91 1784 -91 
Q 1150 -91 751 415 
Q 353 922 353 1747 
Q 353 2572 751 3078 
Q 1150 3584 1784 3584 
Q 2172 3584 2448 3432 
Q 2725 3281 2906 2969 
z
M 947 1747 
Q 947 1113 1208 752 
Q 1469 391 1925 391 
Q 2381 391 2643 752 
Q 2906 1113 2906 1747 
Q 2906 2381 2643 2742 
Q 2381 3103 1925 3103 
Q 1469 3103 1208 2742 
Q 947 2381 947 1747 
z
" transform="scale(0.015625)"/>
      <path id="DejaVuSans-74" d="M 1172 4494 
L 1172 3500 
L 2356 3500 
L 2356 3053 
L 1172 3053 
L 1172 1153 
Q 1172 725 1289 603 
Q 1406 481 1766 481 
L 2356 481 
L 2356 0 
L 1766 0 
Q 1100 0 847 248 
Q 594 497 594 1153 
L 594 3053 
L 172 3053 
L 172 3500 
L 594 3500 
L 594 4494 
L 1172 4494 
z
" transform="scale(0.015625)"/>
      <path id="DejaVuSans-79" d="M 2059 -325 
Q 1816 -950 1584 -1140 
Q 1353 -1331 966 -1331 
L 506 -1331 
L 506 -850 
L 844 -850 
Q 1081 -850 1212 -737 
Q 1344 -625 1503 -206 
L 1606 56 
L 191 3500 
L 800 3500 
L 1894 763 
L 2988 3500 
L 3597 3500 
L 2059 -325 
z
" transform="scale(0.015625)"/>
      <path id="DejaVuSans-20" transform="scale(0.015625)"/>
      <path id="DejaVuSans-28" d="M 1984 4856 
Q 1566 4138 1362 3434 
Q 1159 2731 1159 2009 
Q 1159 1288 1364 580 
Q 1569 -128 1984 -844 
L 1484 -844 
Q 1016 -109 783 600 
Q 550 1309 550 2009 
Q 550 2706 781 3412 
Q 1013 4119 1484 4856 
L 1984 4856 
z
" transform="scale(0.015625)"/>
      <path id="DejaVuSans-50" d="M 1259 4147 
L 1259 2394 
L 2053 2394 
Q 2494 2394 2734 2622 
Q 2975 2850 2975 3272 
Q 2975 3691 2734 3919 
Q 2494 4147 2053 4147 
L 1259 4147 
z
M 628 4666 
L 2053 4666 
Q 2838 4666 3239 4311 
Q 3641 3956 3641 3272 
Q 3641 2581 3239 2228 
Q 2838 1875 2053 1875 
L 1259 1875 
L 1259 0 
L 628 0 
L 628 4666 
z
" transform="scale(0.015625)"/>
      <path id="DejaVuSans-29" d="M 513 4856 
L 1013 4856 
Q 1481 4119 1714 3412 
Q 1947 2706 1947 2009 
Q 1947 1309 1714 600 
Q 1481 -109 1013 -844 
L 513 -844 
Q 928 -128 1133 580 
Q 1338 1288 1338 2009 
Q 1338 2731 1133 3434 
Q 928 4138 513 4856 
z
" transform="scale(0.015625)"/>
     </defs>
     <use xlink:href="#DejaVuSans-4c"/>
     <use xlink:href="#DejaVuSans-69" x="55.712891"/>
     <use xlink:href="#DejaVuSans-71" x="83.496094"/>
     <use xlink:href="#DejaVuSans-75" x="146.972656"/>
     <use xlink:href="#DejaVuSans-69" x="210.351562"/>
     <use xlink:href="#DejaVuSans-64" x="238.134766"/>
     <use xlink:href="#DejaVuSans-69" x="301.611328"/>
     <use xlink:href="#DejaVuSans-74" x="329.394531"/>
     <use xlink:href="#DejaVuSans-79" x="368.603516"/>
     <use xlink:href="#DejaVuSans-20" x="427.783203"/>
     <use xlink:href="#DejaVuSans-28" x="459.570312"/>
     <use xlink:href="#DejaVuSans-4c" x="498.583984"/>
     <use xlink:href="#DejaVuSans-50" x="554.296875"/>
     <use xlink:href="#DejaVuSans-29" x="614.599609"/>
    </g>
   </g>
   <g id="text_2">
    <!-- 20% -->
    <g style="fill: #333333" transform="translate(229.969061 95.941985) scale(0.1 -0.1)">
     <defs>
      <path id="DejaVuSans-32" d="M 1228 531 
L 3431 531 
L 3431 0 
L 469 0 
L 469 531 
Q 828 903 1448 1529 
Q 2069 2156 2228 2338 
Q 2531 2678 2651 2914 
Q 2772 3150 2772 3378 
Q 2772 3750 2511 3984 
Q 2250 4219 1831 4219 
Q 1534 4219 1204 4116 
Q 875 4013 500 3803 
L 500 4441 
Q 881 4594 1212 4672 
Q 1544 4750 1819 4750 
Q 2544 4750 2975 4387 
Q 3406 4025 3406 3419 
Q 3406 3131 3298 2873 
Q 3191 2616 2906 2266 
Q 2828 2175 2409 1742 
Q 1991 1309 1228 531 
z
" transform="scale(0.015625)"/>
      <path id="DejaVuSans-30" d="M 2034 4250 
Q 1547 4250 1301 3770 
Q 1056 3291 1056 2328 
Q 1056 1369 1301 889 
Q 1547 409 2034 409 
Q 2525 409 2770 889 
Q 3016 1369 3016 2328 
Q 3016 3291 2770 3770 
Q 2525 4250 2034 4250 
z
M 2034 4750 
Q 2819 4750 3233 4129 
Q 3647 3509 3647 2328 
Q 3647 1150 3233 529 
Q 2819 -91 2034 -91 
Q 1250 -91 836 529 
Q 422 1150 422 2328 
Q 422 3509 836 4129 
Q 1250 4750 2034 4750 
z
" transform="scale(0.015625)"/>
      <path id="DejaVuSans-25" d="M 4653 2053 
Q 4381 2053 4226 1822 
Q 4072 1591 4072 1178 
Q 4072 772 4226 539 
Q 4381 306 4653 306 
Q 4919 306 5073 539 
Q 5228 772 5228 1178 
Q 5228 1588 5073 1820 
Q 4919 2053 4653 2053 
z
M 4653 2450 
Q 5147 2450 5437 2106 
Q 5728 1763 5728 1178 
Q 5728 594 5436 251 
Q 5144 -91 4653 -91 
Q 4153 -91 3862 251 
Q 3572 594 3572 1178 
Q 3572 1766 3864 2108 
Q 4156 2450 4653 2450 
z
M 1428 4353 
Q 1159 4353 1004 4120 
Q 850 3888 850 3481 
Q 850 3069 1003 2837 
Q 1156 2606 1428 2606 
Q 1700 2606 1854 2837 
Q 2009 3069 2009 3481 
Q 2009 3884 1853 4118 
Q 1697 4353 1428 4353 
z
M 4250 4750 
L 4750 4750 
L 1831 -91 
L 1331 -91 
L 4250 4750 
z
M 1428 4750 
Q 1922 4750 2215 4408 
Q 2509 4066 2509 3481 
Q 2509 2891 2217 2550 
Q 1925 2209 1428 2209 
Q 931 2209 642 2551 
Q 353 2894 353 3481 
Q 353 4063 643 4406 
Q 934 4750 1428 4750 
z
" transform="scale(0.015625)"/>
     </defs>
     <use xlink:href="#DejaVuSans-32"/>
     <use xlink:href="#DejaVuSans-30" x="63.623047"/>
     <use xlink:href="#DejaVuSans-25" x="127.246094"/>
    </g>
   </g>
   <g id="text_3">
    <!-- Community &amp; Marketing -->
    <g style="fill: #333333" transform="translate(7.2 246.718593) scale(0.12 -0.12)">
     <defs>
      <path id="DejaVuSans-43" d="M 4122 4306 
L 4122 3641 
Q 3803 3938 3442 4084 
Q 3081 4231 2675 4231 
Q 1875 4231 1450 3742 
Q 1025 3253 1025 2328 
Q 1025 1406 1450 917 
Q 1875 428 2675 428 
Q 3081 428 3442 575 
Q 3803 722 4122 1019 
L 4122 359 
Q 3791 134 3420 21 
Q 3050 -91 2638 -91 
Q 1578 -91 968 557 
Q 359 1206 359 2328 
Q 359 3453 968 4101 
Q 1578 4750 2638 4750 
Q 3056 4750 3426 4639 
Q 3797 4528 4122 4306 
z
" transform="scale(0.015625)"/>
      <path id="DejaVuSans-6f" d="M 1959 3097 
Q 1497 3097 1228 2736 
Q 959 2375 959 1747 
Q 959 1119 1226 758 
Q 1494 397 1959 397 
Q 2419 397 2687 759 
Q 2956 1122 2956 1747 
Q 2956 2369 2687 2733 
Q 2419 3097 1959 3097 
z
M 1959 3584 
Q 2709 3584 3137 3096 
Q 3566 2609 3566 1747 
Q 3566 888 3137 398 
Q 2709 -91 1959 -91 
Q 1206 -91 779 398 
Q 353 888 353 1747 
Q 353 2609 779 3096 
Q 1206 3584 1959 3584 
z
" transform="scale(0.015625)"/>
      <path id="DejaVuSans-6d" d="M 3328 2828 
Q 3544 3216 3844 3400 
Q 4144 3584 4550 3584 
Q 5097 3584 5394 3201 
Q 5691 2819 5691 2113 
L 5691 0 
L 5113 0 
L 5113 2094 
Q 5113 2597 4934 2840 
Q 4756 3084 4391 3084 
Q 3944 3084 3684 2787 
Q 3425 2491 3425 1978 
L 3425 0 
L 2847 0 
L 2847 2094 
Q 2847 2600 2669 2842 
Q 2491 3084 2119 3084 
Q 1678 3084 1418 2786 
Q 1159 2488 1159 1978 
L 1159 0 
L 581 0 
L 581 3500 
L 1159 3500 
L 1159 2956 
Q 1356 3278 1631 3431 
Q 1906 3584 2284 3584 
Q 2666 3584 2933 3390 
Q 3200 3197 3328 2828 
z
" transform="scale(0.015625)"/>
      <path id="DejaVuSans-6e" d="M 3513 2113 
L 3513 0 
L 2938 0 
L 2938 2094 
Q 2938 2591 2744 2837 
Q 2550 3084 2163 3084 
Q 1697 3084 1428 2787 
Q 1159 2491 1159 1978 
L 1159 0 
L 581 0 
L 581 3500 
L 1159 3500 
L 1159 2956 
Q 1366 3272 1645 3428 
Q 1925 3584 2291 3584 
Q 2894 3584 3203 3211 
Q 3513 2838 3513 2113 
z
" transform="scale(0.015625)"/>
      <path id="DejaVuSans-26" d="M 1556 2509 
Q 1272 2256 1139 2004 
Q 1006 1753 1006 1478 
Q 1006 1022 1337 719 
Q 1669 416 2169 416 
Q 2466 416 2725 514 
Q 2984 613 3213 813 
L 1556 2509 
z
M 1997 2859 
L 3584 1234 
Q 3769 1513 3872 1830 
Q 3975 2147 3994 2503 
L 4575 2503 
Q 4538 2091 4375 1687 
Q 4213 1284 3922 891 
L 4794 0 
L 4006 0 
L 3559 459 
Q 3234 181 2878 45 
Q 2522 -91 2113 -91 
Q 1359 -91 881 339 
Q 403 769 403 1441 
Q 403 1841 612 2192 
Q 822 2544 1241 2853 
Q 1091 3050 1012 3245 
Q 934 3441 934 3628 
Q 934 4134 1281 4442 
Q 1628 4750 2203 4750 
Q 2463 4750 2720 4694 
Q 2978 4638 3244 4525 
L 3244 3956 
Q 2972 4103 2725 4179 
Q 2478 4256 2266 4256 
Q 1938 4256 1733 4082 
Q 1528 3909 1528 3634 
Q 1528 3475 1620 3314 
Q 1713 3153 1997 2859 
z
" transform="scale(0.015625)"/>
      <path id="DejaVuSans-4d" d="M 628 4666 
L 1569 4666 
L 2759 1491 
L 3956 4666 
L 4897 4666 
L 4897 0 
L 4281 0 
L 4281 4097 
L 3078 897 
L 2444 897 
L 1241 4097 
L 1241 0 
L 628 0 
L 628 4666 
z
" transform="scale(0.015625)"/>
      <path id="DejaVuSans-61" d="M 2194 1759 
Q 1497 1759 1228 1600 
Q 959 1441 959 1056 
Q 959 750 1161 570 
Q 1363 391 1709 391 
Q 2188 391 2477 730 
Q 2766 1069 2766 1631 
L 2766 1759 
L 2194 1759 
z
M 3341 1997 
L 3341 0 
L 2766 0 
L 2766 531 
Q 2569 213 2275 61 
Q 1981 -91 1556 -91 
Q 1019 -91 701 211 
Q 384 513 384 1019 
Q 384 1609 779 1909 
Q 1175 2209 1959 2209 
L 2766 2209 
L 2766 2266 
Q 2766 2663 2505 2880 
Q 2244 3097 1772 3097 
Q 1472 3097 1187 3025 
Q 903 2953 641 2809 
L 641 3341 
Q 956 3463 1253 3523 
Q 1550 3584 1831 3584 
Q 2591 3584 2966 3190 
Q 3341 2797 3341 1997 
z
" transform="scale(0.015625)"/>
      <path id="DejaVuSans-72" d="M 2631 2963 
Q 2534 3019 2420 3045 
Q 2306 3072 2169 3072 
Q 1681 3072 1420 2755 
Q 1159 2438 1159 1844 
L 1159 0 
L 581 0 
L 581 3500 
L 1159 3500 
L 1159 2956 
Q 1341 3275 1631 3429 
Q 1922 3584 2338 3584 
Q 2397 3584 2469 3576 
Q 2541 3569 2628 3553 
L 2631 2963 
z
" transform="scale(0.015625)"/>
      <path id="DejaVuSans-6b" d="M 581 4863 
L 1159 4863 
L 1159 1991 
L 2875 3500 
L 3609 3500 
L 1753 1863 
L 3688 0 
L 2938 0 
L 1159 1709 
L 1159 0 
L 581 0 
L 581 4863 
z
" transform="scale(0.015625)"/>
      <path id="DejaVuSans-65" d="M 3597 1894 
L 3597 1613 
L 953 1613 
Q 991 1019 1311 708 
Q 1631 397 2203 397 
Q 2534 397 2845 478 
Q 3156 559 3463 722 
L 3463 178 
Q 3153 47 2828 -22 
Q 2503 -91 2169 -91 
Q 1331 -91 842 396 
Q 353 884 353 1716 
Q 353 2575 817 3079 
Q 1281 3584 2069 3584 
Q 2775 3584 3186 3129 
Q 3597 2675 3597 1894 
z
M 3022 2063 
Q 3016 2534 2758 2815 
Q 2500 3097 2075 3097 
Q 1594 3097 1305 2825 
Q 1016 2553 972 2059 
L 3022 2063 
z
" transform="scale(0.015625)"/>
      <path id="DejaVuSans-67" d="M 2906 1791 
Q 2906 2416 2648 2759 
Q 2391 3103 1925 3103 
Q 1463 3103 1205 2759 
Q 947 2416 947 1791 
Q 947 1169 1205 825 
Q 1463 481 1925 481 
Q 2391 481 2648 825 
Q 2906 1169 2906 1791 
z
M 3481 434 
Q 3481 -459 3084 -895 
Q 2688 -1331 1869 -1331 
Q 1566 -1331 1297 -1286 
Q 1028 -1241 775 -1147 
L 775 -588 
Q 1028 -725 1275 -790 
Q 1522 -856 1778 -856 
Q 2344 -856 2625 -561 
Q 2906 -266 2906 331 
L 2906 616 
Q 2728 306 2450 153 
Q 2172 0 1784 0 
Q 1141 0 747 490 
Q 353 981 353 1791 
Q 353 2603 747 3093 
Q 1141 3584 1784 3584 
Q 2172 3584 2450 3431 
Q 2728 3278 2906 2969 
L 2906 3500 
L 3481 3500 
L 3481 434 
z
" transform="scale(0.015625)"/>
     </defs>
     <use xlink:href="#DejaVuSans-43"/>
     <use xlink:href="#DejaVuSans-6f" x="69.824219"/>
     <use xlink:href="#DejaVuSans-6d" x="131.005859"/>
     <use xlink:href="#DejaVuSans-6d" x="228.417969"/>
     <use xlink:href="#DejaVuSans-75" x="325.830078"/>
     <use xlink:href="#DejaVuSans-6e" x="389.208984"/>
     <use xlink:href="#DejaVuSans-69" x="452.587891"/>
     <use xlink:href="#DejaVuSans-74" x="480.371094"/>
     <use xlink:href="#DejaVuSans-79" x="519.580078"/>
     <use xlink:href="#DejaVuSans-20" x="578.759766"/>
     <use xlink:href="#DejaVuSans-26" x="610.546875"/>
     <use xlink:href="#DejaVuSans-20" x="688.525391"/>
     <use xlink:href="#DejaVuSans-4d" x="720.3125"/>
     <use xlink:href="#DejaVuSans-61" x="806.591797"/>
     <use xlink:href="#DejaVuSans-72" x="867.871094"/>
     <use xlink:href="#DejaVuSans-6b" x="908.984375"/>
     <use xlink:href="#DejaVuSans-65" x="963.269531"/>
     <use xlink:href="#DejaVuSans-74" x="1024.792969"/>
     <use xlink:href="#DejaVuSans-69" x="1064.001953"/>
     <use xlink:href="#DejaVuSans-6e" x="1091.785156"/>
     <use xlink:href="#DejaVuSans-67" x="1155.164062"/>
    </g>
   </g>
   <g id="text_4">
    <!-- 20% -->
    <g style="fill: #333333" transform="translate(185.742101 232.058579) scale(0.1 -0.1)">
     <use xlink:href="#DejaVuSans-32"/>
     <use xlink:href="#DejaVuSans-30" x="63.623047"/>
     <use xlink:href="#DejaVuSans-25" x="127.246094"/>
    </g>
   </g>
   <g id="text_5">
    <!-- Listings/Market Making -->
    <g style="fill: #333333" transform="translate(312.643078 362.390023) scale(0.12 -0.12)">
     <defs>
      <path id="DejaVuSans-73" d="M 2834 3397 
L 2834 2853 
Q 2591 2978 2328 3040 
Q 2066 3103 1784 3103 
Q 1356 3103 1142 2972 
Q 928 2841 928 2578 
Q 928 2378 1081 2264 
Q 1234 2150 1697 2047 
L 1894 2003 
Q 2506 1872 2764 1633 
Q 3022 1394 3022 966 
Q 3022 478 2636 193 
Q 2250 -91 1575 -91 
Q 1294 -91 989 -36 
Q 684 19 347 128 
L 347 722 
Q 666 556 975 473 
Q 1284 391 1588 391 
Q 1994 391 2212 530 
Q 2431 669 2431 922 
Q 2431 1156 2273 1281 
Q 2116 1406 1581 1522 
L 1381 1569 
Q 847 1681 609 1914 
Q 372 2147 372 2553 
Q 372 3047 722 3315 
Q 1072 3584 1716 3584 
Q 2034 3584 2315 3537 
Q 2597 3491 2834 3397 
z
" transform="scale(0.015625)"/>
      <path id="DejaVuSans-2f" d="M 1625 4666 
L 2156 4666 
L 531 -594 
L 0 -594 
L 1625 4666 
z
" transform="scale(0.015625)"/>
     </defs>
     <use xlink:href="#DejaVuSans-4c"/>
     <use xlink:href="#DejaVuSans-69" x="55.712891"/>
     <use xlink:href="#DejaVuSans-73" x="83.496094"/>
     <use xlink:href="#DejaVuSans-74" x="135.595703"/>
     <use xlink:href="#DejaVuSans-69" x="174.804688"/>
     <use xlink:href="#DejaVuSans-6e" x="202.587891"/>
     <use xlink:href="#DejaVuSans-67" x="265.966797"/>
     <use xlink:href="#DejaVuSans-73" x="329.443359"/>
     <use xlink:href="#DejaVuSans-2f" x="381.542969"/>
     <use xlink:href="#DejaVuSans-4d" x="415.234375"/>
     <use xlink:href="#DejaVuSans-61" x="501.513672"/>
     <use xlink:href="#DejaVuSans-72" x="562.792969"/>
     <use xlink:href="#DejaVuSans-6b" x="603.90625"/>
     <use xlink:href="#DejaVuSans-65" x="658.191406"/>
     <use xlink:href="#DejaVuSans-74" x="719.714844"/>
     <use xlink:href="#DejaVuSans-20" x="758.923828"/>
     <use xlink:href="#DejaVuSans-4d" x="790.710938"/>
     <use xlink:href="#DejaVuSans-61" x="876.990234"/>
     <use xlink:href="#DejaVuSans-6b" x="938.269531"/>
     <use xlink:href="#DejaVuSans-69" x="996.179688"/>
     <use xlink:href="#DejaVuSans-6e" x="1023.962891"/>
     <use xlink:href="#DejaVuSans-67" x="1087.341797"/>
    </g>
   </g>
   <g id="text_6">
    <!-- 20% -->
    <g style="fill: #333333" transform="translate(301.529794 316.183255) scale(0.1 -0.1)">
     <use xlink:href="#DejaVuSans-32"/>
     <use xlink:href="#DejaVuSans-30" x="63.623047"/>
     <use xlink:href="#DejaVuSans-25" x="127.246094"/>
    </g>
   </g>
   <g id="text_7">
    <!-- Team (Locked/Vested) -->
    <g style="fill: #333333" transform="translate(471.851144 246.718578) scale(0.12 -0.12)">
     <defs>
      <path id="DejaVuSans-54" d="M -19 4666 
L 3928 4666 
L 3928 4134 
L 2272 4134 
L 2272 0 
L 1638 0 
L 1638 4134 
L -19 4134 
L -19 4666 
z
" transform="scale(0.015625)"/>
      <path id="DejaVuSans-63" d="M 3122 3366 
L 3122 2828 
Q 2878 2963 2633 3030 
Q 2388 3097 2138 3097 
Q 1578 3097 1268 2742 
Q 959 2388 959 1747 
Q 959 1106 1268 751 
Q 1578 397 2138 397 
Q 2388 397 2633 464 
Q 2878 531 3122 666 
L 3122 134 
Q 2881 22 2623 -34 
Q 2366 -91 2075 -91 
Q 1284 -91 818 406 
Q 353 903 353 1747 
Q 353 2603 823 3093 
Q 1294 3584 2113 3584 
Q 2378 3584 2631 3529 
Q 2884 3475 3122 3366 
z
" transform="scale(0.015625)"/>
      <path id="DejaVuSans-56" d="M 1831 0 
L 50 4666 
L 709 4666 
L 2188 738 
L 3669 4666 
L 4325 4666 
L 2547 0 
L 1831 0 
z
" transform="scale(0.015625)"/>
     </defs>
     <use xlink:href="#DejaVuSans-54"/>
     <use xlink:href="#DejaVuSans-65" x="44.083984"/>
     <use xlink:href="#DejaVuSans-61" x="105.607422"/>
     <use xlink:href="#DejaVuSans-6d" x="166.886719"/>
     <use xlink:href="#DejaVuSans-20" x="264.298828"/>
     <use xlink:href="#DejaVuSans-28" x="296.085938"/>
     <use xlink:href="#DejaVuSans-4c" x="335.099609"/>
     <use xlink:href="#DejaVuSans-6f" x="389.0625"/>
     <use xlink:href="#DejaVuSans-63" x="450.244141"/>
     <use xlink:href="#DejaVuSans-6b" x="505.224609"/>
     <use xlink:href="#DejaVuSans-65" x="559.509766"/>
     <use xlink:href="#DejaVuSans-64" x="621.033203"/>
     <use xlink:href="#DejaVuSans-2f" x="684.509766"/>
     <use xlink:href="#DejaVuSans-56" x="718.201172"/>
     <use xlink:href="#DejaVuSans-65" x="778.859375"/>
     <use xlink:href="#DejaVuSans-73" x="840.382812"/>
     <use xlink:href="#DejaVuSans-74" x="892.482422"/>
     <use xlink:href="#DejaVuSans-65" x="931.691406"/>
     <use xlink:href="#DejaVuSans-64" x="993.214844"/>
     <use xlink:href="#DejaVuSans-29" x="1056.691406"/>
    </g>
   </g>
   <g id="text_8">
    <!-- 20% -->
    <g style="fill: #333333" transform="translate(417.317479 232.058568) scale(0.1 -0.1)">
     <use xlink:href="#DejaVuSans-32"/>
     <use xlink:href="#DejaVuSans-30" x="63.623047"/>
     <use xlink:href="#DejaVuSans-25" x="127.246094"/>
    </g>
   </g>
   <g id="text_9">
    <!-- Treasury/Partnerships -->
    <g style="fill: #333333" transform="translate(411.039058 59.558267) scale(0.12 -0.12)">
     <defs>
      <path id="DejaVuSans-68" d="M 3513 2113 
L 3513 0 
L 2938 0 
L 2938 2094 
Q 2938 2591 2744 2837 
Q 2550 3084 2163 3084 
Q 1697 3084 1428 2787 
Q 1159 2491 1159 1978 
L 1159 0 
L 581 0 
L 581 4863 
L 1159 4863 
L 1159 2956 
Q 1366 3272 1645 3428 
Q 1925 3584 2291 3584 
Q 2894 3584 3203 3211 
Q 3513 2838 3513 2113 
z
" transform="scale(0.015625)"/>
      <path id="DejaVuSans-70" d="M 1159 525 
L 1159 -1331 
L 581 -1331 
L 581 3500 
L 1159 3500 
L 1159 2969 
Q 1341 3281 1617 3432 
Q 1894 3584 2278 3584 
Q 2916 3584 3314 3078 
Q 3713 2572 3713 1747 
Q 3713 922 3314 415 
Q 2916 -91 2278 -91 
Q 1894 -91 1617 61 
Q 1341 213 1159 525 
z
M 3116 1747 
Q 3116 2381 2855 2742 
Q 2594 3103 2138 3103 
Q 1681 3103 1420 2742 
Q 1159 2381 1159 1747 
Q 1159 1113 1420 752 
Q 1681 391 2138 391 
Q 2594 391 2855 752 
Q 3116 1113 3116 1747 
z
" transform="scale(0.015625)"/>
     </defs>
     <use xlink:href="#DejaVuSans-54"/>
     <use xlink:href="#DejaVuSans-72" x="46.333984"/>
     <use xlink:href="#DejaVuSans-65" x="85.197266"/>
     <use xlink:href="#DejaVuSans-61" x="146.720703"/>
     <use xlink:href="#DejaVuSans-73" x="208"/>
     <use xlink:href="#DejaVuSans-75" x="260.099609"/>
     <use xlink:href="#DejaVuSans-72" x="323.478516"/>
     <use xlink:href="#DejaVuSans-79" x="364.591797"/>
     <use xlink:href="#DejaVuSans-2f" x="423.771484"/>
     <use xlink:href="#DejaVuSans-50" x="457.462891"/>
     <use xlink:href="#DejaVuSans-61" x="513.265625"/>
     <use xlink:href="#DejaVuSans-72" x="574.544922"/>
     <use xlink:href="#DejaVuSans-74" x="615.658203"/>
     <use xlink:href="#DejaVuSans-6e" x="654.867188"/>
     <use xlink:href="#DejaVuSans-65" x="718.246094"/>
     <use xlink:href="#DejaVuSans-72" x="779.769531"/>
     <use xlink:href="#DejaVuSans-73" x="820.882812"/>
     <use xlink:href="#DejaVuSans-68" x="872.982422"/>
     <use xlink:href="#DejaVuSans-69" x="936.361328"/>
     <use xlink:href="#DejaVuSans-70" x="964.144531"/>
     <use xlink:href="#DejaVuSans-73" x="1027.621094"/>
    </g>
   </g>
   <g id="text_10">
    <!-- 20% -->
    <g style="fill: #333333" transform="translate(373.090507 95.941978) scale(0.1 -0.1)">
     <use xlink:href="#DejaVuSans-32"/>
     <use xlink:href="#DejaVuSans-30" x="63.623047"/>
     <use xlink:href="#DejaVuSans-25" x="127.246094"/>
    </g>
   </g>
   <g id="text_11">
    <!-- IDIOT Token — Tokenomics (Illustrative Placeholder) -->
    <g style="fill: #333333" transform="translate(105.50182 19.3575) scale(0.16 -0.16)">
     <defs>
      <path id="DejaVuSans-49" d="M 628 4666 
L 1259 4666 
L 1259 0 
L 628 0 
L 628 4666 
z
" transform="scale(0.015625)"/>
      <path id="DejaVuSans-44" d="M 1259 4147 
L 1259 519 
L 2022 519 
Q 2988 519 3436 956 
Q 3884 1394 3884 2338 
Q 3884 3275 3436 3711 
Q 2988 4147 2022 4147 
L 1259 4147 
z
M 628 4666 
L 1925 4666 
Q 3281 4666 3915 4102 
Q 4550 3538 4550 2338 
Q 4550 1131 3912 565 
Q 3275 0 1925 0 
L 628 0 
L 628 4666 
z
" transform="scale(0.015625)"/>
      <path id="DejaVuSans-4f" d="M 2522 4238 
Q 1834 4238 1429 3725 
Q 1025 3213 1025 2328 
Q 1025 1447 1429 934 
Q 1834 422 2522 422 
Q 3209 422 3611 934 
Q 4013 1447 4013 2328 
Q 4013 3213 3611 3725 
Q 3209 4238 2522 4238 
z
M 2522 4750 
Q 3503 4750 4090 4092 
Q 4678 3434 4678 2328 
Q 4678 1225 4090 567 
Q 3503 -91 2522 -91 
Q 1538 -91 948 565 
Q 359 1222 359 2328 
Q 359 3434 948 4092 
Q 1538 4750 2522 4750 
z
" transform="scale(0.015625)"/>
      <path id="DejaVuSans-2014" d="M 313 1978 
L 6088 1978 
L 6088 1528 
L 313 1528 
L 313 1978 
z
" transform="scale(0.015625)"/>
      <path id="DejaVuSans-6c" d="M 603 4863 
L 1178 4863 
L 1178 0 
L 603 0 
L 603 4863 
z
" transform="scale(0.015625)"/>
      <path id="DejaVuSans-76" d="M 191 3500 
L 800 3500 
L 1894 563 
L 2988 3500 
L 3597 3500 
L 2284 0 
L 1503 0 
L 191 3500 
z
" transform="scale(0.015625)"/>
     </defs>
     <use xlink:href="#DejaVuSans-49"/>
     <use xlink:href="#DejaVuSans-44" x="29.492188"/>
     <use xlink:href="#DejaVuSans-49" x="106.494141"/>
     <use xlink:href="#DejaVuSans-4f" x="135.986328"/>
     <use xlink:href="#DejaVuSans-54" x="214.697266"/>
     <use xlink:href="#DejaVuSans-20" x="275.78125"/>
     <use xlink:href="#DejaVuSans-54" x="307.568359"/>
     <use xlink:href="#DejaVuSans-6f" x="351.652344"/>
     <use xlink:href="#DejaVuSans-6b" x="412.833984"/>
     <use xlink:href="#DejaVuSans-65" x="467.119141"/>
     <use xlink:href="#DejaVuSans-6e" x="528.642578"/>
     <use xlink:href="#DejaVuSans-20" x="592.021484"/>
     <use xlink:href="#DejaVuSans-2014" x="623.808594"/>
     <use xlink:href="#DejaVuSans-20" x="723.808594"/>
     <use xlink:href="#DejaVuSans-54" x="755.595703"/>
     <use xlink:href="#DejaVuSans-6f" x="799.679688"/>
     <use xlink:href="#DejaVuSans-6b" x="860.861328"/>
     <use xlink:href="#DejaVuSans-65" x="915.146484"/>
     <use xlink:href="#DejaVuSans-6e" x="976.669922"/>
     <use xlink:href="#DejaVuSans-6f" x="1040.048828"/>
     <use xlink:href="#DejaVuSans-6d" x="1101.230469"/>
     <use xlink:href="#DejaVuSans-69" x="1198.642578"/>
     <use xlink:href="#DejaVuSans-63" x="1226.425781"/>
     <use xlink:href="#DejaVuSans-73" x="1281.40625"/>
     <use xlink:href="#DejaVuSans-20" x="1333.505859"/>
     <use xlink:href="#DejaVuSans-28" x="1365.292969"/>
     <use xlink:href="#DejaVuSans-49" x="1404.306641"/>
     <use xlink:href="#DejaVuSans-6c" x="1433.798828"/>
     <use xlink:href="#DejaVuSans-6c" x="1461.582031"/>
     <use xlink:href="#DejaVuSans-75" x="1489.365234"/>
     <use xlink:href="#DejaVuSans-73" x="1552.744141"/>
     <use xlink:href="#DejaVuSans-74" x="1604.84375"/>
     <use xlink:href="#DejaVuSans-72" x="1644.052734"/>
     <use xlink:href="#DejaVuSans-61" x="1685.166016"/>
     <use xlink:href="#DejaVuSans-74" x="1746.445312"/>
     <use xlink:href="#DejaVuSans-69" x="1785.654297"/>
     <use xlink:href="#DejaVuSans-76" x="1813.4375"/>
     <use xlink:href="#DejaVuSans-65" x="1872.617188"/>
     <use xlink:href="#DejaVuSans-20" x="1934.140625"/>
     <use xlink:href="#DejaVuSans-50" x="1965.927734"/>
     <use xlink:href="#DejaVuSans-6c" x="2026.230469"/>
     <use xlink:href="#DejaVuSans-61" x="2054.013672"/>
     <use xlink:href="#DejaVuSans-63" x="2115.292969"/>
     <use xlink:href="#DejaVuSans-65" x="2170.273438"/>
     <use xlink:href="#DejaVuSans-68" x="2231.796875"/>
     <use xlink:href="#DejaVuSans-6f" x="2295.175781"/>
     <use xlink:href="#DejaVuSans-6c" x="2356.357422"/>
     <use xlink:href="#DejaVuSans-64" x="2384.140625"/>
     <use xlink:href="#DejaVuSans-65" x="2447.617188"/>
     <use xlink:href="#DejaVuSans-72" x="2509.140625"/>
     <use xlink:href="#DejaVuSans-29" x="2550.253906"/>
    </g>
   </g>
  </g>
 </g>
</svg>
